<mxfile host="Electron" agent="Mozilla/5.0 (Windows NT 10.0; Win64; x64) AppleWebKit/537.36 (KHTML, like Gecko) draw.io/24.7.17 Chrome/128.0.6613.36 Electron/32.0.1 Safari/537.36" version="24.7.17" pages="2">
  <diagram name="Versiones" id="_XAdEC0E58a9SA_KwM-W">
    <mxGraphModel dx="794" dy="557" grid="1" gridSize="10" guides="1" tooltips="1" connect="1" arrows="1" fold="1" page="1" pageScale="1" pageWidth="827" pageHeight="1169" math="0" shadow="0">
      <root>
        <mxCell id="0" />
        <mxCell id="1" parent="0" />
        <mxCell id="K3gFeueKSXWNS65KwII7-1" value="" style="shape=table;startSize=0;container=1;collapsible=0;childLayout=tableLayout;fontFamily=Roboto;fontSource=https://fonts.googleapis.com/css?family=Roboto;fontSize=16;strokeWidth=1;align=left;" parent="1" vertex="1">
          <mxGeometry y="51" width="1040" height="200" as="geometry" />
        </mxCell>
        <mxCell id="K3gFeueKSXWNS65KwII7-2" value="" style="shape=partialRectangle;collapsible=0;dropTarget=0;pointerEvents=0;fillColor=none;top=0;left=0;bottom=0;right=0;points=[[0,0.5],[1,0.5]];portConstraint=eastwest;fontFamily=Roboto;fontSource=https://fonts.googleapis.com/css?family=Roboto;fontSize=16;strokeWidth=1;" parent="K3gFeueKSXWNS65KwII7-1" vertex="1">
          <mxGeometry width="1040" height="40" as="geometry" />
        </mxCell>
        <mxCell id="K3gFeueKSXWNS65KwII7-3" value="NOMBRE" style="shape=partialRectangle;html=1;whiteSpace=wrap;connectable=0;overflow=hidden;fillColor=none;top=0;left=0;bottom=0;right=0;pointerEvents=1;fontFamily=Roboto;fontSource=https://fonts.googleapis.com/css?family=Roboto;fontSize=16;strokeWidth=1;" parent="K3gFeueKSXWNS65KwII7-2" vertex="1">
          <mxGeometry width="367" height="40" as="geometry">
            <mxRectangle width="367" height="40" as="alternateBounds" />
          </mxGeometry>
        </mxCell>
        <mxCell id="K3gFeueKSXWNS65KwII7-4" value="FECHA" style="shape=partialRectangle;html=1;whiteSpace=wrap;connectable=0;overflow=hidden;fillColor=none;top=0;left=0;bottom=0;right=0;pointerEvents=1;fontFamily=Roboto;fontSource=https://fonts.googleapis.com/css?family=Roboto;fontSize=16;strokeWidth=1;" parent="K3gFeueKSXWNS65KwII7-2" vertex="1">
          <mxGeometry x="367" width="112" height="40" as="geometry">
            <mxRectangle width="112" height="40" as="alternateBounds" />
          </mxGeometry>
        </mxCell>
        <mxCell id="K3gFeueKSXWNS65KwII7-5" value="VERSION" style="shape=partialRectangle;html=1;whiteSpace=wrap;connectable=0;overflow=hidden;fillColor=none;top=0;left=0;bottom=0;right=0;pointerEvents=1;fontFamily=Roboto;fontSource=https://fonts.googleapis.com/css?family=Roboto;fontSize=16;strokeWidth=1;" parent="K3gFeueKSXWNS65KwII7-2" vertex="1">
          <mxGeometry x="479" width="82" height="40" as="geometry">
            <mxRectangle width="82" height="40" as="alternateBounds" />
          </mxGeometry>
        </mxCell>
        <mxCell id="K3gFeueKSXWNS65KwII7-6" value="COMENTARIO" style="shape=partialRectangle;html=1;whiteSpace=wrap;connectable=0;overflow=hidden;fillColor=none;top=0;left=0;bottom=0;right=0;pointerEvents=1;fontFamily=Roboto;fontSource=https://fonts.googleapis.com/css?family=Roboto;fontSize=16;strokeWidth=1;" parent="K3gFeueKSXWNS65KwII7-2" vertex="1">
          <mxGeometry x="561" width="479" height="40" as="geometry">
            <mxRectangle width="479" height="40" as="alternateBounds" />
          </mxGeometry>
        </mxCell>
        <mxCell id="K3gFeueKSXWNS65KwII7-7" value="" style="shape=partialRectangle;collapsible=0;dropTarget=0;pointerEvents=0;fillColor=none;top=0;left=0;bottom=0;right=0;points=[[0,0.5],[1,0.5]];portConstraint=eastwest;fontFamily=Roboto;fontSource=https://fonts.googleapis.com/css?family=Roboto;fontSize=16;strokeWidth=1;" parent="K3gFeueKSXWNS65KwII7-1" vertex="1">
          <mxGeometry y="40" width="1040" height="40" as="geometry" />
        </mxCell>
        <mxCell id="K3gFeueKSXWNS65KwII7-8" value="Mayra Rodríguez García" style="shape=partialRectangle;html=1;whiteSpace=wrap;connectable=0;overflow=hidden;fillColor=none;top=0;left=0;bottom=0;right=0;pointerEvents=1;fontFamily=Roboto;fontSource=https://fonts.googleapis.com/css?family=Roboto;fontSize=16;strokeWidth=1;" parent="K3gFeueKSXWNS65KwII7-7" vertex="1">
          <mxGeometry width="367" height="40" as="geometry">
            <mxRectangle width="367" height="40" as="alternateBounds" />
          </mxGeometry>
        </mxCell>
        <mxCell id="K3gFeueKSXWNS65KwII7-9" value="13/01/2025" style="shape=partialRectangle;html=1;whiteSpace=wrap;connectable=0;overflow=hidden;fillColor=none;top=0;left=0;bottom=0;right=0;pointerEvents=1;fontFamily=Roboto;fontSource=https://fonts.googleapis.com/css?family=Roboto;fontSize=16;strokeWidth=1;" parent="K3gFeueKSXWNS65KwII7-7" vertex="1">
          <mxGeometry x="367" width="112" height="40" as="geometry">
            <mxRectangle width="112" height="40" as="alternateBounds" />
          </mxGeometry>
        </mxCell>
        <mxCell id="K3gFeueKSXWNS65KwII7-10" value="1.0" style="shape=partialRectangle;html=1;whiteSpace=wrap;connectable=0;overflow=hidden;fillColor=none;top=0;left=0;bottom=0;right=0;pointerEvents=1;fontFamily=Roboto;fontSource=https://fonts.googleapis.com/css?family=Roboto;fontSize=16;strokeWidth=1;" parent="K3gFeueKSXWNS65KwII7-7" vertex="1">
          <mxGeometry x="479" width="82" height="40" as="geometry">
            <mxRectangle width="82" height="40" as="alternateBounds" />
          </mxGeometry>
        </mxCell>
        <mxCell id="K3gFeueKSXWNS65KwII7-11" value="Creación del Documento" style="shape=partialRectangle;html=1;whiteSpace=wrap;connectable=0;overflow=hidden;fillColor=none;top=0;left=0;bottom=0;right=0;pointerEvents=1;fontFamily=Roboto;fontSource=https://fonts.googleapis.com/css?family=Roboto;fontSize=16;strokeWidth=1;align=left;" parent="K3gFeueKSXWNS65KwII7-7" vertex="1">
          <mxGeometry x="561" width="479" height="40" as="geometry">
            <mxRectangle width="479" height="40" as="alternateBounds" />
          </mxGeometry>
        </mxCell>
        <mxCell id="K3gFeueKSXWNS65KwII7-12" value="" style="shape=partialRectangle;collapsible=0;dropTarget=0;pointerEvents=0;fillColor=none;top=0;left=0;bottom=0;right=0;points=[[0,0.5],[1,0.5]];portConstraint=eastwest;fontFamily=Roboto;fontSource=https://fonts.googleapis.com/css?family=Roboto;fontSize=16;strokeWidth=1;" parent="K3gFeueKSXWNS65KwII7-1" vertex="1">
          <mxGeometry y="80" width="1040" height="40" as="geometry" />
        </mxCell>
        <mxCell id="K3gFeueKSXWNS65KwII7-13" value="Mayra Rodriguez Garcia" style="shape=partialRectangle;html=1;whiteSpace=wrap;connectable=0;overflow=hidden;fillColor=none;top=0;left=0;bottom=0;right=0;pointerEvents=1;fontFamily=Roboto;fontSource=https://fonts.googleapis.com/css?family=Roboto;fontSize=16;strokeWidth=1;" parent="K3gFeueKSXWNS65KwII7-12" vertex="1">
          <mxGeometry width="367" height="40" as="geometry">
            <mxRectangle width="367" height="40" as="alternateBounds" />
          </mxGeometry>
        </mxCell>
        <mxCell id="K3gFeueKSXWNS65KwII7-14" value="17/01/2024" style="shape=partialRectangle;html=1;whiteSpace=wrap;connectable=0;overflow=hidden;fillColor=none;top=0;left=0;bottom=0;right=0;pointerEvents=1;fontFamily=Roboto;fontSource=https://fonts.googleapis.com/css?family=Roboto;fontSize=16;strokeWidth=1;" parent="K3gFeueKSXWNS65KwII7-12" vertex="1">
          <mxGeometry x="367" width="112" height="40" as="geometry">
            <mxRectangle width="112" height="40" as="alternateBounds" />
          </mxGeometry>
        </mxCell>
        <mxCell id="K3gFeueKSXWNS65KwII7-15" value="1.1" style="shape=partialRectangle;html=1;whiteSpace=wrap;connectable=0;overflow=hidden;fillColor=none;top=0;left=0;bottom=0;right=0;pointerEvents=1;fontFamily=Roboto;fontSource=https://fonts.googleapis.com/css?family=Roboto;fontSize=16;strokeWidth=1;" parent="K3gFeueKSXWNS65KwII7-12" vertex="1">
          <mxGeometry x="479" width="82" height="40" as="geometry">
            <mxRectangle width="82" height="40" as="alternateBounds" />
          </mxGeometry>
        </mxCell>
        <mxCell id="K3gFeueKSXWNS65KwII7-16" value="Diagrama Pago de Servicios en ATM" style="shape=partialRectangle;html=1;whiteSpace=wrap;connectable=0;overflow=hidden;fillColor=none;top=0;left=0;bottom=0;right=0;pointerEvents=1;fontFamily=Roboto;fontSource=https://fonts.googleapis.com/css?family=Roboto;fontSize=16;strokeWidth=1;align=left;" parent="K3gFeueKSXWNS65KwII7-12" vertex="1">
          <mxGeometry x="561" width="479" height="40" as="geometry">
            <mxRectangle width="479" height="40" as="alternateBounds" />
          </mxGeometry>
        </mxCell>
        <mxCell id="K3gFeueKSXWNS65KwII7-17" style="shape=partialRectangle;collapsible=0;dropTarget=0;pointerEvents=0;fillColor=none;top=0;left=0;bottom=0;right=0;points=[[0,0.5],[1,0.5]];portConstraint=eastwest;fontFamily=Roboto;fontSource=https://fonts.googleapis.com/css?family=Roboto;fontSize=16;strokeWidth=1;" parent="K3gFeueKSXWNS65KwII7-1" vertex="1">
          <mxGeometry y="120" width="1040" height="40" as="geometry" />
        </mxCell>
        <mxCell id="K3gFeueKSXWNS65KwII7-18" value="" style="shape=partialRectangle;html=1;whiteSpace=wrap;connectable=0;overflow=hidden;fillColor=none;top=0;left=0;bottom=0;right=0;pointerEvents=1;fontFamily=Roboto;fontSource=https://fonts.googleapis.com/css?family=Roboto;fontSize=16;strokeWidth=1;" parent="K3gFeueKSXWNS65KwII7-17" vertex="1">
          <mxGeometry width="367" height="40" as="geometry">
            <mxRectangle width="367" height="40" as="alternateBounds" />
          </mxGeometry>
        </mxCell>
        <mxCell id="K3gFeueKSXWNS65KwII7-19" value="" style="shape=partialRectangle;html=1;whiteSpace=wrap;connectable=0;overflow=hidden;fillColor=none;top=0;left=0;bottom=0;right=0;pointerEvents=1;fontFamily=Roboto;fontSource=https://fonts.googleapis.com/css?family=Roboto;fontSize=16;strokeWidth=1;" parent="K3gFeueKSXWNS65KwII7-17" vertex="1">
          <mxGeometry x="367" width="112" height="40" as="geometry">
            <mxRectangle width="112" height="40" as="alternateBounds" />
          </mxGeometry>
        </mxCell>
        <mxCell id="K3gFeueKSXWNS65KwII7-20" value="" style="shape=partialRectangle;html=1;whiteSpace=wrap;connectable=0;overflow=hidden;fillColor=none;top=0;left=0;bottom=0;right=0;pointerEvents=1;fontFamily=Roboto;fontSource=https://fonts.googleapis.com/css?family=Roboto;fontSize=16;strokeWidth=1;" parent="K3gFeueKSXWNS65KwII7-17" vertex="1">
          <mxGeometry x="479" width="82" height="40" as="geometry">
            <mxRectangle width="82" height="40" as="alternateBounds" />
          </mxGeometry>
        </mxCell>
        <mxCell id="K3gFeueKSXWNS65KwII7-21" value="" style="shape=partialRectangle;html=1;whiteSpace=wrap;connectable=0;overflow=hidden;fillColor=none;top=0;left=0;bottom=0;right=0;pointerEvents=1;fontFamily=Roboto;fontSource=https://fonts.googleapis.com/css?family=Roboto;fontSize=16;strokeWidth=1;align=left;" parent="K3gFeueKSXWNS65KwII7-17" vertex="1">
          <mxGeometry x="561" width="479" height="40" as="geometry">
            <mxRectangle width="479" height="40" as="alternateBounds" />
          </mxGeometry>
        </mxCell>
        <mxCell id="K3gFeueKSXWNS65KwII7-22" style="shape=partialRectangle;collapsible=0;dropTarget=0;pointerEvents=0;fillColor=none;top=0;left=0;bottom=0;right=0;points=[[0,0.5],[1,0.5]];portConstraint=eastwest;fontFamily=Roboto;fontSource=https://fonts.googleapis.com/css?family=Roboto;fontSize=16;strokeWidth=1;" parent="K3gFeueKSXWNS65KwII7-1" vertex="1">
          <mxGeometry y="160" width="1040" height="40" as="geometry" />
        </mxCell>
        <mxCell id="K3gFeueKSXWNS65KwII7-23" style="shape=partialRectangle;html=1;whiteSpace=wrap;connectable=0;overflow=hidden;fillColor=none;top=0;left=0;bottom=0;right=0;pointerEvents=1;fontFamily=Roboto;fontSource=https://fonts.googleapis.com/css?family=Roboto;fontSize=16;strokeWidth=1;" parent="K3gFeueKSXWNS65KwII7-22" vertex="1">
          <mxGeometry width="367" height="40" as="geometry">
            <mxRectangle width="367" height="40" as="alternateBounds" />
          </mxGeometry>
        </mxCell>
        <mxCell id="K3gFeueKSXWNS65KwII7-24" style="shape=partialRectangle;html=1;whiteSpace=wrap;connectable=0;overflow=hidden;fillColor=none;top=0;left=0;bottom=0;right=0;pointerEvents=1;fontFamily=Roboto;fontSource=https://fonts.googleapis.com/css?family=Roboto;fontSize=16;strokeWidth=1;" parent="K3gFeueKSXWNS65KwII7-22" vertex="1">
          <mxGeometry x="367" width="112" height="40" as="geometry">
            <mxRectangle width="112" height="40" as="alternateBounds" />
          </mxGeometry>
        </mxCell>
        <mxCell id="K3gFeueKSXWNS65KwII7-25" style="shape=partialRectangle;html=1;whiteSpace=wrap;connectable=0;overflow=hidden;fillColor=none;top=0;left=0;bottom=0;right=0;pointerEvents=1;fontFamily=Roboto;fontSource=https://fonts.googleapis.com/css?family=Roboto;fontSize=16;strokeWidth=1;" parent="K3gFeueKSXWNS65KwII7-22" vertex="1">
          <mxGeometry x="479" width="82" height="40" as="geometry">
            <mxRectangle width="82" height="40" as="alternateBounds" />
          </mxGeometry>
        </mxCell>
        <mxCell id="K3gFeueKSXWNS65KwII7-26" style="shape=partialRectangle;html=1;whiteSpace=wrap;connectable=0;overflow=hidden;fillColor=none;top=0;left=0;bottom=0;right=0;pointerEvents=1;fontFamily=Roboto;fontSource=https://fonts.googleapis.com/css?family=Roboto;fontSize=16;strokeWidth=1;align=left;" parent="K3gFeueKSXWNS65KwII7-22" vertex="1">
          <mxGeometry x="561" width="479" height="40" as="geometry">
            <mxRectangle width="479" height="40" as="alternateBounds" />
          </mxGeometry>
        </mxCell>
        <mxCell id="K3gFeueKSXWNS65KwII7-27" value="&lt;font style=&quot;font-size: 20px;&quot;&gt;CONTROL DE VERSIONES&lt;/font&gt;" style="rounded=0;whiteSpace=wrap;html=1;fontColor=#FFFFFF;labelBackgroundColor=none;fillColor=#36393D;fontSize=20;align=left;" parent="1" vertex="1">
          <mxGeometry width="1040" height="41" as="geometry" />
        </mxCell>
      </root>
    </mxGraphModel>
  </diagram>
  <diagram id="_lqnbIMrRE9biQJ3lbmK" name="ATM - Pago de Servicios">
    <mxGraphModel dx="3639" dy="3731" grid="1" gridSize="10" guides="1" tooltips="1" connect="1" arrows="1" fold="1" page="1" pageScale="1" pageWidth="827" pageHeight="1169" math="0" shadow="0">
      <root>
        <mxCell id="0" />
        <mxCell id="1" parent="0" />
        <mxCell id="7OVqoEr7d0FIJibE8eMs-9" value="&lt;font style=&quot;font-size: 14px;&quot;&gt;PLARD Pago de Servicios en ATM&lt;/font&gt;" style="shape=umlFrame;whiteSpace=wrap;html=1;pointerEvents=0;recursiveResize=0;container=1;collapsible=0;width=310;height=44;fontStyle=1;fontSize=13;verticalAlign=middle;align=center;" parent="1" vertex="1">
          <mxGeometry x="-1213" y="-714" width="2521" height="3183" as="geometry" />
        </mxCell>
        <mxCell id="7OVqoEr7d0FIJibE8eMs-13" value="Cliente TDD Santander" style="shape=umlLifeline;perimeter=lifelinePerimeter;whiteSpace=wrap;html=1;container=1;dropTarget=0;collapsible=0;recursiveResize=0;outlineConnect=0;portConstraint=eastwest;newEdgeStyle={&quot;edgeStyle&quot;:&quot;elbowEdgeStyle&quot;,&quot;elbow&quot;:&quot;vertical&quot;,&quot;curved&quot;:0,&quot;rounded&quot;:0};align=center;movable=1;resizable=1;rotatable=1;deletable=1;editable=1;locked=0;connectable=1;fontStyle=1" parent="7OVqoEr7d0FIJibE8eMs-9" vertex="1">
          <mxGeometry x="26" y="90.25" width="170" height="3089.75" as="geometry" />
        </mxCell>
        <mxCell id="7OVqoEr7d0FIJibE8eMs-14" value="" style="html=1;points=[[0,0,0,0,5],[0,1,0,0,-5],[1,0,0,0,5],[1,1,0,0,-5]];perimeter=orthogonalPerimeter;outlineConnect=0;targetShapes=umlLifeline;portConstraint=eastwest;newEdgeStyle={&quot;curved&quot;:0,&quot;rounded&quot;:0};" parent="7OVqoEr7d0FIJibE8eMs-13" vertex="1">
          <mxGeometry x="80" y="100" width="10" height="730" as="geometry" />
        </mxCell>
        <mxCell id="7OVqoEr7d0FIJibE8eMs-18" value="&lt;div&gt;&amp;lt;&amp;lt;Canal&amp;gt;&amp;gt;&lt;/div&gt;Cajero Automático" style="shape=umlLifeline;perimeter=lifelinePerimeter;whiteSpace=wrap;html=1;container=1;dropTarget=0;collapsible=0;recursiveResize=0;outlineConnect=0;portConstraint=eastwest;newEdgeStyle={&quot;edgeStyle&quot;:&quot;elbowEdgeStyle&quot;,&quot;elbow&quot;:&quot;vertical&quot;,&quot;curved&quot;:0,&quot;rounded&quot;:0};align=center;movable=1;resizable=1;rotatable=1;deletable=1;editable=1;locked=0;connectable=1;fontStyle=1" parent="7OVqoEr7d0FIJibE8eMs-9" vertex="1">
          <mxGeometry x="243" y="90.25" width="149" height="3089.75" as="geometry" />
        </mxCell>
        <mxCell id="d_heLC9sorncWFn3Z_Ut-1" value="&lt;div&gt;&amp;lt;&amp;lt;Queque&amp;gt;&amp;gt;&lt;/div&gt;MQ Canal" style="shape=umlLifeline;perimeter=lifelinePerimeter;whiteSpace=wrap;html=1;container=1;dropTarget=0;collapsible=0;recursiveResize=0;outlineConnect=0;portConstraint=eastwest;newEdgeStyle={&quot;edgeStyle&quot;:&quot;elbowEdgeStyle&quot;,&quot;elbow&quot;:&quot;vertical&quot;,&quot;curved&quot;:0,&quot;rounded&quot;:0};align=center;movable=1;resizable=1;rotatable=1;deletable=1;editable=1;locked=0;connectable=1;fontStyle=1" parent="7OVqoEr7d0FIJibE8eMs-9" vertex="1">
          <mxGeometry x="653.5" y="89" width="118" height="3091" as="geometry" />
        </mxCell>
        <mxCell id="ETtuI2cxKlWIt_UlJkou-5" value="" style="html=1;points=[[0,0,0,0,5],[0,1,0,0,-5],[1,0,0,0,5],[1,1,0,0,-5]];perimeter=orthogonalPerimeter;outlineConnect=0;targetShapes=umlLifeline;portConstraint=eastwest;newEdgeStyle={&quot;curved&quot;:0,&quot;rounded&quot;:0};" parent="7OVqoEr7d0FIJibE8eMs-9" vertex="1">
          <mxGeometry x="312.5" y="330" width="10" height="2640" as="geometry" />
        </mxCell>
        <mxCell id="ETtuI2cxKlWIt_UlJkou-17" value="&lt;div&gt;&amp;lt;&amp;lt;Componente&amp;gt;&amp;gt;&lt;/div&gt;Launcher" style="shape=umlLifeline;perimeter=lifelinePerimeter;whiteSpace=wrap;html=1;container=1;dropTarget=0;collapsible=0;recursiveResize=0;outlineConnect=0;portConstraint=eastwest;newEdgeStyle={&quot;edgeStyle&quot;:&quot;elbowEdgeStyle&quot;,&quot;elbow&quot;:&quot;vertical&quot;,&quot;curved&quot;:0,&quot;rounded&quot;:0};align=center;movable=1;resizable=1;rotatable=1;deletable=1;editable=1;locked=0;connectable=1;fontStyle=1" parent="7OVqoEr7d0FIJibE8eMs-9" vertex="1">
          <mxGeometry x="823.5" y="89" width="118" height="3091" as="geometry" />
        </mxCell>
        <mxCell id="ETtuI2cxKlWIt_UlJkou-23" value="&lt;div&gt;&amp;lt;&amp;lt;CaaS Integration Layer&amp;gt;&amp;gt;&lt;/div&gt;&lt;div&gt;&lt;font color=&quot;#cc0000&quot;&gt;TBD&lt;/font&gt;&lt;/div&gt;" style="shape=umlLifeline;perimeter=lifelinePerimeter;whiteSpace=wrap;html=1;container=1;dropTarget=0;collapsible=0;recursiveResize=0;outlineConnect=0;portConstraint=eastwest;newEdgeStyle={&quot;edgeStyle&quot;:&quot;elbowEdgeStyle&quot;,&quot;elbow&quot;:&quot;vertical&quot;,&quot;curved&quot;:0,&quot;rounded&quot;:0};align=center;movable=1;resizable=1;rotatable=1;deletable=1;editable=1;locked=0;connectable=1;fontStyle=1" parent="7OVqoEr7d0FIJibE8eMs-9" vertex="1">
          <mxGeometry x="1158.25" y="89" width="163.5" height="3091" as="geometry" />
        </mxCell>
        <mxCell id="ETtuI2cxKlWIt_UlJkou-42" value="&lt;div&gt;&amp;lt;&amp;lt;Repositorio&amp;gt;&amp;gt;&lt;/div&gt;&lt;div&gt;Redis Streams&lt;/div&gt;" style="shape=umlLifeline;perimeter=lifelinePerimeter;whiteSpace=wrap;html=1;container=1;dropTarget=0;collapsible=0;recursiveResize=0;outlineConnect=0;portConstraint=eastwest;newEdgeStyle={&quot;edgeStyle&quot;:&quot;elbowEdgeStyle&quot;,&quot;elbow&quot;:&quot;vertical&quot;,&quot;curved&quot;:0,&quot;rounded&quot;:0};align=center;movable=1;resizable=1;rotatable=1;deletable=1;editable=1;locked=0;connectable=1;fontStyle=1;" parent="7OVqoEr7d0FIJibE8eMs-9" vertex="1">
          <mxGeometry x="993" y="89" width="118" height="3091" as="geometry" />
        </mxCell>
        <mxCell id="ETtuI2cxKlWIt_UlJkou-44" value="&lt;div&gt;&amp;lt;&amp;lt;Plataforma SaaS&amp;gt;&amp;gt;&lt;/div&gt;PLARD" style="shape=umlLifeline;perimeter=lifelinePerimeter;whiteSpace=wrap;html=1;container=1;dropTarget=0;collapsible=0;recursiveResize=0;outlineConnect=0;portConstraint=eastwest;newEdgeStyle={&quot;edgeStyle&quot;:&quot;elbowEdgeStyle&quot;,&quot;elbow&quot;:&quot;vertical&quot;,&quot;curved&quot;:0,&quot;rounded&quot;:0};align=center;movable=1;resizable=1;rotatable=1;deletable=1;editable=1;locked=0;connectable=1;fontStyle=1" parent="7OVqoEr7d0FIJibE8eMs-9" vertex="1">
          <mxGeometry x="1368.5" y="89" width="149" height="3091" as="geometry" />
        </mxCell>
        <mxCell id="YG_A0a-0bIN4n77Yev4p-64" value="" style="html=1;points=[[0,0,0,0,5],[0,1,0,0,-5],[1,0,0,0,5],[1,1,0,0,-5]];perimeter=orthogonalPerimeter;outlineConnect=0;targetShapes=umlLifeline;portConstraint=eastwest;newEdgeStyle={&quot;curved&quot;:0,&quot;rounded&quot;:0};" parent="ETtuI2cxKlWIt_UlJkou-44" vertex="1">
          <mxGeometry x="69.5" y="1044" width="10" height="80" as="geometry" />
        </mxCell>
        <mxCell id="DYEH30njlGgWFVAgYdiF-4" value="&lt;div&gt;&amp;lt;&amp;lt;Altair 390&amp;gt;&amp;gt;&lt;/div&gt;CAPTACION" style="shape=umlLifeline;perimeter=lifelinePerimeter;whiteSpace=wrap;html=1;container=0;dropTarget=0;collapsible=0;recursiveResize=0;outlineConnect=0;portConstraint=eastwest;newEdgeStyle={&quot;edgeStyle&quot;:&quot;elbowEdgeStyle&quot;,&quot;elbow&quot;:&quot;vertical&quot;,&quot;curved&quot;:0,&quot;rounded&quot;:0};align=center;movable=1;resizable=1;rotatable=1;deletable=1;editable=1;locked=0;connectable=1;fontStyle=1" parent="7OVqoEr7d0FIJibE8eMs-9" vertex="1">
          <mxGeometry x="1752.5" y="89.25" width="118" height="3090.75" as="geometry" />
        </mxCell>
        <mxCell id="YG_A0a-0bIN4n77Yev4p-56" value="&lt;div&gt;&amp;lt;&amp;lt;Componente&amp;gt;&amp;gt;&lt;/div&gt;OAS Splitter" style="shape=umlLifeline;perimeter=lifelinePerimeter;whiteSpace=wrap;html=1;container=1;dropTarget=0;collapsible=0;recursiveResize=0;outlineConnect=0;portConstraint=eastwest;newEdgeStyle={&quot;edgeStyle&quot;:&quot;elbowEdgeStyle&quot;,&quot;elbow&quot;:&quot;vertical&quot;,&quot;curved&quot;:0,&quot;rounded&quot;:0};align=center;movable=1;resizable=1;rotatable=1;deletable=1;editable=1;locked=0;connectable=1;fontStyle=1" parent="7OVqoEr7d0FIJibE8eMs-9" vertex="1">
          <mxGeometry x="1923" y="89" width="142" height="3091" as="geometry" />
        </mxCell>
        <mxCell id="YG_A0a-0bIN4n77Yev4p-210" value="Registrar la operación de pago de servicio&lt;div&gt;Trx: LMV2&lt;/div&gt;" style="text;html=1;align=left;verticalAlign=top;whiteSpace=wrap;rounded=0;fontSize=9;" parent="7OVqoEr7d0FIJibE8eMs-9" vertex="1">
          <mxGeometry x="331" y="2390" width="179" height="32" as="geometry" />
        </mxCell>
        <mxCell id="YG_A0a-0bIN4n77Yev4p-260" value="Entrega respuesta del registro de la operación de pago de servicio" style="text;html=1;align=left;verticalAlign=top;whiteSpace=wrap;rounded=0;fontSize=9;" parent="7OVqoEr7d0FIJibE8eMs-9" vertex="1">
          <mxGeometry x="343" y="2884" width="140" height="35" as="geometry" />
        </mxCell>
        <mxCell id="XcsW5exaLv0oU2u8EN1J-1" value="" style="group" parent="1" vertex="1" connectable="0">
          <mxGeometry x="-1213" y="-803" width="2521" height="79" as="geometry" />
        </mxCell>
        <mxCell id="7OVqoEr7d0FIJibE8eMs-1" value="PLARD: PAGO DE SERVICIOS EN ATM - MODELO FUNCIONAL DE SECUENCIA" style="rounded=0;whiteSpace=wrap;html=1;align=center;fontSize=16;fontStyle=1" parent="XcsW5exaLv0oU2u8EN1J-1" vertex="1">
          <mxGeometry width="2521" height="79" as="geometry" />
        </mxCell>
        <mxCell id="7OVqoEr7d0FIJibE8eMs-2" value="&lt;img alt=&quot;&quot; src=&quot;data:image/png;base64,iVBORw0KGgoAAAANSUhEUgAAAOgAAABXCAYAAAAONQnYAAAAAXNSR0IArs4c6QAAAARnQU1BAACxjwv8YQUAAAAJcEhZcwAAFxEAABcRAcom8z8AACX3SURBVHhe7Z0JmBTVtcdPL9N797BIFEWFqIiAskgU0IggGiMvbhF5aDQmrnFHBBVRjGwSQEUNboDGGBeeu2ERVBCVXYFhBGbt6a7uWnudGTZR6v1PTzEOAwPTQ4+A1P/7zlfLPXWreub++pxbdes2mTJlypQpU6ZMmTJlypQpU6ZMmTJlypQpU6ZMmTJlypQpU6ZMmTJlqokqpEKH1lrz89LYZcpU47WI+tkjdHlrJW9wd9l2zcCY/U9nB+nPLqPYVHayhNzasUGvcH4ooFwUDqhDQ375CSxfLW4h9jN8TJnat3Qia4L+51zZdtk/ZPvlMyT7Ve/K9qvXxB3XKJrjmk9C7r8ea7iaykLlPvG8cL48N+xXhEhAVYSAmhQCmi600PTyFsr1hpspU/tWMV0cSNove3tb3mA9lXeVnswboicdQ/Wtjj/riuPabyOuIccbrqayUIU3ckesRVrX8lO6lB/XRZiUn9RD+cqOsoB8reFmytS+FaberZL2yxdsB6BS3hW6DEhlxxA95fgTltesFNzXtjNcTWWhoC9yWzRf1dlC+RJM1iP5MT2cr243ATXVaIXo3JYp++VztgBME9DcyQTUVE5kAto8MgHNocJErXYSOY3NI0omoM0jE9DcyKIRdUoRvRIjegTrfmP/ESMT0ObRoQCoTrqlhOLHl5PYr5SUK8spenMpSSNLKPo7w+XQVoioZZzo/R/xWdJE25JEY3Uij1F8RMgEtHl0MAEtoIKjyylyaTlJU2ELg6SUV5CaCpG2TaSkXkryDMP10JZE5E0QPQE4t+wApAB0G6Lok9j/K8PlFy8T0OZRuU+4+ecGtJCiJ4QpdiPsgyDJ8Shg1GiLrlC1HqW0HiRNj1AyFSR1snHIoa8oIqaK9BaRdPP3NZDuBKQzKomOMlx+VhUSOYrJ1yZJ+R0k8nZVKb9nglr8VqWjB6l0zCUqHTdIoXa/i1GHs2TqeEaSOnYoo1/nG4dnreYENEzD3FHXAydIeaO7iPZxvWTn+Askx7hBomPCJYJj4qCoc8rvZPvU3pG8p7qLjmmdo64XT9BaT/JzamZU0WjxMWvpNa/qmdc24pjTUfDOPUN0L+gV8i4cKHgWDBI8n11SY58PCjm/uEjwL+8d8XzdI0iLWhhV7FeraXVekbvoONFX3DnqKekZ8hah7tJBFbAST/BiwS30rvCJncu8ZUeHvMI9kXxl588BaOa6SBoUInVeiGJbGEoVUCK1rS4lcR1sZhlFH0I0vXsjRa8JkdTFOPTwUJDIBSiHA84ER1JE1B8B7CyA29ZwaRYhnbag/9syRo7TFHJcmbQ67k9Y3FNiFu+HmiWwVrO0KNIsrUtVy1EhzXqMpFmPhbWTFGt7UbF2KFetp5Ro1o7fqrZOryfsXR9Sbd1/L1PXo43qG6VcA6rRCL9oH9VLcT5yu+p49J+i49Gvo67HiqOux8uirrGRqGucHHVNlKKuSbApYsT9ZDDqfrok6p5WFHE9u0JxPz9T9bw0OuT65/WC5/luwfxX9gqQTrNtQc/sYyT3e2eJrnevlz0fjZa9/50e8Xz8ueCdsyHsnVsc9s4vE3wLImHfAlnwfSYJvs9hi6Wwd0lU8H1VEfZ9XSx4ll1iVLlXLaJF9gpfYeewf+NfooHiyYK3aHHIt6m4wl9UGvKXRcL+MinsL5dC/qAY8oeCwfxQcUVA+CIciH4dzpd+EABmcwJaSOFWxRQZgzRWZihV2oxIqcbKSX4TgF5XSsIpG2nj4X9vZTaRDenuHTCNIynAQXpAb8NONVxyLpnoaHwZPFtNlpVxylMSFtePKYtHr7T49CpLPqwVrA22f6WnrW1h7WAnwDrATtIrrR1hnfSUrbMet3XdmbB1E+LW7h+K1h7DZGevXxun2adyBWgh3e6THCMGq46Rr2jOh9cprtFbY64xetw1Vk+4JmA5QY+5n4BNgk3WNfdTsGlYf06Pu6fDntfjnhd1wKnLnpd2iu6X0gnXa99G3bPGLaIx9pqz/KRyx79PVT3vvR7zfFQY9bxXKXk/2ql45+iad76u+T7NmOpbpCu+xYZ9CfsathS2XE/4v9GlwAo95P1qiFFlfVkirvV9BV/BP8RA8fKof1OVHCjRlUCFrgbCWIZ1OSDAIqhHzJgckHWlhZaxSAZK0bDmATREm48FmC/AdnDURFq7HWC+i0h5dZCSjc4MDhvxuFSF6IYYuqcM6WYY1ucB0k6GS07F9eKLIKSTVa8kh560uPQEAI0BUA2AapaWsKNgbXREUNhxsONh7XXV+mvYKbBT9ZjtNAZUT9u66VW2M/WE7cztMduZSzQ6+9LZNNhmnG6vygWgSt493SXH8JdVx4hYwjVKT7oe0VXXaF3GUnI9qouuv8Me10X3ONgE2BN6FJBG3VNhT8OmwZ7Ro57ndMnzPAMKUGfp27xv6RHPzBU6vbLHgP2g8/X+iuedZLV3nq54P9YBqC7Cot7/6oJvDmwu7BPYQsM+hy2GfQH7Upf9y/WIf1la8C/7vVFlrYL5a1qEvOvviXrXF0v+TboWKAOAxXoksEkXsAxnrARWBivXQ4C2xkIAUQCEEVi0WQEtoLKjS0l6LUxxtNGtgFOJlZH04Foq/eXfPwE41wCciu0/Qfq5RHS2UZwzcXRGxC7ZAkCR5gJMF8wDIGsATQDQJABNAdAUAE0hgqYQQZMANA5ANQNQFYCqti6wM2A99CQgrbadBVB7C6K9z/0SXeg1TrmHDhRQ1XHvoLhz+IqEc4SecD4IKB8AjA/CRsFGwx7Fvsd1xTUOEXMCbBJssq66n4Q9rSvuZ3UZtgvQqGc67AXYS3rS+5oueGZ8uTdAw67/9BM9/6do3g/1iPd92AcwXv9YjwBOEXBKiKIyomiNLYF9BfsatkxP+tegfEVJifez3fpjUdfqE6Legumif/1mLVCkR/0bAOF3MF6yFQHSEj0KMEUAKSGSioFoxqKwCIAUAGdzAlpMYhtEyplhiukyVeoVpFYA1r+MoTFWw+WXL6Sfl6MfuokhZcP6ylxDyoCi31u8D0B/SFhabUEUTSGCauiDyoig8bi1fWXM2mFHGilulfU0gNh5N0BVW09YL73K3ldP2PtUadbetxqn3EMHAqhsu/0C1XF3SbVzpK4679clmOgaWQuoAjgTSHFjgBOAfi+7xqdF13gNfVAl4vpHPOKamhRd06oB6fcNAzpzSUOASp535L0DOm+n6Jv/fcS3sFrwfpIMexdq3AcN+xYpgndxXPAtSWr+Vdtk36pPiml5wKiSYq2WB0TvupkKoGQL+wtg62sB5Qiq5iPFzQ9hvfyHiD9YhX5oHNFTrghUaGF/OB0NiNujADKa6Xs2D6BIZe8TKPFjDGktQA0D2KuMoiNLAGgAwFyxDYBuhSHarUQ0vdAoPmA1BGjK4gegATlOLR+LU+BWjVpfF6djBmvU9nKVjh2i0gk3Is0dGbecMiNpPXVFzNZpWyVSXK0eoIr9bEB6LlLgvmWa7ZzzjdPupqYCKuXd1EV03Lm8ElDKzmGA877dAI1l0ttHdqiux1ZKrr+/gCg6POIc+xfJPXFw2DHxCsk1+eqoa8q1Uee0myTns49HnM9qSgbOAwNU8c1D9Jy3TPTOuy/qWXBT2Dv/WtH36VUh9+eXBd2fXRnxfj6kwrvkT2Hfktsj/pXoAszOdAF00m0R37ePSIH1O2Q/gPSv3Q1QKRM1S7As3RDxl/8n5Ct5OOwruykcKP3foK/0ipAvNDjkD90Q8gv3IsV9IuSPruQbROEMqLkDtIQifUKklXNaGyK1EoDebBQdmQKQZ8FWMqBGJC0CWJcbxQekhgDdDEBjFv+3q6ntPgdNKNTGF6OTO2vWjiM1a+fSSgAaqweoau+jV9vP0zX7uXNidFZttNilpgBaSIMdkuNvL6UBpuK8F2Cy1QAqIcWNM5zOUQLS20fkvJGnR2nMfj7HP46JOp8p4ptEBwpoEv1NyffJ04Zbo1XhXD5A8K6Oa5zGZuD8CVAFfU7BvxH91aLnBX9x74L8gpbGYQ0qCFD5EUskh49ZFlHQVU7S63ynltPbMlKeX0pht1F85Aog9YJ9xZDyzSNE0nKF6IDTiv0BupaObrDvWFf8uEaiLv3j1q7LqwGnBlMMQBUAmkAUVey/3Spb+w01DqlVUwCV7bf0UR23y6kMmHfXART9UNfDgPahCsHx0FX7u0G1SzGaehwALc4VoEqWgBbSbJ/gW/1GHJFSQN+0LqAy0tpIYKOCFPfOKEUbPcqsOQYqlJE8EH3NJA88KCNpY5C0Zrl5eVgKfdIzAOaCaiOSptBGVKIbxxA1uWO+P0A3Uuusnl8p9u5949YewWqGsw6gqv0cpLrnY/38t9fWu2HUFEDVvNsmpQGm4rxrN0Djzgd1xfGAEHU8cIXh2ihFaMrxuQV0wTS4NHqwQ8S1ok/Ut1pRMxHz21pAo0h1xcCGbYJ/wzCkwFn9n3M91I/Pj+g5XaJKHg2kV5A82igytUsC0SlIcd+pxN+LBzRgPQZIb0IEa1SkqK9cA8rSrN1Gpm09d8Rtv6kFVAGglQA0bhsQVGlAT8M1o2wBFdw3tVMdt62qdt4DKO+sBVR2DtdjzgdQx4jHDddG62ADKnhXDdP86/SI/5vdANWQ2oZ8hfPX0JqsnynmGtBiEtqh77k6RTt4IELpJhLOMIpM1VWE6HiAOZMHMhjproJ0d0SYKOu+QHMAGqZux8WsPQsr6wGaAqAJe//qsO283aJbtoCGbTderDpu3RrLwPkToAnnSETUEd9F6L6OhmujdTAB5bRV9K1+Kx4oBJSrawEV/YUAtgDRc/11NZ7ZKdeABkk6H/1OrYp+1AWKvTGbZpszAzYkQNoacM0AXD8ag+yrAe3jPK7XcGmUmgNQlmrp+QwDqtp71wIas/cDoAN2Stb+Iwy3jLIFVLTfeGvSeTtgvH03QKucD+mxvBHTm/Is7mACKrq+PjHiXbFRy6S3PwGqcd/TX1BYcdSGJg33zDWg6HPeIVDihyildKS6Dxi7TTWkNCBFevscImgGUqS9WwDbTUZxo9RsgFp7DEkAUK0OoKr9PH2L/UI9aRvIjbdW2QDK03KKeTc9zYDKdQBVnMN0zXn/Tskx/G7DNSsdTEBD7hW95Ez/c109QIsA6PolhZ2bNodtjgG1lJP6bJK+18MUry6myB+M/ab2pSBRC0D6BCBL8DulVUQreZ9RvF81F6CyrccF3AetC6gCQLcD0CrbwBfhUtt4swE0RtcGFPvNc9IAsy6g8Uz/c3il6Bixz4HnDemgprjeZRcixU3KmX5nDaACYJX9G7AseFlv4uicXALKb6sIFH+9mvTM62JFJDbp73xEivueAG22DkDRL42gP3qSUbRfNVsEtff8rWbrtQegWwFoyjZwRt3HH9kAGqWhR2mOW1ZUAkzR+bd6gI6IKa77zjVcs9LBBFTyrPgf0beqUs48XqkBFKkt90F3Rn2FDxpuWSuXgM6lYqdAyTeqaCf6n4k0v1pmFJnan9D3vBpp7iaOoAC0CFG00YOVmwtQxX7mOTxQoT6g2wBo2nbhy3X7idkBegsAvXV1fUATzvsZUC3iuq+v4ZqVDiagEffSPzQEaMT/3W799WyU2wiq54mURgStAbTUjKCNk0w0FIBJ3Afl4YAA9El+I8Yo3q+aL4L26hfbC6Cc4qZtA18w3DLKNoIqjltXMaDSboAO5z5oLHoYRtBQA4BKmeF+BeMNt6yVS0DHkG4NkvZyJf2ghyhWZQK6H/G7o2miGwCXzI9aEDX5Je//ixEdZ7g0Ss3YB700vgeg/fQt9oF6wnbBU4ZbRtn2QeW8m+dxH1Sq1wfVnMNTUef9FxmuWelg90El3+pE/T6o6ucRROvf4zG6hmtWyvFNIiql8Ej0P3dGKPFDkMS/GbtN1RcipEMluhfRMvUDNgEYD1iYiX1Z345vthTX2v2hVL3HLHH7+XrMPuDHqLX/XYZbRtkAyn1X0XbzU/Xv4qrOYbDhP0Sdw5o0cPtgAiraV/QSfd8oamDPu7hRf+FKpU2hz3DNSrkGtJxCF4UplkxnnoPGZ+0a5G+qjlYTeRAlRwGqSoYTUXMHIJsWbeL8Rc0BaJBOdGnWHgurAGj9gQpJe/+0aBuw2wvK2QDKkvNuuSUBOOs+B5WN56Ba3sgn4dIoMOrqYAK60bmovehducdz0Jo3WtZrFd5vLjBcs1KuAS2m0ElBUr9L16S5a3jbKDLF2kjkTxBNBZSZGQARQXkGwPEKUZO+YVnNASjPS5Sw9Uwm6wFaae+vx239N4g0oLPhmlG2gIq2Gy9RHLdt1zJw1gDKAxVSmXG4968S3CN382+MDiagq2m1B33QN+P+3UcSRTjNrXkW+iLPS2S4N1q5BpQftQRJeo3nHQqR9mMFKXcaRaaKiQIMJ6DcyZETyy0cSbH/gGajzzWgGp3qT1i7v7+V+5+wXYDyYHkeiyvbzp+p05l5hntG2QIq0Z/bq47b1lbVG4vLL2yrzhE7ZPvIBl8Ob0gCTWt3sABlyd5v7+EUt/5YXMm/Efu+U4L+gqxvyuQaUFY5qUPKSd6mUJVeSuKKDVTRrJPaHRbiOXLRx5yOyPkj3xDCMgVYR6EvultDb4r2B2ghtWl0dA5Stxaq5fSJSVv3HQnbmXu8bqbaf1slU7893mPNFlB+cI8091kGVK4DKL/NkuQo6nxgXcg+qpfh3iiV0dNHA9CcvQ+aLaCCe3lvwbdKUfnl7DqA8utm/C5oJLDxCzGwMavPVO4Tbs01oDwRGACdy++DVpC6A5COaepNrF+EACYPjP83v2Jm3BBSkdLevogo65Rnb9oPoN8sQn/ScG1Q/LqbnNfxDM3WZWbMdsb2ZAMvbKvWc9/Z29xE2QLKEmw399ccd8aSGTB/AlTJvA86ShedDy2Luh46x3DfpxR6zhfJm3KD6HomrnqePyiAhmmpW/Cuejnh34CIufv7oAJSX54wTPBv+jbs/+6voq+4jXHYPlXhC98o5hhQVgmJF1eQFuMZFQCpAmAvNYqOLAHEkwFn5tUyI62NACh+s6HR//j9qSFAK2sADWrU4lqFWvaV6OgOFXRCW4VOPCYIi1G741Q6sYdmO+lyzdJpnGbttDZh66onbd0AZvcMoLsiaGXmDu45ZQnqc55x2t3UFEDDdJVbcdz+70rnMERRTnV3vbB9f2bSsLhrtB51jlofc4+5W8gbc0apd8yvIv4JrYtbjQmk8ie2zGw7JnQU3VP/KLqfmiW6pikSTxyWgzmJmgIoq9S9olfU921RDGltXUB5RgVEUETSMsC7KSUEit8PBzbdHvGWXrDJV9BpY+uNxwY9wWMKYRs8FW2D+cH2FfkVPUP+yDORfAVQKjkFlPui6H9OlSi9s2ZyanklImlW0f2wF9LaLgDyM57Rz0hrSwFTTqY5qauGAOVJw2KW/B/jlhZpzdI6mLIc9WXK0nZuynLsf1OW42HtP41Z2heq1lOSMWunnWlbZz22l0nD0va+gLPvZtXat8HHH00BlBXNu7mn7LxjA89JVBdQnpNIcj0ESB/VFdcj2yTnYwWqc+yHsnPs2xHX2JdF94T/qK7JH6iuKcsAaFIFmJr7n/rBBpQV8a0ZLPkKYjF/0W6A7po0jOclkgNBXQyUbo34y6IRf3Cl5BfmR32R/2bML80T8+Ul4fxoUTgQrWyuScPWkdAO0fNdmdK6mHm7Rf06SHIfo/iXLZ45AZFzMc+aYKS1xYimFxvFOdV+ANXTlpaZias3W36lb7a2hbWDnQDroFdZT9JT1o56fC/TbsYAKE+7GbOfvVmy9X68/iwKddVUQFmC9c4/qc57Y2mktvzCdv1Z/VRjVr8kT1oNU9w8efUkPemeqifcT2cmrpZhqvs5AMpwHlxA+W5t1LNulOhbn4770ffM9El/ApSN58UVA+UANaxrAVGPBSRdDcgwBabpKiBU8jWkts03qx+rhKQu5SR9JVNVZupNRNJvsW9IIem/3PdEAWYfALOUh+0Z05oUwJoFTta+AN3bxNUx63GwPSeuVgAo+qB6HCluGnCmbWcC3F4lqr3XPWHqvc8XyRsCNNkIQHnGdynv7r9ojvtK084HamZUQIobrTcvruT6O2wsYBwPECfWTlytuJ/S44ieEde0AtH17GdyBs6fAE1kCahwgICyJPrEK/jW3Br1rV8jId1VM7P58YTVSH0zkCK6AtK6E1eHA6Fa44mraywCYzijMInB1KX8ZGZZ4hevN053QEJqe2Y5KQv5HVFOdxFV5TKSJxVTpIfehN+3OaSFtHZADNkDP+NkOBNEyxE5mzT4u7HaF6BxAFplTFwdA6CxOoDGAKgGQGMANGXthGjZBVbTB41Zu0Xjlh4zFPsZjRoXC4Bbpe2Xf6rn/a+eBpyVeUP0Ssc1+veOG3TVce26iGvI8YZrg4ra7rpIzrtvjuIYsSXlejgzs7xWM+0mbAzs8QygknscoHwC0XOqnkLkBKA7oq6nPy9zPfnbhHv63du9/0LUnAGbBXtV3+57G+DNWhGmqXt8yVQ43xigeN5LbfZ+ose9c2HzAPQnOOZLPeZdMB0uB9RASzyreoZ8Bc8JvsIy9EF/UAGilh/MzIsrAkwhUAorhwXrABoGgDyrfEQX0fdU8hPwT+lKi6QuA04Z6wBUKffJlxmnOWCVU+TUMpL+BTi3xmkbz7aAaKqsKyPlsQqKnhOi0H5nIDzkhch5Cb+RwmAag94/BZzdjOJmU0OAxjI3iQKbK6llUZxab65GiluNFLcKKW4VUtwqpLjVSHHjADRh7SRXWzsXxq1dFiQsXSfJdPrAQurc6Mczq+nM/Crblc9/bx9cmLL/cW3aPmRt2jF07WbHdYUJx3VvBj2DjzFc96kKuretaL//b4ii7yddo79TXA8nE67HACunuONhE5HaTkIUnfgDAC2PuZ9cJLqmjq5wPtOBj4+7Xhiy1fNKQdwzY13cO2tt3Pvq2mrP69+p3tdeLaZpezxvDtvf+k3c88HitGfu+rh3Dvznro155q+r9i0qTPk+49fEDjiCLKWl7qB7de+Ib8OjEX/R+0qgdJ0aCJZF/aXbVERJDdFRhSmIkApSWAVQcoqLfqgeCchJOT9epAZSBZGAujySL78mBGKTwgF16AZ/pLVxipyoABAicg7jEUaC8VMQIVJ55oUQ+qZvV5AysoTE6zaScH6QIt2LKJbVmPGDJp3IDhivriIq48i5BYYoOlclynpenaaoIUCragAt1Ch/gEatb6ukNlMqLW1hx02utBwP6zC52nLyFIVOelykU69K0am9ItTl+KbMMMgD/7fSoF8n867omci7olsi7+qMRfOu7qk6ruuo0y1ZPe8V6a42mn1EL8k56gbV/ejkmHvslJh7PJbjJyfcT0yRXZNGRZz/GCg5n2qPP3ctRJX04lHVnle6K56Z3XaZ6pnVUwm8dvLe0jVORePeD7tEPB/0UDwfw39+xlTPRz1j7k9z3gCLqbiN4FnfTfCWDgh5N90XDZRPVQPRyXJAmCwFpFpTWqhTAOiEcL70V6Vl/JxofrJn0BftpLXWmvSzio2XbgGkZwDGcYim64Kk7IzRZl2D8SyAiKqbwxSrECldiIj7mHHQoa0wUas00UJ+2ZojJ6Lo+yLRiUZxs6shQI3noKsRCTMdflyfrQFrxn/4gYsH19fY7Izt7VfKDlfxAIG922xeNmkWhlyIr4F//5N/6h5p7vuwoECJSp7omgc48EvfKPsPPA/ptpMRDzhAejuokmgN4HwP0bRRP9mXK+0H0Ca/zWLKFGsDbWhdQlL/IGnXlJM4upQiz5aSPBOA3gCQD31Adwmg9AKgJxibP5tMQE39XGIggxR08TSjSNcPaAz5ESMTUFOmDmGZgJoydQjrlw5oGVE+PqP5JWPq8NQvHVB8vltjRDkZNWPK1M+uXYBuBaBxABoHoCkAuhOAahb/hsMd0DTR81VES/lxlrHLlKnDR4gup6WIBB2AbgWgmwFo3OLZvs3iD8coMEdq5O+DHqiWErn5uaqxecDi1JZn2OfoCUC34UuoUQ/GVxPlSUTtZaJf49g9fmy4KeLPdaAzX+xLXD9PXo7lQXv2aaqZxDMBJoimJMnyrxjlTYU9ESfPTUny9JTI2eFAfnu0seJhjoh0EwHV0cauAxbqvBifbRhPpgY451USpfhFBKN4r0J5X/i9gr9HEeAsxXFzkWH8wShukhhM1DEc19JsPxOPL6Br8Pcbh+vN+icKTR3iYgD525cjh7HrZxfDuZWoMISolauZIgDZdai3BKCdBbsQ69uw752GojQad3tkEt9iGYLfCzjmBWy/A2ivNlxqVUhINfZSD0ewufUiJafWgHMF6nvZ2LWbeJgjjtvr61nYb9/X/wXllleIXJuJZgDStQrRbmOWUb7XY/lvbHwGM+Ka2r8Az2NoYBoizasAYgYAGYPG1p3nYgIkd8J+Z7hmGhei3JVo8DeifI/0G3X0MqA8rboGtvkMCbanAr4Elvcgqu4xIATnvxD1bgdME3mbGy+uwccN2di24Xz9cfwkXCOyDZqO67oF1oq/4LB9Pep/BmX/xr6pWA7iY3myN1zTEpSvxvJ29uPUWyRqg/pvwPZLRn2Tca39+Fw4/kzYg9j3MspewfJh+NfOhIjrPAq+f0LZc1yOz7kJ/ku5zsz0M0QXYP9TON+/sBzOKTsfh3rawe6B78uwGfi7HxkvWJs6MKGxPILGshUNahka3hw0oiAa+3eAZSj2z8e+VfDJvLLE45TR6IpQ/iZgrX1HE/uOh/8E+PK0MF8yBPAZzzNSoI7rcDz3KSvhtwMN/GuU3Vg3fYfPKbAS7N+AOi4FXLVv43CkQt03oTyK4wtQz1z4lKPONPafh/UTcM4klhtw/MdYrkeZCt9bcB0u+H+K9QTsC9gM+P4Gfq/Bj30WwT6HbUH9szliYvkyrpFnbfwSPp/weeG/DNaevwywj38XNobyJXwszhWDfcGfGWWXwb8Cy69Q9gH8RKy/y31yrF+Jeitx/vVY/wjHX2h8RFOmGhai19gtABKN7zdoNBxxBnDDQkN7C43rLpQnsJ35VW6sD+VtRJ8/Zg6GdhK1RsN7A/t3vaq3A/XcVYH+NfavYcP2QDTYKAOLdJp/KiMNu3dXhGThXH/AvmU4rwpbDP+buZy/FFBHMY5dCCA7ckSG76Ow7YhWA3G+k3HNaWz/maMulv1wvWEGxIigi3H+N1F2DHxbYfsW+OyAzwiOevyL6dj/Kc49h/usONfbiIrrEPm6GmD9FX8fhnAIjr0Ufklc33j4tdlIdCyu6zXsW1qC68Bx78G+QpbQCT6tcd7RKNewfRF8BuOzC6jjcnQnWuKLZ4+X0E2Z2kNoOOPQANehcdbOnICGNR8NqwyN/HQ0tK/QoN9BI/Ogsb7J22hktY9/0HAvgm81TMdxOi/hV8qNFMddhvJK7P8Sx6SxP+PDkKJM4H6vUU1GnA7C/1bYUlxXFfzvA0T9GCgcN8xw45tr9+DatqDOCwDeySiLwyczux2Obcnng81nSODzBfz5N1Ezgt8klO3k6+Nt7rfiPB/hfB8zoDjmLUC2nH9Fnctx/Kn44uGofCeOy/wWLOqofeMJf7vMoySB6GwcuwLlxbi2WfCZhfWFqIsj/VAAfRV8y3G9TfqBKVNHqAxA1yIy7XqH0oKGtQQNshiNLB92FxpXBRrqSDS2jWh89xt+GaH8POxPMnRowPw7NTq2GcApqKcF6p/Pczvh+NpynogN6yVo1HudToUfs+Cc/IbRKqxfgWvZjLruM4r5C+Su+oCi/Eouw3FHYT/3O/nu8VFY8nrtTSL4TcD2ToCf6VdyWov6P6gD6JtYX8kRl8vh2xnXW4BruQP1jkWdSSxP5TIWPut0+C8D0D2wvgT18wRzj+G4MbjGv2N5L9Jf/uK5Bn/nIMrONw41ZWr/QuOaiIbDfcfzAVl7bljYx88ueV6fTFTDeiHKtqIBrkND2+03QdYSedF4J/MxPCMFw8mwonHGEDmGoEG/hXQu8wtwOE8GTiwFHHMt9y+5Dk5jAcYNiL6/wfFtcQ3cXwvjXF/gi6Mr1jkyrUOdfXHcCVh/Ff4M+UCc4xTs3wzfwVwXzvMr7FuJfZ/jM/l5Cd8C1Nsd/seh7EYc/z3sGVgH7OsNnzKcYz4Dinre5c8Jv8ys7Sjris9Viv138I0q1M8Tl7+J8o6wnjhuJWwVp7tYPsvlqPdm+JwI64b1KzilxTVcj7+LhGsawPWaMtUooUHdgwYowBYAno+xzTdr/s0NzHDhqPM4+pp8w+eFvT2bRcMOoCHzXdXFaNwR1FHJMKIx8k2SGAOLfQk04DLU9QZ8d/sBJwYNPmtwDV/D5mG9AL7fwDfT10X5H3FMMVLNpaj/Xez/EtdSBrDPg297lJXgXJlnpkhdOWrOwfZ7fK1Y3oFjKhDFF+P6pqFf2RH+0/BlUIpzzcG+D3GNm1D3DE53cZ0vYX3erufCOMdp2F6C67mRH8vg3BO5PuzjG2jvYv9ybH+0BtkCAO6C6+LrX4+/5Qewhdh+D4AyvFfgmFVmimsqK3Fqi8ZzHhrmQBg/7jiX70gaxZnnjmiIY2ApjiDG7r0KMByLBtkHAAyFPYntV9AgZ2J9LI6/FI27O/btMXwRkLTEec9BQ/8frA9BHb/nCGUUsyyo43SU882W/ljvCr+z+Di+2YI0uA+DyY6csuKc3dift420tTeguQjgnmXsCxjn+x2Xoc7TAU8nBhr7O2F/9103sLjvDZB7AuhjeRt/Lzfq7svXwteA405BeTdcR+a5J0de1NGP/5Z8TlxLd5RxvW04Q8DfIZ/9TJk6YKHhX4hG/T7AErB8kR9bGEX71a4H8my7UllTpkzlUIh2HK34ud+9u/pkpkyZOkSEyJcZCG5smjJlypQpU6ZMmTJlypQpU6ZMmTJlypQpU6ZMmTJlypQpU6ZMmTJlypQpU6ZMmTJlypQpU6ZM/VJF9P/4VLlQmJjGNAAAAABJRU5ErkJggg==&quot; style=&quot;font-size: 10px;&quot;&gt;" style="text;html=1;strokeColor=none;fillColor=none;align=center;verticalAlign=middle;whiteSpace=wrap;rounded=0;fontSize=10;" parent="XcsW5exaLv0oU2u8EN1J-1" vertex="1">
          <mxGeometry x="111.22058823529406" y="41" width="10.903979238754324" height="10" as="geometry" />
        </mxCell>
        <mxCell id="YG_A0a-0bIN4n77Yev4p-1" value="Cliente ingresa TDD en ATM&lt;br&gt;&lt;p style=&quot;margin-left: 20.6pt; text-indent: -0.25in; font-size: 10px;&quot; class=&quot;TableText&quot;&gt;&lt;i&gt;&lt;span style=&quot;&quot; lang=&quot;ES&quot;&gt;&lt;font style=&quot;font-size: 10px;&quot;&gt;&lt;/font&gt;&lt;/span&gt;&lt;/i&gt;&lt;/p&gt;" style="text;html=1;align=left;verticalAlign=top;whiteSpace=wrap;rounded=0;fontSize=9;" parent="1" vertex="1">
          <mxGeometry x="-1061" y="-504" width="91" height="31" as="geometry" />
        </mxCell>
        <mxCell id="YG_A0a-0bIN4n77Yev4p-2" value="" style="html=1;align=left;spacingLeft=2;endArrow=block;rounded=0;edgeStyle=orthogonalEdgeStyle;curved=0;rounded=0;" parent="1" edge="1">
          <mxGeometry x="-0.2922" y="20" relative="1" as="geometry">
            <mxPoint x="-1097" y="-501.99999999999966" as="sourcePoint" />
            <Array as="points">
              <mxPoint x="-1067" y="-501.9399999999997" />
              <mxPoint x="-1067" y="-471.9399999999997" />
            </Array>
            <mxPoint x="-1097" y="-471.9399999999997" as="targetPoint" />
            <mxPoint as="offset" />
          </mxGeometry>
        </mxCell>
        <mxCell id="YG_A0a-0bIN4n77Yev4p-4" value="Selecciona la opción de Pago de Servicios&lt;br&gt;&lt;p style=&quot;margin-left: 20.6pt; text-indent: -0.25in; font-size: 10px;&quot; class=&quot;TableText&quot;&gt;&lt;i&gt;&lt;span style=&quot;&quot; lang=&quot;ES&quot;&gt;&lt;font style=&quot;font-size: 10px;&quot;&gt;&lt;/font&gt;&lt;/span&gt;&lt;/i&gt;&lt;/p&gt;" style="text;html=1;align=left;verticalAlign=top;whiteSpace=wrap;rounded=0;fontSize=9;" parent="1" vertex="1">
          <mxGeometry x="-1062" y="-455" width="90" height="37" as="geometry" />
        </mxCell>
        <mxCell id="YG_A0a-0bIN4n77Yev4p-5" value="" style="html=1;align=left;spacingLeft=2;endArrow=block;rounded=0;edgeStyle=orthogonalEdgeStyle;curved=0;rounded=0;" parent="1" edge="1">
          <mxGeometry x="-0.2922" y="20" relative="1" as="geometry">
            <mxPoint x="-1097" y="-451.99999999999966" as="sourcePoint" />
            <Array as="points">
              <mxPoint x="-1067" y="-451.9399999999997" />
              <mxPoint x="-1067" y="-421.9399999999997" />
            </Array>
            <mxPoint x="-1097" y="-421.9399999999997" as="targetPoint" />
            <mxPoint as="offset" />
          </mxGeometry>
        </mxCell>
        <mxCell id="YG_A0a-0bIN4n77Yev4p-6" value="&lt;div&gt;&amp;lt;&amp;lt;Canal&amp;gt;&amp;gt;&lt;/div&gt;&lt;div&gt;SuperNet&lt;/div&gt;" style="shape=umlLifeline;perimeter=lifelinePerimeter;whiteSpace=wrap;html=1;container=1;dropTarget=0;collapsible=0;recursiveResize=0;outlineConnect=0;portConstraint=eastwest;newEdgeStyle={&quot;edgeStyle&quot;:&quot;elbowEdgeStyle&quot;,&quot;elbow&quot;:&quot;vertical&quot;,&quot;curved&quot;:0,&quot;rounded&quot;:0};align=center;movable=1;resizable=1;rotatable=1;deletable=1;editable=1;locked=0;connectable=1;fontStyle=1" parent="1" vertex="1">
          <mxGeometry x="-762" y="-624" width="142" height="3094" as="geometry" />
        </mxCell>
        <mxCell id="YG_A0a-0bIN4n77Yev4p-7" value="" style="html=1;points=[[0,0,0,0,5],[0,1,0,0,-5],[1,0,0,0,5],[1,1,0,0,-5]];perimeter=orthogonalPerimeter;outlineConnect=0;targetShapes=umlLifeline;portConstraint=eastwest;newEdgeStyle={&quot;curved&quot;:0,&quot;rounded&quot;:0};" parent="1" vertex="1">
          <mxGeometry x="-696" y="-360" width="10" height="470" as="geometry" />
        </mxCell>
        <mxCell id="YG_A0a-0bIN4n77Yev4p-8" value="Selecciona &quot;Servicios por Región&quot;&lt;p style=&quot;margin-left: 20.6pt; text-indent: -0.25in; font-size: 10px;&quot; class=&quot;TableText&quot;&gt;&lt;i&gt;&lt;span style=&quot;&quot; lang=&quot;ES&quot;&gt;&lt;font style=&quot;font-size: 10px;&quot;&gt;&lt;/font&gt;&lt;/span&gt;&lt;/i&gt;&lt;/p&gt;" style="text;html=1;align=left;verticalAlign=top;whiteSpace=wrap;rounded=0;fontSize=9;" parent="1" vertex="1">
          <mxGeometry x="-1091" y="-377" width="146" height="19" as="geometry" />
        </mxCell>
        <mxCell id="YG_A0a-0bIN4n77Yev4p-9" value="" style="html=1;verticalAlign=bottom;labelBackgroundColor=none;endArrow=block;endFill=1;endSize=6;align=left;rounded=0;" parent="1" edge="1">
          <mxGeometry x="-1" relative="1" as="geometry">
            <mxPoint x="-1097" y="-356.12" as="sourcePoint" />
            <mxPoint x="-901" y="-356" as="targetPoint" />
            <mxPoint as="offset" />
          </mxGeometry>
        </mxCell>
        <mxCell id="YG_A0a-0bIN4n77Yev4p-10" value="Obtiene listado de servicios por región [BD: Oracle]&lt;p style=&quot;margin-left: 20.6pt; text-indent: -0.25in; font-size: 10px;&quot; class=&quot;TableText&quot;&gt;&lt;i&gt;&lt;span style=&quot;&quot; lang=&quot;ES&quot;&gt;&lt;font style=&quot;font-size: 10px;&quot;&gt;&lt;/font&gt;&lt;/span&gt;&lt;/i&gt;&lt;/p&gt;" style="text;html=1;align=left;verticalAlign=top;whiteSpace=wrap;rounded=0;fontSize=9;" parent="1" vertex="1">
          <mxGeometry x="-884" y="-378" width="124" height="32" as="geometry" />
        </mxCell>
        <mxCell id="YG_A0a-0bIN4n77Yev4p-11" value="" style="html=1;verticalAlign=bottom;labelBackgroundColor=none;endArrow=block;endFill=1;endSize=6;align=left;rounded=0;" parent="1" target="YG_A0a-0bIN4n77Yev4p-7" edge="1">
          <mxGeometry x="-1" relative="1" as="geometry">
            <mxPoint x="-890" y="-346.12" as="sourcePoint" />
            <mxPoint x="-700" y="-346" as="targetPoint" />
            <mxPoint as="offset" />
          </mxGeometry>
        </mxCell>
        <mxCell id="YG_A0a-0bIN4n77Yev4p-13" value="" style="html=1;verticalAlign=bottom;labelBackgroundColor=none;endArrow=none;endFill=0;endSize=6;align=left;rounded=0;startArrow=block;startFill=1;dashed=1;" parent="1" edge="1">
          <mxGeometry x="-1" relative="1" as="geometry">
            <mxPoint x="-890" y="-307" as="sourcePoint" />
            <mxPoint x="-696" y="-307" as="targetPoint" />
            <mxPoint as="offset" />
          </mxGeometry>
        </mxCell>
        <mxCell id="YG_A0a-0bIN4n77Yev4p-14" value="" style="html=1;verticalAlign=bottom;labelBackgroundColor=none;endArrow=none;endFill=0;endSize=6;align=left;rounded=0;startArrow=block;startFill=1;dashed=1;" parent="1" edge="1">
          <mxGeometry x="-1" relative="1" as="geometry">
            <mxPoint x="-1097" y="-293" as="sourcePoint" />
            <mxPoint x="-901" y="-293" as="targetPoint" />
            <mxPoint as="offset" />
          </mxGeometry>
        </mxCell>
        <mxCell id="YG_A0a-0bIN4n77Yev4p-15" value="Regresa listado de servicios por región [BD: Oracle]&lt;p style=&quot;margin-left: 20.6pt; text-indent: -0.25in; font-size: 10px;&quot; class=&quot;TableText&quot;&gt;&lt;i&gt;&lt;span style=&quot;&quot; lang=&quot;ES&quot;&gt;&lt;font style=&quot;font-size: 10px;&quot;&gt;&lt;/font&gt;&lt;/span&gt;&lt;/i&gt;&lt;/p&gt;" style="text;html=1;align=left;verticalAlign=top;whiteSpace=wrap;rounded=0;fontSize=9;" parent="1" vertex="1">
          <mxGeometry x="-815" y="-339" width="124" height="32" as="geometry" />
        </mxCell>
        <mxCell id="YG_A0a-0bIN4n77Yev4p-16" value="Regresa listado de servicios por región [BD: Oracle]&lt;p style=&quot;margin-left: 20.6pt; text-indent: -0.25in; font-size: 10px;&quot; class=&quot;TableText&quot;&gt;&lt;i&gt;&lt;span style=&quot;&quot; lang=&quot;ES&quot;&gt;&lt;font style=&quot;font-size: 10px;&quot;&gt;&lt;/font&gt;&lt;/span&gt;&lt;/i&gt;&lt;/p&gt;" style="text;html=1;align=left;verticalAlign=top;whiteSpace=wrap;rounded=0;fontSize=9;" parent="1" vertex="1">
          <mxGeometry x="-1022" y="-325" width="124" height="32" as="geometry" />
        </mxCell>
        <mxCell id="YG_A0a-0bIN4n77Yev4p-17" value="Cliente selecciona un serivicio del listado" style="text;html=1;align=left;verticalAlign=top;whiteSpace=wrap;rounded=0;fontSize=9;" parent="1" vertex="1">
          <mxGeometry x="-1062" y="-274" width="90" height="37" as="geometry" />
        </mxCell>
        <mxCell id="YG_A0a-0bIN4n77Yev4p-18" value="" style="html=1;align=left;spacingLeft=2;endArrow=block;rounded=0;edgeStyle=orthogonalEdgeStyle;curved=0;rounded=0;" parent="1" edge="1">
          <mxGeometry x="-0.2922" y="20" relative="1" as="geometry">
            <mxPoint x="-1097" y="-271.99999999999966" as="sourcePoint" />
            <Array as="points">
              <mxPoint x="-1067" y="-271.9399999999997" />
              <mxPoint x="-1067" y="-241.9399999999997" />
            </Array>
            <mxPoint x="-1097" y="-241.9399999999997" as="targetPoint" />
            <mxPoint as="offset" />
          </mxGeometry>
        </mxCell>
        <mxCell id="YG_A0a-0bIN4n77Yev4p-19" value="alt" style="shape=umlFrame;whiteSpace=wrap;html=1;pointerEvents=0;width=58;height=27;" parent="1" vertex="1">
          <mxGeometry x="-1140" y="-403" width="500" height="533" as="geometry" />
        </mxCell>
        <mxCell id="YG_A0a-0bIN4n77Yev4p-20" value="Selecciona &quot;Mis Servicios&quot;&lt;p style=&quot;margin-left: 20.6pt; text-indent: -0.25in; font-size: 10px;&quot; class=&quot;TableText&quot;&gt;&lt;i&gt;&lt;span style=&quot;&quot; lang=&quot;ES&quot;&gt;&lt;font style=&quot;font-size: 10px;&quot;&gt;&lt;/font&gt;&lt;/span&gt;&lt;/i&gt;&lt;/p&gt;" style="text;html=1;align=left;verticalAlign=top;whiteSpace=wrap;rounded=0;fontSize=9;" parent="1" vertex="1">
          <mxGeometry x="-1091" y="-197" width="146" height="19" as="geometry" />
        </mxCell>
        <mxCell id="YG_A0a-0bIN4n77Yev4p-21" value="" style="html=1;verticalAlign=bottom;labelBackgroundColor=none;endArrow=block;endFill=1;endSize=6;align=left;rounded=0;" parent="1" edge="1">
          <mxGeometry x="-1" relative="1" as="geometry">
            <mxPoint x="-1097" y="-176.12" as="sourcePoint" />
            <mxPoint x="-901" y="-176" as="targetPoint" />
            <mxPoint as="offset" />
          </mxGeometry>
        </mxCell>
        <mxCell id="YG_A0a-0bIN4n77Yev4p-22" value="Obtiene listado de servicios pre-registrados&lt;p style=&quot;margin-left: 20.6pt; text-indent: -0.25in; font-size: 10px;&quot; class=&quot;TableText&quot;&gt;&lt;i&gt;&lt;span style=&quot;&quot; lang=&quot;ES&quot;&gt;&lt;font style=&quot;font-size: 10px;&quot;&gt;&lt;/font&gt;&lt;/span&gt;&lt;/i&gt;&lt;/p&gt;" style="text;html=1;align=left;verticalAlign=top;whiteSpace=wrap;rounded=0;fontSize=9;" parent="1" vertex="1">
          <mxGeometry x="-884" y="-198" width="104" height="32" as="geometry" />
        </mxCell>
        <mxCell id="YG_A0a-0bIN4n77Yev4p-23" value="" style="html=1;verticalAlign=bottom;labelBackgroundColor=none;endArrow=block;endFill=1;endSize=6;align=left;rounded=0;" parent="1" edge="1">
          <mxGeometry x="-1" relative="1" as="geometry">
            <mxPoint x="-890" y="-166.12" as="sourcePoint" />
            <mxPoint x="-696" y="-166" as="targetPoint" />
            <mxPoint as="offset" />
          </mxGeometry>
        </mxCell>
        <mxCell id="YG_A0a-0bIN4n77Yev4p-24" value="" style="html=1;verticalAlign=bottom;labelBackgroundColor=none;endArrow=none;endFill=0;endSize=6;align=left;rounded=0;startArrow=block;startFill=1;dashed=1;" parent="1" edge="1">
          <mxGeometry x="-1" relative="1" as="geometry">
            <mxPoint x="-890" y="-130" as="sourcePoint" />
            <mxPoint x="-696" y="-130" as="targetPoint" />
            <mxPoint as="offset" />
          </mxGeometry>
        </mxCell>
        <mxCell id="YG_A0a-0bIN4n77Yev4p-25" value="" style="html=1;verticalAlign=bottom;labelBackgroundColor=none;endArrow=none;endFill=0;endSize=6;align=left;rounded=0;startArrow=block;startFill=1;dashed=1;" parent="1" edge="1">
          <mxGeometry x="-1" relative="1" as="geometry">
            <mxPoint x="-1097" y="-115" as="sourcePoint" />
            <mxPoint x="-901" y="-115" as="targetPoint" />
            <mxPoint as="offset" />
          </mxGeometry>
        </mxCell>
        <mxCell id="YG_A0a-0bIN4n77Yev4p-26" value="Regresa listado de servicios pre-registrados&lt;p style=&quot;margin-left: 20.6pt; text-indent: -0.25in; font-size: 10px;&quot; class=&quot;TableText&quot;&gt;&lt;i&gt;&lt;span style=&quot;&quot; lang=&quot;ES&quot;&gt;&lt;font style=&quot;font-size: 10px;&quot;&gt;&lt;/font&gt;&lt;/span&gt;&lt;/i&gt;&lt;/p&gt;" style="text;html=1;align=left;verticalAlign=top;whiteSpace=wrap;rounded=0;fontSize=9;" parent="1" vertex="1">
          <mxGeometry x="-801" y="-161" width="111" height="32" as="geometry" />
        </mxCell>
        <mxCell id="YG_A0a-0bIN4n77Yev4p-27" value="Obtiene listado de servicios pre-registrados&lt;p style=&quot;margin-left: 20.6pt; text-indent: -0.25in; font-size: 10px;&quot; class=&quot;TableText&quot;&gt;&lt;i&gt;&lt;span style=&quot;&quot; lang=&quot;ES&quot;&gt;&lt;font style=&quot;font-size: 10px;&quot;&gt;&lt;/font&gt;&lt;/span&gt;&lt;/i&gt;&lt;/p&gt;" style="text;html=1;align=left;verticalAlign=top;whiteSpace=wrap;rounded=0;fontSize=9;" parent="1" vertex="1">
          <mxGeometry x="-1007" y="-147" width="112" height="32" as="geometry" />
        </mxCell>
        <mxCell id="YG_A0a-0bIN4n77Yev4p-28" value="Cliente selecciona un serivicio del listado" style="text;html=1;align=left;verticalAlign=top;whiteSpace=wrap;rounded=0;fontSize=9;" parent="1" vertex="1">
          <mxGeometry x="-1062" y="-98" width="90" height="37" as="geometry" />
        </mxCell>
        <mxCell id="YG_A0a-0bIN4n77Yev4p-29" value="" style="html=1;align=left;spacingLeft=2;endArrow=block;rounded=0;edgeStyle=orthogonalEdgeStyle;curved=0;rounded=0;" parent="1" edge="1">
          <mxGeometry x="-0.2922" y="20" relative="1" as="geometry">
            <mxPoint x="-1097" y="-95.99999999999966" as="sourcePoint" />
            <Array as="points">
              <mxPoint x="-1067" y="-95.93999999999971" />
              <mxPoint x="-1067" y="-65.93999999999971" />
            </Array>
            <mxPoint x="-1097" y="-65.93999999999971" as="targetPoint" />
            <mxPoint as="offset" />
          </mxGeometry>
        </mxCell>
        <mxCell id="YG_A0a-0bIN4n77Yev4p-30" value="Selecciona &quot;Otro servicio&quot;&lt;p style=&quot;margin-left: 20.6pt; text-indent: -0.25in; font-size: 10px;&quot; class=&quot;TableText&quot;&gt;&lt;i&gt;&lt;span style=&quot;&quot; lang=&quot;ES&quot;&gt;&lt;font style=&quot;font-size: 10px;&quot;&gt;&lt;/font&gt;&lt;/span&gt;&lt;/i&gt;&lt;/p&gt;" style="text;html=1;align=left;verticalAlign=top;whiteSpace=wrap;rounded=0;fontSize=9;" parent="1" vertex="1">
          <mxGeometry x="-1061" y="-18" width="111" height="27" as="geometry" />
        </mxCell>
        <mxCell id="YG_A0a-0bIN4n77Yev4p-32" value="Obtiene/valida el servicio [BD: Oracle]&lt;p style=&quot;margin-left: 20.6pt; text-indent: -0.25in; font-size: 10px;&quot; class=&quot;TableText&quot;&gt;&lt;i&gt;&lt;span style=&quot;&quot; lang=&quot;ES&quot;&gt;&lt;font style=&quot;font-size: 10px;&quot;&gt;&lt;/font&gt;&lt;/span&gt;&lt;/i&gt;&lt;/p&gt;" style="text;html=1;align=left;verticalAlign=top;whiteSpace=wrap;rounded=0;fontSize=9;" parent="1" vertex="1">
          <mxGeometry x="-884" y="37" width="154" height="18" as="geometry" />
        </mxCell>
        <mxCell id="YG_A0a-0bIN4n77Yev4p-33" value="" style="html=1;verticalAlign=bottom;labelBackgroundColor=none;endArrow=block;endFill=1;endSize=6;align=left;rounded=0;" parent="1" edge="1">
          <mxGeometry x="-1" relative="1" as="geometry">
            <mxPoint x="-890" y="57.879999999999995" as="sourcePoint" />
            <mxPoint x="-696" y="58" as="targetPoint" />
            <mxPoint as="offset" />
          </mxGeometry>
        </mxCell>
        <mxCell id="YG_A0a-0bIN4n77Yev4p-34" value="" style="html=1;verticalAlign=bottom;labelBackgroundColor=none;endArrow=none;endFill=0;endSize=6;align=left;rounded=0;startArrow=block;startFill=1;dashed=1;" parent="1" edge="1">
          <mxGeometry x="-1" relative="1" as="geometry">
            <mxPoint x="-890" y="93" as="sourcePoint" />
            <mxPoint x="-696" y="93" as="targetPoint" />
            <mxPoint as="offset" />
          </mxGeometry>
        </mxCell>
        <mxCell id="YG_A0a-0bIN4n77Yev4p-35" value="" style="html=1;verticalAlign=bottom;labelBackgroundColor=none;endArrow=none;endFill=0;endSize=6;align=left;rounded=0;startArrow=block;startFill=1;dashed=1;" parent="1" edge="1">
          <mxGeometry x="-1" relative="1" as="geometry">
            <mxPoint x="-1096" y="106" as="sourcePoint" />
            <mxPoint x="-900" y="106" as="targetPoint" />
            <mxPoint as="offset" />
          </mxGeometry>
        </mxCell>
        <mxCell id="YG_A0a-0bIN4n77Yev4p-36" value="Regresa servicio por convenio [BD: Oracle]&lt;p style=&quot;margin-left: 20.6pt; text-indent: -0.25in; font-size: 10px;&quot; class=&quot;TableText&quot;&gt;&lt;i&gt;&lt;span style=&quot;&quot; lang=&quot;ES&quot;&gt;&lt;font style=&quot;font-size: 10px;&quot;&gt;&lt;/font&gt;&lt;/span&gt;&lt;/i&gt;&lt;/p&gt;" style="text;html=1;align=left;verticalAlign=top;whiteSpace=wrap;rounded=0;fontSize=9;" parent="1" vertex="1">
          <mxGeometry x="-795" y="62" width="102" height="32" as="geometry" />
        </mxCell>
        <mxCell id="YG_A0a-0bIN4n77Yev4p-37" value="Regresa servicio por convenio OK&lt;p style=&quot;margin-left: 20.6pt; text-indent: -0.25in; font-size: 10px;&quot; class=&quot;TableText&quot;&gt;&lt;i&gt;&lt;span style=&quot;&quot; lang=&quot;ES&quot;&gt;&lt;font style=&quot;font-size: 10px;&quot;&gt;&lt;/font&gt;&lt;/span&gt;&lt;/i&gt;&lt;/p&gt;" style="text;html=1;align=left;verticalAlign=top;whiteSpace=wrap;rounded=0;fontSize=9;" parent="1" vertex="1">
          <mxGeometry x="-981" y="74" width="79" height="32" as="geometry" />
        </mxCell>
        <mxCell id="YG_A0a-0bIN4n77Yev4p-38" value="Cliente selecciona monto e ingresa la opción Pagar" style="text;html=1;align=left;verticalAlign=top;whiteSpace=wrap;rounded=0;fontSize=9;" parent="1" vertex="1">
          <mxGeometry x="-1093" y="154" width="122" height="33" as="geometry" />
        </mxCell>
        <mxCell id="YG_A0a-0bIN4n77Yev4p-41" value="" style="endArrow=none;dashed=1;html=1;rounded=0;strokeColor=#0000CC;" parent="1" edge="1">
          <mxGeometry width="50" height="50" relative="1" as="geometry">
            <mxPoint x="-1096" y="-212" as="sourcePoint" />
            <mxPoint x="-696" y="-212" as="targetPoint" />
          </mxGeometry>
        </mxCell>
        <mxCell id="YG_A0a-0bIN4n77Yev4p-42" value="" style="endArrow=none;dashed=1;html=1;rounded=0;strokeColor=#0000CC;" parent="1" edge="1">
          <mxGeometry width="50" height="50" relative="1" as="geometry">
            <mxPoint x="-1096" y="-41" as="sourcePoint" />
            <mxPoint x="-696" y="-41" as="targetPoint" />
          </mxGeometry>
        </mxCell>
        <mxCell id="YG_A0a-0bIN4n77Yev4p-44" value="" style="html=1;align=left;spacingLeft=2;endArrow=block;rounded=0;edgeStyle=orthogonalEdgeStyle;curved=0;rounded=0;" parent="1" edge="1">
          <mxGeometry x="-0.2922" y="20" relative="1" as="geometry">
            <mxPoint x="-1097" y="-18.99999999999966" as="sourcePoint" />
            <Array as="points">
              <mxPoint x="-1067" y="-18.939999999999714" />
              <mxPoint x="-1067" y="11.060000000000286" />
            </Array>
            <mxPoint x="-1097" y="11.060000000000286" as="targetPoint" />
            <mxPoint as="offset" />
          </mxGeometry>
        </mxCell>
        <mxCell id="YG_A0a-0bIN4n77Yev4p-45" value="Cliente captura el número de convenio y referencia&lt;br&gt;&lt;p style=&quot;margin-left: 20.6pt; text-indent: -0.25in; font-size: 10px;&quot; class=&quot;TableText&quot;&gt;&lt;i&gt;&lt;span style=&quot;&quot; lang=&quot;ES&quot;&gt;&lt;font style=&quot;font-size: 10px;&quot;&gt;&lt;/font&gt;&lt;/span&gt;&lt;/i&gt;&lt;/p&gt;" style="text;html=1;align=left;verticalAlign=top;whiteSpace=wrap;rounded=0;fontSize=9;" parent="1" vertex="1">
          <mxGeometry x="-1091" y="19" width="161" height="25" as="geometry" />
        </mxCell>
        <mxCell id="YG_A0a-0bIN4n77Yev4p-48" value="" style="html=1;verticalAlign=bottom;labelBackgroundColor=none;endArrow=block;endFill=1;endSize=6;align=left;rounded=0;" parent="1" edge="1">
          <mxGeometry x="-1" relative="1" as="geometry">
            <mxPoint x="-1097" y="47.879999999999995" as="sourcePoint" />
            <mxPoint x="-900" y="48" as="targetPoint" />
            <mxPoint as="offset" />
          </mxGeometry>
        </mxCell>
        <mxCell id="YG_A0a-0bIN4n77Yev4p-49" value="" style="html=1;verticalAlign=bottom;labelBackgroundColor=none;endArrow=block;endFill=1;endSize=6;align=left;rounded=0;" parent="1" edge="1">
          <mxGeometry x="-1" relative="1" as="geometry">
            <mxPoint x="-1097" y="185.88" as="sourcePoint" />
            <mxPoint x="-900.5" y="185.8800000000001" as="targetPoint" />
            <mxPoint as="offset" />
          </mxGeometry>
        </mxCell>
        <mxCell id="YG_A0a-0bIN4n77Yev4p-50" value="Consulta limites de la operación" style="text;html=1;align=left;verticalAlign=top;whiteSpace=wrap;rounded=0;fontSize=9;" parent="1" vertex="1">
          <mxGeometry x="-886" y="255" width="136" height="25" as="geometry" />
        </mxCell>
        <mxCell id="YG_A0a-0bIN4n77Yev4p-51" value="&lt;div&gt;&amp;lt;&amp;lt;Altair 390&amp;gt;&amp;gt;&lt;/div&gt;PAMPA" style="shape=umlLifeline;perimeter=lifelinePerimeter;whiteSpace=wrap;html=1;container=0;dropTarget=0;collapsible=0;recursiveResize=0;outlineConnect=0;portConstraint=eastwest;newEdgeStyle={&quot;edgeStyle&quot;:&quot;elbowEdgeStyle&quot;,&quot;elbow&quot;:&quot;vertical&quot;,&quot;curved&quot;:0,&quot;rounded&quot;:0};align=center;movable=1;resizable=1;rotatable=1;deletable=1;editable=1;locked=0;connectable=1;fontStyle=1" parent="1" vertex="1">
          <mxGeometry x="370.5" y="-624.75" width="118" height="3094.75" as="geometry" />
        </mxCell>
        <mxCell id="YG_A0a-0bIN4n77Yev4p-52" value="alt" style="shape=umlFrame;whiteSpace=wrap;html=1;pointerEvents=0;width=70;height=20;" parent="1" vertex="1">
          <mxGeometry x="-950" y="210" width="1640" height="850" as="geometry" />
        </mxCell>
        <mxCell id="YG_A0a-0bIN4n77Yev4p-53" value="" style="html=1;verticalAlign=bottom;labelBackgroundColor=none;endArrow=block;endFill=1;endSize=6;align=left;rounded=0;" parent="1" edge="1">
          <mxGeometry x="-1" relative="1" as="geometry">
            <mxPoint x="-890" y="274.88" as="sourcePoint" />
            <mxPoint x="-505" y="274.8800000000001" as="targetPoint" />
            <mxPoint as="offset" />
          </mxGeometry>
        </mxCell>
        <mxCell id="YG_A0a-0bIN4n77Yev4p-54" value="" style="html=1;points=[[0,0,0,0,5],[0,1,0,0,-5],[1,0,0,0,5],[1,1,0,0,-5]];perimeter=orthogonalPerimeter;outlineConnect=0;targetShapes=umlLifeline;portConstraint=eastwest;newEdgeStyle={&quot;curved&quot;:0,&quot;rounded&quot;:0};" parent="1" vertex="1">
          <mxGeometry x="-505" y="260" width="10" height="380" as="geometry" />
        </mxCell>
        <mxCell id="YG_A0a-0bIN4n77Yev4p-55" value="&amp;lt;&amp;lt;Autorizador&amp;gt;&amp;gt;&lt;div&gt;Stratos Cloud&lt;/div&gt;" style="shape=umlLifeline;perimeter=lifelinePerimeter;whiteSpace=wrap;html=1;container=1;dropTarget=0;collapsible=0;recursiveResize=0;outlineConnect=0;portConstraint=eastwest;newEdgeStyle={&quot;edgeStyle&quot;:&quot;elbowEdgeStyle&quot;,&quot;elbow&quot;:&quot;vertical&quot;,&quot;curved&quot;:0,&quot;rounded&quot;:0};align=center;movable=1;resizable=1;rotatable=1;deletable=1;editable=1;locked=0;connectable=1;fontStyle=1" parent="1" vertex="1">
          <mxGeometry x="1081" y="-623.75" width="131" height="3093.75" as="geometry" />
        </mxCell>
        <mxCell id="YG_A0a-0bIN4n77Yev4p-57" value="&amp;lt;&amp;lt;Autorizador&amp;gt;&amp;gt;&lt;div&gt;Stratos On-Premise&lt;/div&gt;" style="shape=umlLifeline;perimeter=lifelinePerimeter;whiteSpace=wrap;html=1;container=1;dropTarget=0;collapsible=0;recursiveResize=0;outlineConnect=0;portConstraint=eastwest;newEdgeStyle={&quot;edgeStyle&quot;:&quot;elbowEdgeStyle&quot;,&quot;elbow&quot;:&quot;vertical&quot;,&quot;curved&quot;:0,&quot;rounded&quot;:0};align=center;movable=1;resizable=1;rotatable=1;deletable=1;editable=1;locked=0;connectable=1;fontStyle=1" parent="1" vertex="1">
          <mxGeometry x="901" y="-624" width="131" height="3094" as="geometry" />
        </mxCell>
        <mxCell id="YG_A0a-0bIN4n77Yev4p-59" value="Flujo Manual" style="text;html=1;align=left;verticalAlign=top;whiteSpace=wrap;rounded=0;fontSize=9;" parent="1" vertex="1">
          <mxGeometry x="-941" y="236" width="38" height="37" as="geometry" />
        </mxCell>
        <mxCell id="YG_A0a-0bIN4n77Yev4p-60" value="Flujo Pre-Cargado" style="text;html=1;align=left;verticalAlign=top;whiteSpace=wrap;rounded=0;fontSize=9;" parent="1" vertex="1">
          <mxGeometry x="-947" y="814" width="44" height="37" as="geometry" />
        </mxCell>
        <mxCell id="YG_A0a-0bIN4n77Yev4p-61" value="" style="html=1;points=[[0,0,0,0,5],[0,1,0,0,-5],[1,0,0,0,5],[1,1,0,0,-5]];perimeter=orthogonalPerimeter;outlineConnect=0;targetShapes=umlLifeline;portConstraint=eastwest;newEdgeStyle={&quot;curved&quot;:0,&quot;rounded&quot;:0};" parent="1" vertex="1">
          <mxGeometry x="-335" y="270" width="10" height="750" as="geometry" />
        </mxCell>
        <mxCell id="YG_A0a-0bIN4n77Yev4p-62" value="" style="html=1;points=[[0,0,0,0,5],[0,1,0,0,-5],[1,0,0,0,5],[1,1,0,0,-5]];perimeter=orthogonalPerimeter;outlineConnect=0;targetShapes=umlLifeline;portConstraint=eastwest;newEdgeStyle={&quot;curved&quot;:0,&quot;rounded&quot;:0};" parent="1" vertex="1">
          <mxGeometry x="-166" y="390" width="10" height="210" as="geometry" />
        </mxCell>
        <mxCell id="YG_A0a-0bIN4n77Yev4p-63" value="" style="html=1;points=[[0,0,0,0,5],[0,1,0,0,-5],[1,0,0,0,5],[1,1,0,0,-5]];perimeter=orthogonalPerimeter;outlineConnect=0;targetShapes=umlLifeline;portConstraint=eastwest;newEdgeStyle={&quot;curved&quot;:0,&quot;rounded&quot;:0};" parent="1" vertex="1">
          <mxGeometry x="22" y="410" width="10" height="160" as="geometry" />
        </mxCell>
        <mxCell id="YG_A0a-0bIN4n77Yev4p-65" value="Recibe mensaje para consultar limites de la operación&lt;p style=&quot;margin-left: 20.6pt; text-indent: -0.25in; font-size: 10px;&quot; class=&quot;TableText&quot;&gt;&lt;i&gt;&lt;span style=&quot;&quot; lang=&quot;ES&quot;&gt;&lt;font style=&quot;font-size: 10px;&quot;&gt;&lt;/font&gt;&lt;/span&gt;&lt;/i&gt;&lt;/p&gt;" style="text;html=1;align=left;verticalAlign=top;whiteSpace=wrap;rounded=0;fontSize=9;" parent="1" vertex="1">
          <mxGeometry x="-490" y="255" width="140" height="30" as="geometry" />
        </mxCell>
        <mxCell id="YG_A0a-0bIN4n77Yev4p-66" value="" style="html=1;verticalAlign=bottom;labelBackgroundColor=none;endArrow=block;endFill=1;endSize=6;align=left;rounded=0;" parent="1" edge="1">
          <mxGeometry x="-1" relative="1" as="geometry">
            <mxPoint x="-495" y="284.88" as="sourcePoint" />
            <mxPoint x="-335" y="284.88000000000056" as="targetPoint" />
            <mxPoint as="offset" />
          </mxGeometry>
        </mxCell>
        <mxCell id="YG_A0a-0bIN4n77Yev4p-78" value="Consulta limite de la operación" style="text;html=1;align=left;verticalAlign=top;whiteSpace=wrap;rounded=0;fontSize=9;" parent="1" vertex="1">
          <mxGeometry x="37" y="427" width="132.5" height="30" as="geometry" />
        </mxCell>
        <mxCell id="YG_A0a-0bIN4n77Yev4p-79" value="Realizar la consulta del limite de la operación&lt;div&gt;&lt;div&gt;&lt;font color=&quot;#cc0000&quot;&gt;[API PLARD - TBD&lt;span style=&quot;background-color: initial;&quot;&gt;]&lt;/span&gt;&lt;/font&gt;&lt;/div&gt;&lt;div&gt;&lt;b&gt;&lt;font color=&quot;#cc0000&quot;&gt;(Post) TBD&lt;/font&gt;&lt;/b&gt;&lt;/div&gt;&lt;/div&gt;" style="text;html=1;align=left;verticalAlign=top;whiteSpace=wrap;rounded=0;fontSize=9;" parent="1" vertex="1">
          <mxGeometry x="271" y="444" width="119" height="58" as="geometry" />
        </mxCell>
        <mxCell id="YG_A0a-0bIN4n77Yev4p-80" value="Regresa datos de la consulta de limites de la operación" style="text;html=1;align=left;verticalAlign=top;whiteSpace=wrap;rounded=0;fontSize=9;" parent="1" vertex="1">
          <mxGeometry x="102.5" y="464" width="120" height="35" as="geometry" />
        </mxCell>
        <mxCell id="YG_A0a-0bIN4n77Yev4p-81" value="Generar respuesta de la consulta del limite de la operación&lt;div&gt;&lt;div&gt;&lt;font color=&quot;#cc0000&quot;&gt;[API PLARD - TBD&lt;span style=&quot;background-color: initial;&quot;&gt;]&lt;/span&gt;&lt;/font&gt;&lt;/div&gt;&lt;div&gt;&lt;b&gt;&lt;font color=&quot;#cc0000&quot;&gt;(Post) TBD&lt;/font&gt;&lt;/b&gt;&lt;/div&gt;&lt;/div&gt;" style="text;html=1;align=left;verticalAlign=top;whiteSpace=wrap;rounded=0;fontSize=9;" parent="1" vertex="1">
          <mxGeometry x="67.5" y="507" width="142.5" height="60.5" as="geometry" />
        </mxCell>
        <mxCell id="YG_A0a-0bIN4n77Yev4p-82" value="Se envia respuesta de la consulta de limites de la operación" style="text;html=1;align=left;verticalAlign=top;whiteSpace=wrap;rounded=0;fontSize=9;" parent="1" vertex="1">
          <mxGeometry x="-120" y="528" width="139.75" height="36" as="geometry" />
        </mxCell>
        <mxCell id="YG_A0a-0bIN4n77Yev4p-89" value="" style="html=1;verticalAlign=bottom;labelBackgroundColor=none;endArrow=block;endFill=1;endSize=6;align=left;rounded=0;" parent="1" edge="1">
          <mxGeometry x="-1" relative="1" as="geometry">
            <mxPoint x="-324.5" y="399.07000000000005" as="sourcePoint" />
            <mxPoint x="-166" y="399.07000000000016" as="targetPoint" />
            <mxPoint as="offset" />
          </mxGeometry>
        </mxCell>
        <mxCell id="YG_A0a-0bIN4n77Yev4p-91" value="[BIN == PLARD]" style="text;html=1;align=left;verticalAlign=top;whiteSpace=wrap;rounded=0;fontSize=9;" parent="1" vertex="1">
          <mxGeometry x="-406.5" y="367" width="71.5" height="26.32" as="geometry" />
        </mxCell>
        <mxCell id="YG_A0a-0bIN4n77Yev4p-93" value="" style="html=1;align=left;spacingLeft=2;endArrow=block;rounded=0;edgeStyle=orthogonalEdgeStyle;curved=0;rounded=0;dashed=1;" parent="1" edge="1">
          <mxGeometry x="-0.2922" y="20" relative="1" as="geometry">
            <mxPoint x="33" y="520.7100000000005" as="sourcePoint" />
            <Array as="points">
              <mxPoint x="63" y="520.7700000000004" />
              <mxPoint x="63" y="550.7700000000004" />
            </Array>
            <mxPoint x="33" y="550.7700000000004" as="targetPoint" />
            <mxPoint as="offset" />
          </mxGeometry>
        </mxCell>
        <mxCell id="YG_A0a-0bIN4n77Yev4p-94" value="" style="html=1;verticalAlign=bottom;labelBackgroundColor=none;endArrow=none;endFill=0;endSize=6;align=left;rounded=0;startArrow=block;startFill=1;dashed=1;" parent="1" edge="1">
          <mxGeometry x="-1" relative="1" as="geometry">
            <mxPoint x="-494.5" y="592.75" as="sourcePoint" />
            <mxPoint x="-335" y="592.75" as="targetPoint" />
            <mxPoint as="offset" />
          </mxGeometry>
        </mxCell>
        <mxCell id="YG_A0a-0bIN4n77Yev4p-95" value="[ELSE&lt;span style=&quot;background-color: initial;&quot;&gt;]&lt;/span&gt;" style="text;html=1;align=left;verticalAlign=top;whiteSpace=wrap;rounded=0;fontSize=9;" parent="1" vertex="1">
          <mxGeometry x="-403.5" y="649.5900000000001" width="35.5" height="26.32" as="geometry" />
        </mxCell>
        <mxCell id="YG_A0a-0bIN4n77Yev4p-100" value="" style="html=1;verticalAlign=bottom;labelBackgroundColor=none;endArrow=none;endFill=0;endSize=6;align=left;rounded=0;startArrow=block;startFill=1;dashed=1;" parent="1" edge="1">
          <mxGeometry x="-1" relative="1" as="geometry">
            <mxPoint x="-325" y="737.9999999999995" as="sourcePoint" />
            <mxPoint x="426" y="738" as="targetPoint" />
            <mxPoint as="offset" />
          </mxGeometry>
        </mxCell>
        <mxCell id="YG_A0a-0bIN4n77Yev4p-101" value="Realiza consulta de limites" style="text;html=1;align=left;verticalAlign=top;whiteSpace=wrap;rounded=0;fontSize=9;" parent="1" vertex="1">
          <mxGeometry x="440.25" y="697.99" width="75.75" height="34.27" as="geometry" />
        </mxCell>
        <mxCell id="YG_A0a-0bIN4n77Yev4p-102" value="" style="html=1;points=[[0,0,0,0,5],[0,1,0,0,-5],[1,0,0,0,5],[1,1,0,0,-5]];perimeter=orthogonalPerimeter;outlineConnect=0;targetShapes=umlLifeline;portConstraint=eastwest;newEdgeStyle={&quot;curved&quot;:0,&quot;rounded&quot;:0};" parent="1" vertex="1">
          <mxGeometry x="425.5" y="685" width="10" height="62.25" as="geometry" />
        </mxCell>
        <mxCell id="YG_A0a-0bIN4n77Yev4p-108" value="" style="html=1;verticalAlign=bottom;labelBackgroundColor=none;endArrow=block;endFill=1;endSize=6;align=left;rounded=0;" parent="1" edge="1">
          <mxGeometry x="-1" relative="1" as="geometry">
            <mxPoint x="-156" y="424.00000000000006" as="sourcePoint" />
            <mxPoint x="22" y="424" as="targetPoint" />
            <mxPoint as="offset" />
          </mxGeometry>
        </mxCell>
        <mxCell id="YG_A0a-0bIN4n77Yev4p-110" value="" style="html=1;verticalAlign=bottom;labelBackgroundColor=none;endArrow=block;endFill=1;endSize=6;align=left;rounded=0;" parent="1" edge="1">
          <mxGeometry x="-1" relative="1" as="geometry">
            <mxPoint x="33" y="449.82000000000005" as="sourcePoint" />
            <mxPoint x="225" y="449.82000000000016" as="targetPoint" />
            <mxPoint as="offset" />
          </mxGeometry>
        </mxCell>
        <mxCell id="YG_A0a-0bIN4n77Yev4p-111" value="" style="html=1;align=left;spacingLeft=2;endArrow=block;rounded=0;edgeStyle=orthogonalEdgeStyle;curved=0;rounded=0;" parent="1" edge="1">
          <mxGeometry x="-0.2922" y="20" relative="1" as="geometry">
            <mxPoint x="235" y="455.5700000000004" as="sourcePoint" />
            <Array as="points">
              <mxPoint x="265" y="455.63000000000034" />
              <mxPoint x="265" y="485.63000000000034" />
            </Array>
            <mxPoint x="235" y="485.63000000000034" as="targetPoint" />
            <mxPoint as="offset" />
          </mxGeometry>
        </mxCell>
        <mxCell id="YG_A0a-0bIN4n77Yev4p-112" value="" style="html=1;verticalAlign=bottom;labelBackgroundColor=none;endArrow=none;endFill=0;endSize=6;align=left;rounded=0;startArrow=block;startFill=1;dashed=1;" parent="1" edge="1">
          <mxGeometry x="-1" relative="1" as="geometry">
            <mxPoint x="32" y="495" as="sourcePoint" />
            <mxPoint x="225" y="495" as="targetPoint" />
            <mxPoint as="offset" />
          </mxGeometry>
        </mxCell>
        <mxCell id="YG_A0a-0bIN4n77Yev4p-113" value="" style="html=1;verticalAlign=bottom;labelBackgroundColor=none;endArrow=none;endFill=0;endSize=6;align=left;rounded=0;startArrow=block;startFill=1;dashed=1;" parent="1" edge="1">
          <mxGeometry x="-1" relative="1" as="geometry">
            <mxPoint x="-156" y="559" as="sourcePoint" />
            <mxPoint x="21" y="559" as="targetPoint" />
            <mxPoint as="offset" />
          </mxGeometry>
        </mxCell>
        <mxCell id="YG_A0a-0bIN4n77Yev4p-114" value="" style="html=1;verticalAlign=bottom;labelBackgroundColor=none;endArrow=none;endFill=0;endSize=6;align=left;rounded=0;startArrow=block;startFill=1;dashed=1;" parent="1" edge="1">
          <mxGeometry x="-1" relative="1" as="geometry">
            <mxPoint x="-324.5" y="572.5" as="sourcePoint" />
            <mxPoint x="-166" y="572.5" as="targetPoint" />
            <mxPoint as="offset" />
          </mxGeometry>
        </mxCell>
        <mxCell id="YG_A0a-0bIN4n77Yev4p-119" value="Entrega respuesta de la consulta de limites de la operación" style="text;html=1;align=left;verticalAlign=top;whiteSpace=wrap;rounded=0;fontSize=9;" parent="1" vertex="1">
          <mxGeometry x="-649" y="582" width="137" height="35" as="geometry" />
        </mxCell>
        <mxCell id="YG_A0a-0bIN4n77Yev4p-120" value="" style="html=1;verticalAlign=bottom;labelBackgroundColor=none;endArrow=none;endFill=0;endSize=6;align=left;rounded=0;startArrow=block;startFill=1;dashed=1;" parent="1" edge="1">
          <mxGeometry x="-1" relative="1" as="geometry">
            <mxPoint x="-890" y="615" as="sourcePoint" />
            <mxPoint x="-505" y="615" as="targetPoint" />
            <mxPoint as="offset" />
          </mxGeometry>
        </mxCell>
        <mxCell id="YG_A0a-0bIN4n77Yev4p-121" value="alt" style="shape=umlFrame;whiteSpace=wrap;html=1;pointerEvents=0;width=58;height=27;" parent="1" vertex="1">
          <mxGeometry x="-410" y="331" width="930" height="469" as="geometry" />
        </mxCell>
        <mxCell id="YG_A0a-0bIN4n77Yev4p-122" value="Valida si es un dispositivo generado en PLARD&lt;br&gt;&lt;p style=&quot;margin-left: 20.6pt; text-indent: -0.25in; font-size: 10px;&quot; class=&quot;TableText&quot;&gt;&lt;i&gt;&lt;span style=&quot;&quot; lang=&quot;ES&quot;&gt;&lt;font style=&quot;font-size: 10px;&quot;&gt;&lt;/font&gt;&lt;/span&gt;&lt;/i&gt;&lt;/p&gt;" style="text;html=1;align=left;verticalAlign=top;whiteSpace=wrap;rounded=0;fontSize=9;" parent="1" vertex="1">
          <mxGeometry x="-402" y="389.13" width="64" height="50.87" as="geometry" />
        </mxCell>
        <mxCell id="YG_A0a-0bIN4n77Yev4p-126" value="Intercambio de PAN por device-id" style="text;html=1;align=left;verticalAlign=top;whiteSpace=wrap;rounded=0;fontSize=9;" parent="1" vertex="1">
          <mxGeometry x="-291" y="286" width="91" height="26" as="geometry" />
        </mxCell>
        <mxCell id="YG_A0a-0bIN4n77Yev4p-127" value="" style="html=1;align=left;spacingLeft=2;endArrow=block;rounded=0;edgeStyle=orthogonalEdgeStyle;curved=0;rounded=0;" parent="1" edge="1">
          <mxGeometry x="-0.2922" y="20" relative="1" as="geometry">
            <mxPoint x="-325" y="289.02000000000044" as="sourcePoint" />
            <Array as="points">
              <mxPoint x="-295" y="289.0800000000004" />
              <mxPoint x="-295" y="319.0800000000004" />
            </Array>
            <mxPoint x="-325" y="319.0800000000004" as="targetPoint" />
            <mxPoint as="offset" />
          </mxGeometry>
        </mxCell>
        <mxCell id="YG_A0a-0bIN4n77Yev4p-129" value="Se envia respuesta de la consulta de limites de la operación" style="text;html=1;align=left;verticalAlign=top;whiteSpace=wrap;rounded=0;fontSize=9;" parent="1" vertex="1">
          <mxGeometry x="-308" y="541" width="139.75" height="36" as="geometry" />
        </mxCell>
        <mxCell id="YG_A0a-0bIN4n77Yev4p-130" value="Lee respuesta de la consulta de limites de la operación" style="text;html=1;align=left;verticalAlign=top;whiteSpace=wrap;rounded=0;fontSize=9;" parent="1" vertex="1">
          <mxGeometry x="-492" y="547" width="86" height="36" as="geometry" />
        </mxCell>
        <mxCell id="YG_A0a-0bIN4n77Yev4p-131" value="Valida que NO es un dispositivo generado en PLARD&lt;br&gt;&lt;p style=&quot;margin-left: 20.6pt; text-indent: -0.25in; font-size: 10px;&quot; class=&quot;TableText&quot;&gt;&lt;i&gt;&lt;span style=&quot;&quot; lang=&quot;ES&quot;&gt;&lt;font style=&quot;font-size: 10px;&quot;&gt;&lt;/font&gt;&lt;/span&gt;&lt;/i&gt;&lt;/p&gt;" style="text;html=1;align=left;verticalAlign=top;whiteSpace=wrap;rounded=0;fontSize=9;" parent="1" vertex="1">
          <mxGeometry x="-407" y="671.25" width="69" height="48.75" as="geometry" />
        </mxCell>
        <mxCell id="YG_A0a-0bIN4n77Yev4p-133" value="" style="html=1;verticalAlign=bottom;labelBackgroundColor=none;endArrow=block;endFill=1;endSize=6;align=left;rounded=0;" parent="1" edge="1">
          <mxGeometry x="-1" relative="1" as="geometry">
            <mxPoint x="-325" y="699" as="sourcePoint" />
            <mxPoint x="425.5" y="699" as="targetPoint" />
            <mxPoint as="offset" />
          </mxGeometry>
        </mxCell>
        <mxCell id="YG_A0a-0bIN4n77Yev4p-135" value="Envia respuesta&amp;nbsp;de la consulta de limites de la operación. Trx: LMV1" style="text;html=1;align=left;verticalAlign=top;whiteSpace=wrap;rounded=0;fontSize=9;" parent="1" vertex="1">
          <mxGeometry x="273" y="706" width="152.5" height="35" as="geometry" />
        </mxCell>
        <mxCell id="YG_A0a-0bIN4n77Yev4p-138" value="Entrega respuesta de la consulta de limites de la operación" style="text;html=1;align=left;verticalAlign=top;whiteSpace=wrap;rounded=0;fontSize=9;" parent="1" vertex="1">
          <mxGeometry x="-550" y="727" width="140" height="35" as="geometry" />
        </mxCell>
        <mxCell id="YG_A0a-0bIN4n77Yev4p-139" value="" style="html=1;verticalAlign=bottom;labelBackgroundColor=none;endArrow=none;endFill=0;endSize=6;align=left;rounded=0;startArrow=block;startFill=1;dashed=1;" parent="1" edge="1">
          <mxGeometry x="-1" relative="1" as="geometry">
            <mxPoint x="-890" y="760" as="sourcePoint" />
            <mxPoint x="-335" y="760" as="targetPoint" />
            <mxPoint as="offset" />
          </mxGeometry>
        </mxCell>
        <mxCell id="YG_A0a-0bIN4n77Yev4p-140" value="" style="html=1;points=[[0,0,0,0,5],[0,1,0,0,-5],[1,0,0,0,5],[1,1,0,0,-5]];perimeter=orthogonalPerimeter;outlineConnect=0;targetShapes=umlLifeline;portConstraint=eastwest;newEdgeStyle={&quot;curved&quot;:0,&quot;rounded&quot;:0};" parent="1" vertex="1">
          <mxGeometry x="593.5" y="915" width="10" height="62.25" as="geometry" />
        </mxCell>
        <mxCell id="YG_A0a-0bIN4n77Yev4p-141" value="Consulta de montos limites diarios máximos a operar por canal y transacción del cliente. Trx:B835" style="text;html=1;align=left;verticalAlign=top;whiteSpace=wrap;rounded=0;fontSize=9;" parent="1" vertex="1">
          <mxGeometry x="-882" y="856" width="182" height="44" as="geometry" />
        </mxCell>
        <mxCell id="YG_A0a-0bIN4n77Yev4p-142" value="" style="html=1;verticalAlign=bottom;labelBackgroundColor=none;endArrow=block;endFill=1;endSize=6;align=left;rounded=0;" parent="1" edge="1">
          <mxGeometry x="-1" relative="1" as="geometry">
            <mxPoint x="-890" y="898.88" as="sourcePoint" />
            <mxPoint x="-335" y="898.8800000000001" as="targetPoint" />
            <mxPoint as="offset" />
          </mxGeometry>
        </mxCell>
        <mxCell id="YG_A0a-0bIN4n77Yev4p-146" value="" style="html=1;verticalAlign=bottom;labelBackgroundColor=none;endArrow=block;endFill=1;endSize=6;align=left;rounded=0;" parent="1" edge="1">
          <mxGeometry x="-1" relative="1" as="geometry">
            <mxPoint x="-325" y="925" as="sourcePoint" />
            <mxPoint x="593.5" y="925" as="targetPoint" />
            <mxPoint as="offset" />
          </mxGeometry>
        </mxCell>
        <mxCell id="YG_A0a-0bIN4n77Yev4p-150" value="Consulta de montos limites diarios máximos. Trx:B835" style="text;html=1;align=left;verticalAlign=top;whiteSpace=wrap;rounded=0;fontSize=9;" parent="1" vertex="1">
          <mxGeometry x="-320" y="889.99" width="134" height="34" as="geometry" />
        </mxCell>
        <mxCell id="YG_A0a-0bIN4n77Yev4p-151" value="" style="html=1;verticalAlign=bottom;labelBackgroundColor=none;endArrow=none;endFill=0;endSize=6;align=left;rounded=0;startArrow=block;startFill=1;dashed=1;" parent="1" edge="1">
          <mxGeometry x="-1" relative="1" as="geometry">
            <mxPoint x="-325" y="969" as="sourcePoint" />
            <mxPoint x="593" y="969" as="targetPoint" />
            <mxPoint as="offset" />
          </mxGeometry>
        </mxCell>
        <mxCell id="YG_A0a-0bIN4n77Yev4p-152" value="Envia respuesta&amp;nbsp;de la consulta de montos pre-cargados.Trx:B835" style="text;html=1;align=left;verticalAlign=top;whiteSpace=wrap;rounded=0;fontSize=9;" parent="1" vertex="1">
          <mxGeometry x="441" y="937" width="149" height="35" as="geometry" />
        </mxCell>
        <mxCell id="YG_A0a-0bIN4n77Yev4p-153" value="Realiza consulta de montos pre- cargados" style="text;html=1;align=left;verticalAlign=top;whiteSpace=wrap;rounded=0;fontSize=9;" parent="1" vertex="1">
          <mxGeometry x="608.25" y="923.99" width="75.75" height="42.01" as="geometry" />
        </mxCell>
        <mxCell id="YG_A0a-0bIN4n77Yev4p-156" value="" style="html=1;verticalAlign=bottom;labelBackgroundColor=none;endArrow=none;endFill=0;endSize=6;align=left;rounded=0;startArrow=block;startFill=1;dashed=1;" parent="1" edge="1">
          <mxGeometry x="-1" relative="1" as="geometry">
            <mxPoint x="-890" y="1000" as="sourcePoint" />
            <mxPoint x="-335" y="1000" as="targetPoint" />
            <mxPoint as="offset" />
          </mxGeometry>
        </mxCell>
        <mxCell id="YG_A0a-0bIN4n77Yev4p-157" value="Entrega respuesta de la consulta de montos pre-cargados" style="text;html=1;align=left;verticalAlign=top;whiteSpace=wrap;rounded=0;fontSize=9;" parent="1" vertex="1">
          <mxGeometry x="-492" y="966" width="139" height="35" as="geometry" />
        </mxCell>
        <mxCell id="YG_A0a-0bIN4n77Yev4p-158" value="Valida ARQC de la tarjeta (folio) en el autorizador" style="text;html=1;align=left;verticalAlign=top;whiteSpace=wrap;rounded=0;fontSize=9;" parent="1" vertex="1">
          <mxGeometry x="-877.25" y="1137" width="138.25" height="31" as="geometry" />
        </mxCell>
        <mxCell id="YG_A0a-0bIN4n77Yev4p-159" value="" style="html=1;verticalAlign=bottom;labelBackgroundColor=none;endArrow=block;endFill=1;endSize=6;align=left;rounded=0;" parent="1" edge="1">
          <mxGeometry x="-1" relative="1" as="geometry">
            <mxPoint x="-890.5" y="1169" as="sourcePoint" />
            <mxPoint x="778" y="1169" as="targetPoint" />
            <mxPoint as="offset" />
          </mxGeometry>
        </mxCell>
        <mxCell id="YG_A0a-0bIN4n77Yev4p-160" value="" style="html=1;points=[[0,0,0,0,5],[0,1,0,0,-5],[1,0,0,0,5],[1,1,0,0,-5]];perimeter=orthogonalPerimeter;outlineConnect=0;targetShapes=umlLifeline;portConstraint=eastwest;newEdgeStyle={&quot;curved&quot;:0,&quot;rounded&quot;:0};" parent="1" vertex="1">
          <mxGeometry x="776" y="1141" width="10" height="280" as="geometry" />
        </mxCell>
        <mxCell id="YG_A0a-0bIN4n77Yev4p-161" value="[BIN == PLARD]" style="text;html=1;align=left;verticalAlign=top;whiteSpace=wrap;rounded=0;fontSize=9;" parent="1" vertex="1">
          <mxGeometry x="795" y="1133" width="84" height="26.32" as="geometry" />
        </mxCell>
        <mxCell id="YG_A0a-0bIN4n77Yev4p-162" value="[ELSE&lt;span style=&quot;background-color: initial;&quot;&gt;]&lt;/span&gt;" style="text;html=1;align=left;verticalAlign=top;whiteSpace=wrap;rounded=0;fontSize=9;" parent="1" vertex="1">
          <mxGeometry x="796" y="1270.3400000000001" width="35.5" height="26.32" as="geometry" />
        </mxCell>
        <mxCell id="YG_A0a-0bIN4n77Yev4p-163" value="Valida que NO es un dispositivo generado en PLARD&lt;br&gt;&lt;p style=&quot;margin-left: 20.6pt; text-indent: -0.25in; font-size: 10px;&quot; class=&quot;TableText&quot;&gt;&lt;i&gt;&lt;span style=&quot;&quot; lang=&quot;ES&quot;&gt;&lt;font style=&quot;font-size: 10px;&quot;&gt;&lt;/font&gt;&lt;/span&gt;&lt;/i&gt;&lt;/p&gt;" style="text;html=1;align=left;verticalAlign=top;whiteSpace=wrap;rounded=0;fontSize=9;" parent="1" vertex="1">
          <mxGeometry x="804" y="1302.66" width="145.5" height="33.34" as="geometry" />
        </mxCell>
        <mxCell id="YG_A0a-0bIN4n77Yev4p-164" value="Valida si es un dispositivo generado en PLARD&lt;br&gt;&lt;p style=&quot;margin-left: 20.6pt; text-indent: -0.25in; font-size: 10px;&quot; class=&quot;TableText&quot;&gt;&lt;i&gt;&lt;span style=&quot;&quot; lang=&quot;ES&quot;&gt;&lt;font style=&quot;font-size: 10px;&quot;&gt;&lt;/font&gt;&lt;/span&gt;&lt;/i&gt;&lt;/p&gt;" style="text;html=1;align=left;verticalAlign=top;whiteSpace=wrap;rounded=0;fontSize=9;" parent="1" vertex="1">
          <mxGeometry x="808" y="1160.32" width="145.5" height="30.68" as="geometry" />
        </mxCell>
        <mxCell id="YG_A0a-0bIN4n77Yev4p-165" value="" style="html=1;verticalAlign=bottom;labelBackgroundColor=none;endArrow=block;endFill=1;endSize=6;align=left;rounded=0;" parent="1" edge="1">
          <mxGeometry x="-1" relative="1" as="geometry">
            <mxPoint x="786" y="1191" as="sourcePoint" />
            <mxPoint x="1142" y="1191" as="targetPoint" />
            <mxPoint as="offset" />
          </mxGeometry>
        </mxCell>
        <mxCell id="YG_A0a-0bIN4n77Yev4p-166" value="" style="html=1;verticalAlign=bottom;labelBackgroundColor=none;endArrow=block;endFill=1;endSize=6;align=left;rounded=0;" parent="1" target="YG_A0a-0bIN4n77Yev4p-177" edge="1">
          <mxGeometry x="-1" relative="1" as="geometry">
            <mxPoint x="787" y="1337.3200000000002" as="sourcePoint" />
            <mxPoint x="978" y="1337.3199999999997" as="targetPoint" />
            <mxPoint as="offset" />
          </mxGeometry>
        </mxCell>
        <mxCell id="YG_A0a-0bIN4n77Yev4p-167" value="alt" style="shape=umlFrame;whiteSpace=wrap;html=1;pointerEvents=0;width=86;height=31;" parent="1" vertex="1">
          <mxGeometry x="750" y="1101" width="510" height="331" as="geometry" />
        </mxCell>
        <mxCell id="YG_A0a-0bIN4n77Yev4p-168" value="" style="html=1;verticalAlign=bottom;labelBackgroundColor=none;endArrow=none;endFill=0;endSize=6;align=left;rounded=0;startArrow=block;startFill=1;dashed=1;" parent="1" edge="1">
          <mxGeometry x="-1" relative="1" as="geometry">
            <mxPoint x="786" y="1237" as="sourcePoint" />
            <mxPoint x="1142" y="1237" as="targetPoint" />
            <mxPoint as="offset" />
          </mxGeometry>
        </mxCell>
        <mxCell id="YG_A0a-0bIN4n77Yev4p-169" value="Respuesta de validación del ARQC de la tarjeta" style="text;html=1;align=left;verticalAlign=top;whiteSpace=wrap;rounded=0;fontSize=9;" parent="1" vertex="1">
          <mxGeometry x="1017.25" y="1204.5" width="114.75" height="27" as="geometry" />
        </mxCell>
        <mxCell id="YG_A0a-0bIN4n77Yev4p-170" value="" style="html=1;verticalAlign=bottom;labelBackgroundColor=none;endArrow=none;endFill=0;endSize=6;align=left;rounded=0;startArrow=block;startFill=1;dashed=1;" parent="1" edge="1">
          <mxGeometry x="-1" relative="1" as="geometry">
            <mxPoint x="-890.5" y="1257" as="sourcePoint" />
            <mxPoint x="778" y="1257" as="targetPoint" />
            <mxPoint as="offset" />
          </mxGeometry>
        </mxCell>
        <mxCell id="YG_A0a-0bIN4n77Yev4p-173" value="" style="html=1;verticalAlign=bottom;labelBackgroundColor=none;endArrow=none;endFill=0;endSize=6;align=left;rounded=0;startArrow=block;startFill=1;dashed=1;" parent="1" edge="1">
          <mxGeometry x="-1" relative="1" as="geometry">
            <mxPoint x="-890.5" y="1399" as="sourcePoint" />
            <mxPoint x="776" y="1399" as="targetPoint" />
            <mxPoint as="offset" />
          </mxGeometry>
        </mxCell>
        <mxCell id="YG_A0a-0bIN4n77Yev4p-175" value="" style="html=1;verticalAlign=bottom;labelBackgroundColor=none;endArrow=none;endFill=0;endSize=6;align=left;rounded=0;startArrow=block;startFill=1;dashed=1;" parent="1" target="YG_A0a-0bIN4n77Yev4p-177" edge="1">
          <mxGeometry x="-1" relative="1" as="geometry">
            <mxPoint x="786" y="1384" as="sourcePoint" />
            <mxPoint x="982" y="1384" as="targetPoint" />
            <mxPoint as="offset" />
          </mxGeometry>
        </mxCell>
        <mxCell id="YG_A0a-0bIN4n77Yev4p-177" value="" style="html=1;points=[[0,0,0,0,5],[0,1,0,0,-5],[1,0,0,0,5],[1,1,0,0,-5]];perimeter=orthogonalPerimeter;outlineConnect=0;targetShapes=umlLifeline;portConstraint=eastwest;newEdgeStyle={&quot;curved&quot;:0,&quot;rounded&quot;:0};" parent="1" vertex="1">
          <mxGeometry x="962" y="1324" width="10" height="70" as="geometry" />
        </mxCell>
        <mxCell id="YG_A0a-0bIN4n77Yev4p-178" value="" style="html=1;points=[[0,0,0,0,5],[0,1,0,0,-5],[1,0,0,0,5],[1,1,0,0,-5]];perimeter=orthogonalPerimeter;outlineConnect=0;targetShapes=umlLifeline;portConstraint=eastwest;newEdgeStyle={&quot;curved&quot;:0,&quot;rounded&quot;:0};" parent="1" vertex="1">
          <mxGeometry x="1142" y="1175" width="10" height="76" as="geometry" />
        </mxCell>
        <mxCell id="YG_A0a-0bIN4n77Yev4p-179" value="" style="html=1;align=left;spacingLeft=2;endArrow=block;rounded=0;edgeStyle=orthogonalEdgeStyle;curved=0;rounded=0;" parent="1" edge="1">
          <mxGeometry x="-0.2922" y="20" relative="1" as="geometry">
            <mxPoint x="972" y="1346.0000000000002" as="sourcePoint" />
            <Array as="points">
              <mxPoint x="1002" y="1346.0600000000002" />
              <mxPoint x="1002" y="1376.0600000000002" />
            </Array>
            <mxPoint x="972" y="1376.0600000000002" as="targetPoint" />
            <mxPoint as="offset" />
          </mxGeometry>
        </mxCell>
        <mxCell id="YG_A0a-0bIN4n77Yev4p-180" value="Valida el ARQC de la tarjeta" style="text;html=1;align=left;verticalAlign=top;whiteSpace=wrap;rounded=0;fontSize=9;" parent="1" vertex="1">
          <mxGeometry x="1187" y="1195" width="73" height="27" as="geometry" />
        </mxCell>
        <mxCell id="YG_A0a-0bIN4n77Yev4p-181" value="" style="html=1;align=left;spacingLeft=2;endArrow=block;rounded=0;edgeStyle=orthogonalEdgeStyle;curved=0;rounded=0;" parent="1" edge="1">
          <mxGeometry x="-0.2922" y="20" relative="1" as="geometry">
            <mxPoint x="1152" y="1197.0000000000002" as="sourcePoint" />
            <Array as="points">
              <mxPoint x="1182" y="1197.0600000000002" />
              <mxPoint x="1182" y="1227.0600000000002" />
            </Array>
            <mxPoint x="1152" y="1227.0600000000002" as="targetPoint" />
            <mxPoint as="offset" />
          </mxGeometry>
        </mxCell>
        <mxCell id="YG_A0a-0bIN4n77Yev4p-183" value="Valida el ARQC de la tarjeta" style="text;html=1;align=left;verticalAlign=top;whiteSpace=wrap;rounded=0;fontSize=9;" parent="1" vertex="1">
          <mxGeometry x="1007" y="1344" width="73" height="27" as="geometry" />
        </mxCell>
        <mxCell id="YG_A0a-0bIN4n77Yev4p-184" value="Respuesta de validación del ARQC de la tarjeta" style="text;html=1;align=left;verticalAlign=top;whiteSpace=wrap;rounded=0;fontSize=9;" parent="1" vertex="1">
          <mxGeometry x="835.25" y="1351.5" width="104.75" height="27" as="geometry" />
        </mxCell>
        <mxCell id="YG_A0a-0bIN4n77Yev4p-185" value="Respuesta de validación del ARQC de la tarjeta" style="text;html=1;align=left;verticalAlign=top;whiteSpace=wrap;rounded=0;fontSize=9;" parent="1" vertex="1">
          <mxGeometry x="-836.75" y="1365.5" width="104.75" height="27" as="geometry" />
        </mxCell>
        <mxCell id="YG_A0a-0bIN4n77Yev4p-186" value="Respuesta de validación del ARQC de la tarjeta" style="text;html=1;align=left;verticalAlign=top;whiteSpace=wrap;rounded=0;fontSize=9;" parent="1" vertex="1">
          <mxGeometry x="-844.75" y="1222.5" width="104.75" height="27" as="geometry" />
        </mxCell>
        <mxCell id="YG_A0a-0bIN4n77Yev4p-187" value="" style="html=1;points=[[0,0,0,0,5],[0,1,0,0,-5],[1,0,0,0,5],[1,1,0,0,-5]];perimeter=orthogonalPerimeter;outlineConnect=0;targetShapes=umlLifeline;portConstraint=eastwest;newEdgeStyle={&quot;curved&quot;:0,&quot;rounded&quot;:0};" parent="1" vertex="1">
          <mxGeometry x="594.5" y="1544" width="10" height="62.25" as="geometry" />
        </mxCell>
        <mxCell id="YG_A0a-0bIN4n77Yev4p-188" value="Genera pago de servicio" style="text;html=1;align=left;verticalAlign=top;whiteSpace=wrap;rounded=0;fontSize=9;" parent="1" vertex="1">
          <mxGeometry x="-881" y="1515" width="101" height="24" as="geometry" />
        </mxCell>
        <mxCell id="YG_A0a-0bIN4n77Yev4p-189" value="" style="html=1;verticalAlign=bottom;labelBackgroundColor=none;endArrow=block;endFill=1;endSize=6;align=left;rounded=0;" parent="1" edge="1">
          <mxGeometry x="-1" relative="1" as="geometry">
            <mxPoint x="-889" y="1538.88" as="sourcePoint" />
            <mxPoint x="-334" y="1538.88" as="targetPoint" />
            <mxPoint as="offset" />
          </mxGeometry>
        </mxCell>
        <mxCell id="YG_A0a-0bIN4n77Yev4p-191" value="" style="html=1;verticalAlign=bottom;labelBackgroundColor=none;endArrow=block;endFill=1;endSize=6;align=left;rounded=0;" parent="1" edge="1">
          <mxGeometry x="-1" relative="1" as="geometry">
            <mxPoint x="-325" y="1551.5" as="sourcePoint" />
            <mxPoint x="594.5" y="1551.5" as="targetPoint" />
            <mxPoint as="offset" />
          </mxGeometry>
        </mxCell>
        <mxCell id="YG_A0a-0bIN4n77Yev4p-193" value="Transpaso entre cuentas&amp;nbsp;&lt;div&gt;Trx: LZA6&lt;/div&gt;" style="text;html=1;align=left;verticalAlign=top;whiteSpace=wrap;rounded=0;fontSize=9;" parent="1" vertex="1">
          <mxGeometry x="-307" y="1520" width="117" height="34" as="geometry" />
        </mxCell>
        <mxCell id="YG_A0a-0bIN4n77Yev4p-194" value="" style="html=1;verticalAlign=bottom;labelBackgroundColor=none;endArrow=none;endFill=0;endSize=6;align=left;rounded=0;startArrow=block;startFill=1;dashed=1;" parent="1" edge="1">
          <mxGeometry x="-1" relative="1" as="geometry">
            <mxPoint x="-325" y="1597" as="sourcePoint" />
            <mxPoint x="594" y="1597" as="targetPoint" />
            <mxPoint as="offset" />
          </mxGeometry>
        </mxCell>
        <mxCell id="YG_A0a-0bIN4n77Yev4p-195" value="Resultado del transpaso de la cuenta.&amp;nbsp;&lt;span style=&quot;background-color: initial;&quot;&gt;Trx: LZA6&lt;/span&gt;" style="text;html=1;align=left;verticalAlign=top;whiteSpace=wrap;rounded=0;fontSize=9;" parent="1" vertex="1">
          <mxGeometry x="459" y="1565" width="118" height="35" as="geometry" />
        </mxCell>
        <mxCell id="YG_A0a-0bIN4n77Yev4p-196" value="Realiza transpaso entre cuentas" style="text;html=1;align=left;verticalAlign=top;whiteSpace=wrap;rounded=0;fontSize=9;" parent="1" vertex="1">
          <mxGeometry x="609.25" y="1557.99" width="75.75" height="36.01" as="geometry" />
        </mxCell>
        <mxCell id="YG_A0a-0bIN4n77Yev4p-199" value="" style="html=1;verticalAlign=bottom;labelBackgroundColor=none;endArrow=none;endFill=0;endSize=6;align=left;rounded=0;startArrow=block;startFill=1;dashed=1;" parent="1" edge="1">
          <mxGeometry x="-1" relative="1" as="geometry">
            <mxPoint x="-890" y="1610" as="sourcePoint" />
            <mxPoint x="-335" y="1610" as="targetPoint" />
            <mxPoint as="offset" />
          </mxGeometry>
        </mxCell>
        <mxCell id="YG_A0a-0bIN4n77Yev4p-203" value="Validación ARQC de la tarjeta - OK&lt;br&gt;&lt;p style=&quot;margin-left: 20.6pt; text-indent: -0.25in; font-size: 10px;&quot; class=&quot;TableText&quot;&gt;&lt;i&gt;&lt;span style=&quot;&quot; lang=&quot;ES&quot;&gt;&lt;font style=&quot;font-size: 10px;&quot;&gt;&lt;/font&gt;&lt;/span&gt;&lt;/i&gt;&lt;/p&gt;" style="text;html=1;align=left;verticalAlign=top;whiteSpace=wrap;rounded=0;fontSize=9;" parent="1" vertex="1">
          <mxGeometry x="-854" y="1442" width="91" height="31" as="geometry" />
        </mxCell>
        <mxCell id="YG_A0a-0bIN4n77Yev4p-204" value="" style="html=1;align=left;spacingLeft=2;endArrow=block;rounded=0;edgeStyle=orthogonalEdgeStyle;curved=0;rounded=0;" parent="1" edge="1">
          <mxGeometry x="-0.2922" y="20" relative="1" as="geometry">
            <mxPoint x="-890" y="1444.0000000000005" as="sourcePoint" />
            <Array as="points">
              <mxPoint x="-860" y="1444.0600000000004" />
              <mxPoint x="-860" y="1474.0600000000004" />
            </Array>
            <mxPoint x="-890" y="1474.0600000000004" as="targetPoint" />
            <mxPoint as="offset" />
          </mxGeometry>
        </mxCell>
        <mxCell id="YG_A0a-0bIN4n77Yev4p-206" value="Resultado de la operación &quot;pago de servicio&quot;" style="text;html=1;align=left;verticalAlign=top;whiteSpace=wrap;rounded=0;fontSize=9;" parent="1" vertex="1">
          <mxGeometry x="-464" y="1577" width="118" height="35" as="geometry" />
        </mxCell>
        <mxCell id="YG_A0a-0bIN4n77Yev4p-207" value="" style="html=1;points=[[0,0,0,0,5],[0,1,0,0,-5],[1,0,0,0,5],[1,1,0,0,-5]];perimeter=orthogonalPerimeter;outlineConnect=0;targetShapes=umlLifeline;portConstraint=eastwest;newEdgeStyle={&quot;curved&quot;:0,&quot;rounded&quot;:0};" parent="1" vertex="1">
          <mxGeometry x="-505" y="1700" width="10" height="60" as="geometry" />
        </mxCell>
        <mxCell id="YG_A0a-0bIN4n77Yev4p-208" value="" style="html=1;points=[[0,0,0,0,5],[0,1,0,0,-5],[1,0,0,0,5],[1,1,0,0,-5]];perimeter=orthogonalPerimeter;outlineConnect=0;targetShapes=umlLifeline;portConstraint=eastwest;newEdgeStyle={&quot;curved&quot;:0,&quot;rounded&quot;:0};strokeColor=#000000;" parent="1" vertex="1">
          <mxGeometry x="-335" y="1528" width="10" height="92" as="geometry" />
        </mxCell>
        <mxCell id="YG_A0a-0bIN4n77Yev4p-211" value="" style="html=1;verticalAlign=bottom;labelBackgroundColor=none;endArrow=block;endFill=1;endSize=6;align=left;rounded=0;" parent="1" target="YG_A0a-0bIN4n77Yev4p-207" edge="1">
          <mxGeometry x="-1" relative="1" as="geometry">
            <mxPoint x="-890" y="1718.88" as="sourcePoint" />
            <mxPoint x="-510" y="1719" as="targetPoint" />
            <mxPoint as="offset" />
          </mxGeometry>
        </mxCell>
        <mxCell id="YG_A0a-0bIN4n77Yev4p-212" value="Recibe mensaje para registrar la operación de pago de servicio&lt;p style=&quot;margin-left: 20.6pt; text-indent: -0.25in; font-size: 10px;&quot; class=&quot;TableText&quot;&gt;&lt;i&gt;&lt;span style=&quot;&quot; lang=&quot;ES&quot;&gt;&lt;font style=&quot;font-size: 10px;&quot;&gt;&lt;/font&gt;&lt;/span&gt;&lt;/i&gt;&lt;/p&gt;" style="text;html=1;align=left;verticalAlign=top;whiteSpace=wrap;rounded=0;fontSize=9;" parent="1" vertex="1">
          <mxGeometry x="-490" y="1696" width="140" height="30" as="geometry" />
        </mxCell>
        <mxCell id="YG_A0a-0bIN4n77Yev4p-213" value="" style="html=1;verticalAlign=bottom;labelBackgroundColor=none;endArrow=block;endFill=1;endSize=6;align=left;rounded=0;" parent="1" edge="1">
          <mxGeometry x="-1" relative="1" as="geometry">
            <mxPoint x="-495" y="1726.88" as="sourcePoint" />
            <mxPoint x="-335" y="1726.8800000000006" as="targetPoint" />
            <mxPoint as="offset" />
          </mxGeometry>
        </mxCell>
        <mxCell id="YG_A0a-0bIN4n77Yev4p-214" value="Intercambio de PAN por device-id" style="text;html=1;align=left;verticalAlign=top;whiteSpace=wrap;rounded=0;fontSize=9;" parent="1" vertex="1">
          <mxGeometry x="-291" y="1728" width="91" height="26" as="geometry" />
        </mxCell>
        <mxCell id="YG_A0a-0bIN4n77Yev4p-215" value="" style="html=1;align=left;spacingLeft=2;endArrow=block;rounded=0;edgeStyle=orthogonalEdgeStyle;curved=0;rounded=0;" parent="1" edge="1">
          <mxGeometry x="-0.2922" y="20" relative="1" as="geometry">
            <mxPoint x="-325" y="1731.0200000000004" as="sourcePoint" />
            <Array as="points">
              <mxPoint x="-295" y="1731.0800000000004" />
              <mxPoint x="-295" y="1761.0800000000004" />
            </Array>
            <mxPoint x="-325" y="1761.0800000000004" as="targetPoint" />
            <mxPoint as="offset" />
          </mxGeometry>
        </mxCell>
        <mxCell id="YG_A0a-0bIN4n77Yev4p-216" value="" style="html=1;points=[[0,0,0,0,5],[0,1,0,0,-5],[1,0,0,0,5],[1,1,0,0,-5]];perimeter=orthogonalPerimeter;outlineConnect=0;targetShapes=umlLifeline;portConstraint=eastwest;newEdgeStyle={&quot;curved&quot;:0,&quot;rounded&quot;:0};" parent="1" vertex="1">
          <mxGeometry x="-335" y="1710" width="10" height="510" as="geometry" />
        </mxCell>
        <mxCell id="YG_A0a-0bIN4n77Yev4p-217" value="" style="html=1;points=[[0,0,0,0,5],[0,1,0,0,-5],[1,0,0,0,5],[1,1,0,0,-5]];perimeter=orthogonalPerimeter;outlineConnect=0;targetShapes=umlLifeline;portConstraint=eastwest;newEdgeStyle={&quot;curved&quot;:0,&quot;rounded&quot;:0};" parent="1" vertex="1">
          <mxGeometry x="225" y="1876" width="10" height="64" as="geometry" />
        </mxCell>
        <mxCell id="YG_A0a-0bIN4n77Yev4p-218" value="" style="html=1;points=[[0,0,0,0,5],[0,1,0,0,-5],[1,0,0,0,5],[1,1,0,0,-5]];perimeter=orthogonalPerimeter;outlineConnect=0;targetShapes=umlLifeline;portConstraint=eastwest;newEdgeStyle={&quot;curved&quot;:0,&quot;rounded&quot;:0};" parent="1" vertex="1">
          <mxGeometry x="22" y="1860" width="10" height="170" as="geometry" />
        </mxCell>
        <mxCell id="YG_A0a-0bIN4n77Yev4p-222" value="&lt;div&gt;&lt;div&gt;Registrar la operación de pago de servicio&lt;/div&gt;&lt;div&gt;&lt;font color=&quot;#cc0000&quot;&gt;[API PLARD - TBD&lt;span style=&quot;background-color: initial;&quot;&gt;]&lt;/span&gt;&lt;/font&gt;&lt;/div&gt;&lt;div&gt;&lt;b&gt;&lt;font color=&quot;#cc0000&quot;&gt;(Post) TBD&lt;/font&gt;&lt;/b&gt;&lt;/div&gt;&lt;/div&gt;" style="text;html=1;align=left;verticalAlign=top;whiteSpace=wrap;rounded=0;fontSize=9;" parent="1" vertex="1">
          <mxGeometry x="271" y="1879" width="119" height="58" as="geometry" />
        </mxCell>
        <mxCell id="YG_A0a-0bIN4n77Yev4p-223" value="Regresa datos del registro de la operación de pago de servicio" style="text;html=1;align=left;verticalAlign=top;whiteSpace=wrap;rounded=0;fontSize=9;" parent="1" vertex="1">
          <mxGeometry x="80" y="1899" width="142.5" height="35" as="geometry" />
        </mxCell>
        <mxCell id="YG_A0a-0bIN4n77Yev4p-224" value="Generar respuesta del registro de la operación de pago de servicio&lt;div&gt;&lt;div&gt;&lt;b&gt;&lt;font color=&quot;#cc0000&quot;&gt;(Post) TBD&lt;/font&gt;&lt;/b&gt;&lt;/div&gt;&lt;/div&gt;" style="text;html=1;align=left;verticalAlign=top;whiteSpace=wrap;rounded=0;fontSize=9;" parent="1" vertex="1">
          <mxGeometry x="67.5" y="1959" width="142.5" height="43" as="geometry" />
        </mxCell>
        <mxCell id="YG_A0a-0bIN4n77Yev4p-225" value="Se envia respuesta del registro de la operación de pago de servicio" style="text;html=1;align=left;verticalAlign=top;whiteSpace=wrap;rounded=0;fontSize=9;" parent="1" vertex="1">
          <mxGeometry x="-120" y="1985" width="139.75" height="36" as="geometry" />
        </mxCell>
        <mxCell id="YG_A0a-0bIN4n77Yev4p-226" value="" style="html=1;verticalAlign=bottom;labelBackgroundColor=none;endArrow=block;endFill=1;endSize=6;align=left;rounded=0;" parent="1" edge="1">
          <mxGeometry x="-1" relative="1" as="geometry">
            <mxPoint x="-324.5" y="1849.0700000000002" as="sourcePoint" />
            <mxPoint x="-166" y="1849.0700000000002" as="targetPoint" />
            <mxPoint as="offset" />
          </mxGeometry>
        </mxCell>
        <mxCell id="YG_A0a-0bIN4n77Yev4p-227" value="[BIN == PLARD]" style="text;html=1;align=left;verticalAlign=top;whiteSpace=wrap;rounded=0;fontSize=9;" parent="1" vertex="1">
          <mxGeometry x="-406.5" y="1817" width="71.5" height="26.32" as="geometry" />
        </mxCell>
        <mxCell id="YG_A0a-0bIN4n77Yev4p-228" value="" style="html=1;align=left;spacingLeft=2;endArrow=block;rounded=0;edgeStyle=orthogonalEdgeStyle;curved=0;rounded=0;dashed=1;" parent="1" edge="1">
          <mxGeometry x="-0.2922" y="20" relative="1" as="geometry">
            <mxPoint x="33" y="1965.7100000000005" as="sourcePoint" />
            <Array as="points">
              <mxPoint x="63" y="1965.7700000000004" />
              <mxPoint x="63" y="1995.7700000000004" />
            </Array>
            <mxPoint x="33" y="1995.7700000000004" as="targetPoint" />
            <mxPoint as="offset" />
          </mxGeometry>
        </mxCell>
        <mxCell id="YG_A0a-0bIN4n77Yev4p-229" value="[ELSE&lt;span style=&quot;background-color: initial;&quot;&gt;]&lt;/span&gt;" style="text;html=1;align=left;verticalAlign=top;whiteSpace=wrap;rounded=0;fontSize=9;" parent="1" vertex="1">
          <mxGeometry x="-403.5" y="2078.59" width="35.5" height="26.32" as="geometry" />
        </mxCell>
        <mxCell id="YG_A0a-0bIN4n77Yev4p-231" value="" style="html=1;verticalAlign=bottom;labelBackgroundColor=none;endArrow=none;endFill=0;endSize=6;align=left;rounded=0;startArrow=block;startFill=1;dashed=1;" parent="1" edge="1">
          <mxGeometry x="-1" relative="1" as="geometry">
            <mxPoint x="-325" y="2184" as="sourcePoint" />
            <mxPoint x="426" y="2184" as="targetPoint" />
            <mxPoint as="offset" />
          </mxGeometry>
        </mxCell>
        <mxCell id="YG_A0a-0bIN4n77Yev4p-232" value="Realiza el registro de la operación" style="text;html=1;align=left;verticalAlign=top;whiteSpace=wrap;rounded=0;fontSize=9;" parent="1" vertex="1">
          <mxGeometry x="440.25" y="2137.99" width="75.75" height="34.27" as="geometry" />
        </mxCell>
        <mxCell id="YG_A0a-0bIN4n77Yev4p-233" value="" style="html=1;points=[[0,0,0,0,5],[0,1,0,0,-5],[1,0,0,0,5],[1,1,0,0,-5]];perimeter=orthogonalPerimeter;outlineConnect=0;targetShapes=umlLifeline;portConstraint=eastwest;newEdgeStyle={&quot;curved&quot;:0,&quot;rounded&quot;:0};" parent="1" vertex="1">
          <mxGeometry x="425.5" y="2120" width="10" height="72.25" as="geometry" />
        </mxCell>
        <mxCell id="YG_A0a-0bIN4n77Yev4p-235" value="" style="html=1;verticalAlign=bottom;labelBackgroundColor=none;endArrow=block;endFill=1;endSize=6;align=left;rounded=0;" parent="1" edge="1">
          <mxGeometry x="-1" relative="1" as="geometry">
            <mxPoint x="-156" y="1874" as="sourcePoint" />
            <mxPoint x="22" y="1874" as="targetPoint" />
            <mxPoint as="offset" />
          </mxGeometry>
        </mxCell>
        <mxCell id="YG_A0a-0bIN4n77Yev4p-237" value="" style="html=1;verticalAlign=bottom;labelBackgroundColor=none;endArrow=block;endFill=1;endSize=6;align=left;rounded=0;" parent="1" edge="1">
          <mxGeometry x="-1" relative="1" as="geometry">
            <mxPoint x="33" y="1884.8200000000002" as="sourcePoint" />
            <mxPoint x="225" y="1884.8200000000002" as="targetPoint" />
            <mxPoint as="offset" />
          </mxGeometry>
        </mxCell>
        <mxCell id="YG_A0a-0bIN4n77Yev4p-238" value="" style="html=1;align=left;spacingLeft=2;endArrow=block;rounded=0;edgeStyle=orthogonalEdgeStyle;curved=0;rounded=0;" parent="1" edge="1">
          <mxGeometry x="-0.2922" y="20" relative="1" as="geometry">
            <mxPoint x="235" y="1890.5700000000004" as="sourcePoint" />
            <Array as="points">
              <mxPoint x="265" y="1890.6300000000003" />
              <mxPoint x="265" y="1920.63" />
            </Array>
            <mxPoint x="235" y="1920.63" as="targetPoint" />
            <mxPoint as="offset" />
          </mxGeometry>
        </mxCell>
        <mxCell id="YG_A0a-0bIN4n77Yev4p-239" value="" style="html=1;verticalAlign=bottom;labelBackgroundColor=none;endArrow=none;endFill=0;endSize=6;align=left;rounded=0;startArrow=block;startFill=1;dashed=1;" parent="1" edge="1">
          <mxGeometry x="-1" relative="1" as="geometry">
            <mxPoint x="32" y="1930" as="sourcePoint" />
            <mxPoint x="225" y="1930" as="targetPoint" />
            <mxPoint as="offset" />
          </mxGeometry>
        </mxCell>
        <mxCell id="YG_A0a-0bIN4n77Yev4p-240" value="" style="html=1;verticalAlign=bottom;labelBackgroundColor=none;endArrow=none;endFill=0;endSize=6;align=left;rounded=0;startArrow=block;startFill=1;dashed=1;" parent="1" edge="1">
          <mxGeometry x="-1" relative="1" as="geometry">
            <mxPoint x="-156" y="2016" as="sourcePoint" />
            <mxPoint x="21" y="2016" as="targetPoint" />
            <mxPoint as="offset" />
          </mxGeometry>
        </mxCell>
        <mxCell id="YG_A0a-0bIN4n77Yev4p-241" value="" style="html=1;verticalAlign=bottom;labelBackgroundColor=none;endArrow=none;endFill=0;endSize=6;align=left;rounded=0;startArrow=block;startFill=1;dashed=1;" parent="1" edge="1">
          <mxGeometry x="-1" relative="1" as="geometry">
            <mxPoint x="-324.5" y="2029.5" as="sourcePoint" />
            <mxPoint x="-166" y="2029.5" as="targetPoint" />
            <mxPoint as="offset" />
          </mxGeometry>
        </mxCell>
        <mxCell id="YG_A0a-0bIN4n77Yev4p-242" value="alt" style="shape=umlFrame;whiteSpace=wrap;html=1;pointerEvents=0;width=58;height=27;" parent="1" vertex="1">
          <mxGeometry x="-410" y="1781" width="930" height="479" as="geometry" />
        </mxCell>
        <mxCell id="YG_A0a-0bIN4n77Yev4p-243" value="Valida si es un dispositivo generado en PLARD&lt;br&gt;&lt;p style=&quot;margin-left: 20.6pt; text-indent: -0.25in; font-size: 10px;&quot; class=&quot;TableText&quot;&gt;&lt;i&gt;&lt;span style=&quot;&quot; lang=&quot;ES&quot;&gt;&lt;font style=&quot;font-size: 10px;&quot;&gt;&lt;/font&gt;&lt;/span&gt;&lt;/i&gt;&lt;/p&gt;" style="text;html=1;align=left;verticalAlign=top;whiteSpace=wrap;rounded=0;fontSize=9;" parent="1" vertex="1">
          <mxGeometry x="-402" y="1839.13" width="64" height="50.87" as="geometry" />
        </mxCell>
        <mxCell id="YG_A0a-0bIN4n77Yev4p-247" value="Valida que NO es un dispositivo generado en PLARD&lt;br&gt;&lt;p style=&quot;margin-left: 20.6pt; text-indent: -0.25in; font-size: 10px;&quot; class=&quot;TableText&quot;&gt;&lt;i&gt;&lt;span style=&quot;&quot; lang=&quot;ES&quot;&gt;&lt;font style=&quot;font-size: 10px;&quot;&gt;&lt;/font&gt;&lt;/span&gt;&lt;/i&gt;&lt;/p&gt;" style="text;html=1;align=left;verticalAlign=top;whiteSpace=wrap;rounded=0;fontSize=9;" parent="1" vertex="1">
          <mxGeometry x="-407" y="2100.25" width="69" height="48.75" as="geometry" />
        </mxCell>
        <mxCell id="YG_A0a-0bIN4n77Yev4p-249" value="" style="html=1;verticalAlign=bottom;labelBackgroundColor=none;endArrow=block;endFill=1;endSize=6;align=left;rounded=0;" parent="1" edge="1">
          <mxGeometry x="-1" relative="1" as="geometry">
            <mxPoint x="-325" y="2130" as="sourcePoint" />
            <mxPoint x="425.5" y="2130" as="targetPoint" />
            <mxPoint as="offset" />
          </mxGeometry>
        </mxCell>
        <mxCell id="YG_A0a-0bIN4n77Yev4p-251" value="Envia respuesta del registro de la operación de pago de servicio.&lt;div&gt;Trx: LMV2&lt;/div&gt;" style="text;html=1;align=left;verticalAlign=top;whiteSpace=wrap;rounded=0;fontSize=9;" parent="1" vertex="1">
          <mxGeometry x="273" y="2141" width="152.5" height="50" as="geometry" />
        </mxCell>
        <mxCell id="YG_A0a-0bIN4n77Yev4p-254" value="Recibe mensaje para registrar la operación de pago de servicio&lt;p style=&quot;margin-left: 20.6pt; text-indent: -0.25in; font-size: 10px;&quot; class=&quot;TableText&quot;&gt;&lt;i&gt;&lt;span style=&quot;&quot; lang=&quot;ES&quot;&gt;&lt;font style=&quot;font-size: 10px;&quot;&gt;&lt;/font&gt;&lt;/span&gt;&lt;/i&gt;&lt;/p&gt;" style="text;html=1;align=left;verticalAlign=top;whiteSpace=wrap;rounded=0;fontSize=9;" parent="1" vertex="1">
          <mxGeometry x="-320" y="1818" width="140" height="30" as="geometry" />
        </mxCell>
        <mxCell id="YG_A0a-0bIN4n77Yev4p-255" value="Recibe mensaje para registrar la operación de pago de servicio&lt;p style=&quot;margin-left: 20.6pt; text-indent: -0.25in; font-size: 10px;&quot; class=&quot;TableText&quot;&gt;&lt;i&gt;&lt;span style=&quot;&quot; lang=&quot;ES&quot;&gt;&lt;font style=&quot;font-size: 10px;&quot;&gt;&lt;/font&gt;&lt;/span&gt;&lt;/i&gt;&lt;/p&gt;" style="text;html=1;align=left;verticalAlign=top;whiteSpace=wrap;rounded=0;fontSize=9;" parent="1" vertex="1">
          <mxGeometry x="-150" y="1843" width="140" height="30" as="geometry" />
        </mxCell>
        <mxCell id="YG_A0a-0bIN4n77Yev4p-256" value="" style="html=1;points=[[0,0,0,0,5],[0,1,0,0,-5],[1,0,0,0,5],[1,1,0,0,-5]];perimeter=orthogonalPerimeter;outlineConnect=0;targetShapes=umlLifeline;portConstraint=eastwest;newEdgeStyle={&quot;curved&quot;:0,&quot;rounded&quot;:0};" parent="1" vertex="1">
          <mxGeometry x="-166" y="1835" width="10" height="205" as="geometry" />
        </mxCell>
        <mxCell id="YG_A0a-0bIN4n77Yev4p-257" value="Registrar la operación de pago de servicio&lt;p style=&quot;margin-left: 20.6pt; text-indent: -0.25in; font-size: 10px;&quot; class=&quot;TableText&quot;&gt;&lt;i&gt;&lt;span style=&quot;&quot; lang=&quot;ES&quot;&gt;&lt;font style=&quot;font-size: 10px;&quot;&gt;&lt;/font&gt;&lt;/span&gt;&lt;/i&gt;&lt;/p&gt;" style="text;html=1;align=left;verticalAlign=top;whiteSpace=wrap;rounded=0;fontSize=9;" parent="1" vertex="1">
          <mxGeometry x="40" y="1855" width="140" height="30" as="geometry" />
        </mxCell>
        <mxCell id="YG_A0a-0bIN4n77Yev4p-258" value="Se envia respuesta del registro de la operación de pago de servicio" style="text;html=1;align=left;verticalAlign=top;whiteSpace=wrap;rounded=0;fontSize=9;" parent="1" vertex="1">
          <mxGeometry x="-310" y="1995" width="139.75" height="36" as="geometry" />
        </mxCell>
        <mxCell id="YG_A0a-0bIN4n77Yev4p-261" value="" style="html=1;verticalAlign=bottom;labelBackgroundColor=none;endArrow=none;endFill=0;endSize=6;align=left;rounded=0;startArrow=block;startFill=1;dashed=1;" parent="1" edge="1">
          <mxGeometry x="-1" relative="1" as="geometry">
            <mxPoint x="-890" y="2204" as="sourcePoint" />
            <mxPoint x="-335" y="2204" as="targetPoint" />
            <mxPoint as="offset" />
          </mxGeometry>
        </mxCell>
        <mxCell id="YG_A0a-0bIN4n77Yev4p-262" value="" style="html=1;points=[[0,0,0,0,5],[0,1,0,0,-5],[1,0,0,0,5],[1,1,0,0,-5]];perimeter=orthogonalPerimeter;outlineConnect=0;targetShapes=umlLifeline;portConstraint=eastwest;newEdgeStyle={&quot;curved&quot;:0,&quot;rounded&quot;:0};" parent="1" vertex="1">
          <mxGeometry x="-1107" y="2212" width="10" height="40" as="geometry" />
        </mxCell>
        <mxCell id="YG_A0a-0bIN4n77Yev4p-263" value="" style="html=1;verticalAlign=bottom;labelBackgroundColor=none;endArrow=none;endFill=0;endSize=6;align=left;rounded=0;startArrow=block;startFill=1;dashed=1;" parent="1" edge="1">
          <mxGeometry x="-1" relative="1" as="geometry">
            <mxPoint x="-1097" y="2230" as="sourcePoint" />
            <mxPoint x="-901" y="2230" as="targetPoint" />
            <mxPoint as="offset" />
          </mxGeometry>
        </mxCell>
        <mxCell id="YG_A0a-0bIN4n77Yev4p-264" value="Cliente selecciona el tipo de comprobante de la operación&lt;p style=&quot;margin-left: 20.6pt; text-indent: -0.25in; font-size: 10px;&quot; class=&quot;TableText&quot;&gt;&lt;i&gt;&lt;span style=&quot;&quot; lang=&quot;ES&quot;&gt;&lt;font style=&quot;font-size: 10px;&quot;&gt;&lt;/font&gt;&lt;/span&gt;&lt;/i&gt;&lt;/p&gt;" style="text;html=1;align=left;verticalAlign=top;whiteSpace=wrap;rounded=0;fontSize=9;" parent="1" vertex="1">
          <mxGeometry x="-1030" y="2198" width="132" height="32" as="geometry" />
        </mxCell>
        <mxCell id="YG_A0a-0bIN4n77Yev4p-265" value="" style="html=1;verticalAlign=bottom;labelBackgroundColor=none;endArrow=none;endFill=0;endSize=6;align=left;rounded=0;startArrow=block;startFill=1;dashed=1;" parent="1" edge="1">
          <mxGeometry x="-1" relative="1" as="geometry">
            <mxPoint x="-890" y="2044" as="sourcePoint" />
            <mxPoint x="-335" y="2044" as="targetPoint" />
            <mxPoint as="offset" />
          </mxGeometry>
        </mxCell>
        <mxCell id="YG_A0a-0bIN4n77Yev4p-266" value="Entrega respuesta del registro de la operación de pago de servicio" style="text;html=1;align=left;verticalAlign=top;whiteSpace=wrap;rounded=0;fontSize=9;" parent="1" vertex="1">
          <mxGeometry x="-870" y="2011" width="140" height="35" as="geometry" />
        </mxCell>
        <mxCell id="YG_A0a-0bIN4n77Yev4p-268" value="Consulta limite de la operación" style="text;html=1;align=left;verticalAlign=top;whiteSpace=wrap;rounded=0;fontSize=9;" parent="1" vertex="1">
          <mxGeometry x="-148" y="402" width="132.5" height="30" as="geometry" />
        </mxCell>
        <mxCell id="YG_A0a-0bIN4n77Yev4p-269" value="Consulta limite de la operación" style="text;html=1;align=left;verticalAlign=top;whiteSpace=wrap;rounded=0;fontSize=9;" parent="1" vertex="1">
          <mxGeometry x="-318" y="375" width="132.5" height="30" as="geometry" />
        </mxCell>
        <mxCell id="YG_A0a-0bIN4n77Yev4p-270" value="Consulta limite de la operación&lt;div&gt;Trx:LMV1&lt;/div&gt;" style="text;html=1;align=left;verticalAlign=top;whiteSpace=wrap;rounded=0;fontSize=9;" parent="1" vertex="1">
          <mxGeometry x="-314.63" y="667.99" width="132.5" height="30" as="geometry" />
        </mxCell>
        <mxCell id="YG_A0a-0bIN4n77Yev4p-271" value="Registro de la operación de pago de servicios Trx: LMV2&lt;p style=&quot;margin-left: 20.6pt; text-indent: -0.25in; font-size: 10px;&quot; class=&quot;TableText&quot;&gt;&lt;i&gt;&lt;span style=&quot;&quot; lang=&quot;ES&quot;&gt;&lt;font style=&quot;font-size: 10px;&quot;&gt;&lt;/font&gt;&lt;/span&gt;&lt;/i&gt;&lt;/p&gt;" style="text;html=1;align=left;verticalAlign=top;whiteSpace=wrap;rounded=0;fontSize=9;" parent="1" vertex="1">
          <mxGeometry x="-319" y="2098" width="140" height="30" as="geometry" />
        </mxCell>
        <mxCell id="BmXZFn6FjoLjCigtO_P5-4" value="" style="group" parent="1" vertex="1" connectable="0">
          <mxGeometry x="1220" y="-1850" width="700" height="300" as="geometry" />
        </mxCell>
        <mxCell id="EIN1vjhVvRGpG4gaG_Ry-8" value="&lt;div style=&quot;font-size: 13px;&quot;&gt;Aún no disponibles&lt;/div&gt;" style="text;html=1;strokeColor=#000000;fillColor=none;align=left;verticalAlign=top;whiteSpace=wrap;rounded=0;fontSize=12;container=0;" parent="BmXZFn6FjoLjCigtO_P5-4" vertex="1">
          <mxGeometry x="1.25" y="39.1099999999999" width="698.75" height="260.89" as="geometry" />
        </mxCell>
        <mxCell id="EIN1vjhVvRGpG4gaG_Ry-7" value="API PLARD - TBD" style="rounded=0;whiteSpace=wrap;html=1;fillColor=#bac8d3;strokeColor=#23445d;fontSize=14;fontStyle=1;align=center;container=0;" parent="BmXZFn6FjoLjCigtO_P5-4" vertex="1">
          <mxGeometry width="700" height="39.11" as="geometry" />
        </mxCell>
        <mxCell id="BmXZFn6FjoLjCigtO_P5-5" value="" style="group" parent="1" vertex="1" connectable="0">
          <mxGeometry x="-1229.76" y="-1367.44" width="740" height="472.43999999999994" as="geometry" />
        </mxCell>
        <mxCell id="7OVqoEr7d0FIJibE8eMs-6" value="Escenarios" style="rounded=0;whiteSpace=wrap;html=1;fillColor=#bac8d3;strokeColor=#23445d;fontSize=14;fontStyle=1;align=center;container=0;" parent="BmXZFn6FjoLjCigtO_P5-5" vertex="1">
          <mxGeometry width="740" height="39.54" as="geometry" />
        </mxCell>
        <mxCell id="7OVqoEr7d0FIJibE8eMs-7" value="&lt;div style=&quot;font-size: 13px;&quot;&gt;&lt;b&gt;Escenario 1: Pago de servicio con Tarjeta de Débito&lt;/b&gt;&lt;br&gt;&lt;/div&gt;&lt;div style=&quot;border-color: var(--border-color); font-size: 13px;&quot;&gt;&lt;br&gt;&lt;/div&gt;&lt;div style=&quot;border-color: var(--border-color);&quot;&gt;El Cliente ingresa su tarjeta de débito en el ATM Santander, se autentica por medio del NIP, después selecciona la opción de &quot;Pagos&quot;, enseguida la opción &quot;Pago de Servicios&quot; donde tendrá la posibilidad de buscar los Servicios por &quot;Región&quot;, por servicios agregados con anterioridad y conocidos como &quot;Mis servicios&quot; o bien por &quot;Otros servicios&quot; donde se realiza la busqueda por número de convenio y referencia. Una vez elegido el Servicio captura el monto del pago y selecciona la opción de pagar.&lt;/div&gt;&lt;div style=&quot;border-color: var(--border-color);&quot;&gt;&lt;br&gt;&lt;/div&gt;&lt;div style=&quot;border-color: var(--border-color);&quot;&gt;&lt;br&gt;&lt;/div&gt;&lt;div style=&quot;border-color: var(--border-color);&quot;&gt;&lt;span style=&quot;background-color: initial;&quot;&gt;Se realizan las siguientes validaciones:&lt;/span&gt;&lt;br&gt;&lt;/div&gt;&lt;div style=&quot;border-color: var(--border-color);&quot;&gt;&lt;ul&gt;&lt;li&gt;&lt;span style=&quot;background-color: initial;&quot;&gt;Validar que solo se puedan pagar servicios autorizados por Santander, es decir que sea válido y este disponible para pagos&lt;/span&gt;&lt;/li&gt;&lt;li&gt;&lt;span style=&quot;background-color: initial;&quot;&gt;Verificar que el monto del pago es correcto y este dentro de los limites minimos y máximos permitidos&lt;/span&gt;&lt;br&gt;&lt;/li&gt;&lt;li&gt;&lt;span style=&quot;background-color: initial;&quot;&gt;Validar que la cuenta del Cliente tenga saldo suficiente para realizar el pago&lt;/span&gt;&lt;/li&gt;&lt;/ul&gt;&lt;div&gt;Respuesta exitosa&lt;/div&gt;&lt;ul&gt;&lt;li&gt;&lt;span style=&quot;background-color: initial;&quot;&gt;Si todo esta OK, se confirma pago exitoso por medio de una notificación al Cliente con una impresión del comprobante del pago, se actualiza la cuenta del Cliente descontando con el monto del pago, por ultimo se actualizan limites de operación y se registra la operación en un historial de pagos&lt;/span&gt;&lt;/li&gt;&lt;/ul&gt;&lt;div&gt;Respuesta con error&lt;/div&gt;&lt;ul&gt;&lt;li&gt;Si hay alguna inconsistencia, el flujo termina y devuelve el mensaje de error.&lt;/li&gt;&lt;ul&gt;&lt;li&gt;&lt;span style=&quot;background-color: initial;&quot;&gt;Si el sistema detecta algún error del servicio (convenio no válido, servicio fuera de horario u otra causa), el Cliente debe ser notificado y el pago no debe ser realizado&lt;/span&gt;&lt;br&gt;&lt;/li&gt;&lt;li&gt;&lt;span style=&quot;background-color: initial;&quot;&gt;Si el sistema detecta algún error de limites no validos, el Cliente debe ser notificado y el pago no debe ser realizado&lt;/span&gt;&lt;br&gt;&lt;/li&gt;&lt;li&gt;Si el sistema detecta algún error de autenticación (NIP no valido, ARQC de la tarjeta sin aprobación), el Cliente debe ser notificado y el pago no debe ser realizado&lt;/li&gt;&lt;/ul&gt;&lt;/ul&gt;&lt;/div&gt;" style="text;html=1;strokeColor=#000000;fillColor=none;align=left;verticalAlign=top;whiteSpace=wrap;rounded=0;fontSize=12;container=0;" parent="BmXZFn6FjoLjCigtO_P5-5" vertex="1">
          <mxGeometry x="0.25" y="39.539999999999964" width="739.75" height="432.9" as="geometry" />
        </mxCell>
        <mxCell id="BmXZFn6FjoLjCigtO_P5-6" value="" style="group" parent="1" vertex="1" connectable="0">
          <mxGeometry x="-1233" y="-1851" width="740" height="455.6438356164383" as="geometry" />
        </mxCell>
        <mxCell id="7OVqoEr7d0FIJibE8eMs-3" value="&lt;div style=&quot;font-size: 12px;&quot;&gt;&lt;div&gt;&lt;b&gt;Funcionalidad&lt;/b&gt;: Permite a los Clientes realizar pagos de servicios mediante el uso de su tarjeta de débito en ATM&amp;nbsp;&lt;span style=&quot;background-color: initial;&quot;&gt;Santander.&lt;/span&gt;&lt;/div&gt;&lt;/div&gt;&lt;div style=&quot;font-size: 12px;&quot;&gt;&lt;br&gt;&lt;/div&gt;&lt;div style=&quot;&quot;&gt;&lt;b style=&quot;font-size: 12px;&quot;&gt;Alcance&lt;/b&gt;: MPV-Full Debit&amp;nbsp;&lt;span style=&quot;text-align: center; background-color: initial;&quot;&gt;&lt;font style=&quot;font-size: 12px;&quot;&gt;Pago de servicios en ATM&lt;/font&gt;&lt;/span&gt;&lt;/div&gt;&lt;div style=&quot;font-size: 12px;&quot;&gt;&lt;br&gt;&lt;/div&gt;&lt;div style=&quot;font-size: 12px;&quot;&gt;&lt;b&gt;Reglas de Negocio:&lt;/b&gt;&amp;nbsp;&lt;/div&gt;&lt;div style=&quot;&quot;&gt;&lt;div style=&quot;&quot;&gt;&lt;ul&gt;&lt;li&gt;Solo aplica para tarjetas de débito&lt;/li&gt;&lt;li&gt;La tarjeta de débito debe estar activa y sin bloqueos&lt;/li&gt;&lt;li&gt;Validar que la tarjeta de débito tenga saldo disponible y suficiente para realizar el pago de servicio&lt;/li&gt;&lt;li&gt;Verificar si el servicio seleccionado por el Cliente es válido para la región o bien sea un servicio que este dentro de los convenidos con Santander&lt;/li&gt;&lt;li&gt;Validar que no se supere los limites de pago establecidos por operación, por día o por mes&lt;/li&gt;&lt;/ul&gt;&lt;/div&gt;&lt;div style=&quot;&quot;&gt;&lt;b&gt;Precondiciones&lt;/b&gt;&lt;/div&gt;&lt;div style=&quot;&quot;&gt;&lt;ul&gt;&lt;li&gt;&lt;span style=&quot;background-color: initial;&quot;&gt;Cliente Santander&amp;nbsp;&lt;/span&gt;debe tener una tarjeta de débito activa y sin bloqueos&lt;/li&gt;&lt;/ul&gt;&lt;/div&gt;&lt;div style=&quot;&quot;&gt;&lt;b&gt;Post-Condiciones&lt;/b&gt;&lt;/div&gt;&lt;div style=&quot;&quot;&gt;&lt;ul&gt;&lt;li&gt;Pago de servicio exitoso&lt;/li&gt;&lt;li&gt;El sistema registra la transacción del pago y actualiza cuenta del cliente&lt;/li&gt;&lt;li&gt;El sistema registra la operación y monto, para el uso de la consulta de limites máximos al día&lt;/li&gt;&lt;/ul&gt;&lt;/div&gt;&lt;div style=&quot;&quot;&gt;&lt;b&gt;Premisas:&lt;/b&gt;&lt;/div&gt;&lt;div style=&quot;&quot;&gt;&lt;ul&gt;&lt;li&gt;&lt;span style=&quot;background-color: initial;&quot;&gt;Cliente TDD Santander con una tarjeta física de débito requiera hacer uso de un ATM Santander para el pago de Servicios&lt;br&gt;&lt;/span&gt;&lt;/li&gt;&lt;/ul&gt;&lt;/div&gt;&lt;/div&gt;" style="text;html=1;strokeColor=#000000;fillColor=none;align=left;verticalAlign=top;whiteSpace=wrap;rounded=0;fontSize=12;container=0;" parent="BmXZFn6FjoLjCigtO_P5-6" vertex="1">
          <mxGeometry y="40.11712328767135" width="740" height="415.526712328767" as="geometry" />
        </mxCell>
        <mxCell id="7OVqoEr7d0FIJibE8eMs-4" value="Funcionalidad" style="rounded=0;whiteSpace=wrap;html=1;fillColor=#BAC8D3;strokeColor=#23445d;fontSize=14;fontStyle=1;container=0;" parent="BmXZFn6FjoLjCigtO_P5-6" vertex="1">
          <mxGeometry width="740" height="40" as="geometry" />
        </mxCell>
        <mxCell id="EIN1vjhVvRGpG4gaG_Ry-1" value="Transacciones" style="rounded=0;whiteSpace=wrap;html=1;fillColor=#bac8d3;strokeColor=#23445d;fontSize=14;fontStyle=1;align=center;container=0;" parent="1" vertex="1">
          <mxGeometry x="-441.25" y="-1850" width="1611.25" height="38.77" as="geometry" />
        </mxCell>
        <mxCell id="BmXZFn6FjoLjCigtO_P5-20" value="" style="group" parent="1" vertex="1" connectable="0">
          <mxGeometry x="-406" y="-1781" width="740" height="493" as="geometry" />
        </mxCell>
        <mxCell id="BmXZFn6FjoLjCigtO_P5-8" value="Transacción Altair 390: LMV1" style="rounded=0;whiteSpace=wrap;html=1;fillColor=#bac8d3;strokeColor=#23445d;fontSize=14;fontStyle=1;verticalAlign=middle;container=0;" parent="BmXZFn6FjoLjCigtO_P5-20" vertex="1">
          <mxGeometry width="739" height="42" as="geometry" />
        </mxCell>
        <mxCell id="BmXZFn6FjoLjCigtO_P5-9" value="&lt;br&gt;&lt;div data-ccp-timestamp=&quot;1737018398220&quot;&gt;&lt;table style=&quot;border-collapse:collapse;width:375pt&quot; width=&quot;500&quot;&gt;&lt;colgroup&gt;&lt;col style=&quot;width:17pt&quot; width=&quot;23&quot;&gt;&lt;col style=&quot;width:53pt&quot; width=&quot;71&quot;&gt;&lt;col style=&quot;width:113pt&quot; width=&quot;150&quot;&gt;&lt;col span=&quot;4&quot; style=&quot;width:48pt&quot; width=&quot;64&quot;&gt;&lt;/colgroup&gt;&lt;tbody&gt;&lt;tr style=&quot;height:15.0pt&quot; height=&quot;20&quot;&gt;&lt;td style=&quot;width:17pt;height:15.0pt&quot; class=&quot;xl19&quot; height=&quot;20&quot; width=&quot;23&quot;&gt;&lt;/td&gt;&lt;td style=&quot;width:53pt&quot; class=&quot;xl20&quot; width=&quot;71&quot;&gt;&lt;b&gt;CAMPO&lt;/b&gt;&lt;/td&gt;&lt;td style=&quot;width:113pt&quot; class=&quot;xl20&quot; width=&quot;150&quot;&gt;&lt;b&gt;DESCRIPCION&lt;/b&gt;&lt;/td&gt;&lt;td style=&quot;width:48pt&quot; class=&quot;xl20&quot; width=&quot;64&quot;&gt;&lt;b&gt;DELIM&lt;/b&gt;&lt;/td&gt;&lt;td style=&quot;width:48pt&quot; class=&quot;xl20&quot; width=&quot;64&quot;&gt;&lt;b&gt;ATT&lt;/b&gt;&lt;/td&gt;&lt;td style=&quot;width:48pt&quot; class=&quot;xl20&quot; width=&quot;64&quot;&gt;&lt;b&gt;LNG&lt;/b&gt;&lt;/td&gt;&lt;td style=&quot;width:48pt&quot; class=&quot;xl21&quot; width=&quot;64&quot;&gt;&lt;b&gt;TIP&lt;/b&gt;&lt;/td&gt;&lt;/tr&gt;&lt;tr style=&quot;height:15.0pt&quot; height=&quot;20&quot;&gt;&lt;td style=&quot;width:17pt;height:15.0pt&quot; align=&quot;right&quot; class=&quot;xl17&quot; height=&quot;20&quot; width=&quot;23&quot;&gt;1&lt;/td&gt;&lt;td class=&quot;xl18&quot;&gt;PAN&lt;/td&gt;&lt;td class=&quot;xl18&quot;&gt;NUMERO DE TARJETA&lt;/td&gt;&lt;td class=&quot;xl82&quot;&gt;1&lt;/td&gt;&lt;td class=&quot;xl82&quot;&gt;A&lt;/td&gt;&lt;td class=&quot;xl82&quot;&gt;22&lt;/td&gt;&lt;td class=&quot;xl83&quot;&gt;O&lt;/td&gt;&lt;/tr&gt;&lt;tr style=&quot;height:15.0pt&quot; height=&quot;20&quot;&gt;&lt;td style=&quot;width:17pt;height:15.0pt&quot; align=&quot;right&quot; class=&quot;xl17&quot; height=&quot;20&quot; width=&quot;23&quot;&gt;2&lt;/td&gt;&lt;td class=&quot;xl18&quot;&gt;LIMDIAC&lt;/td&gt;&lt;td class=&quot;xl18&quot;&gt;LIMITE DIA CAJERO&lt;/td&gt;&lt;td class=&quot;xl82&quot;&gt;2&lt;/td&gt;&lt;td class=&quot;xl82&quot;&gt;J&lt;/td&gt;&lt;td class=&quot;xl82&quot;&gt;17,2&lt;/td&gt;&lt;td class=&quot;xl83&quot;&gt;O&lt;/td&gt;&lt;/tr&gt;&lt;tr style=&quot;height:15.0pt&quot; height=&quot;20&quot;&gt;&lt;td style=&quot;width:17pt;height:15.0pt&quot; align=&quot;right&quot; class=&quot;xl17&quot; height=&quot;20&quot; width=&quot;23&quot;&gt;3&lt;/td&gt;&lt;td class=&quot;xl18&quot;&gt;SALDIAC&lt;/td&gt;&lt;td class=&quot;xl18&quot;&gt;SALDO DIA CAJERO&lt;/td&gt;&lt;td class=&quot;xl82&quot;&gt;3&lt;/td&gt;&lt;td class=&quot;xl82&quot;&gt;J&lt;/td&gt;&lt;td class=&quot;xl82&quot;&gt;17,2&lt;/td&gt;&lt;td class=&quot;xl83&quot;&gt;O&lt;/td&gt;&lt;/tr&gt;&lt;tr style=&quot;height:15.0pt&quot; height=&quot;20&quot;&gt;&lt;td style=&quot;width:17pt;height:15.0pt&quot; align=&quot;right&quot; class=&quot;xl17&quot; height=&quot;20&quot; width=&quot;23&quot;&gt;4&lt;/td&gt;&lt;td class=&quot;xl18&quot;&gt;INDSITT&lt;/td&gt;&lt;td class=&quot;xl18&quot;&gt;IND. SITUACION TARJ.&lt;/td&gt;&lt;td class=&quot;xl82&quot;&gt;7&lt;/td&gt;&lt;td class=&quot;xl82&quot;&gt;J&lt;/td&gt;&lt;td class=&quot;xl82&quot;&gt;2&lt;/td&gt;&lt;td class=&quot;xl83&quot;&gt;O&lt;/td&gt;&lt;/tr&gt;&lt;tr style=&quot;height:15.0pt&quot; height=&quot;20&quot;&gt;&lt;td style=&quot;width:17pt;height:15.0pt&quot; align=&quot;right&quot; class=&quot;xl17&quot; height=&quot;20&quot; width=&quot;23&quot;&gt;5&lt;/td&gt;&lt;td class=&quot;xl18&quot;&gt;CODBLQ&lt;/td&gt;&lt;td class=&quot;xl18&quot;&gt;CODIGO DE BLOQUEO&lt;/td&gt;&lt;td class=&quot;xl82&quot;&gt;8&lt;/td&gt;&lt;td class=&quot;xl82&quot;&gt;J&lt;/td&gt;&lt;td class=&quot;xl82&quot;&gt;2&lt;/td&gt;&lt;td class=&quot;xl83&quot;&gt;O&lt;/td&gt;&lt;/tr&gt;&lt;tr style=&quot;height:15.0pt&quot; height=&quot;20&quot;&gt;&lt;td style=&quot;width:17pt;height:15.0pt&quot; align=&quot;right&quot; class=&quot;xl17&quot; height=&quot;20&quot; width=&quot;23&quot;&gt;6&lt;/td&gt;&lt;td class=&quot;xl18&quot;&gt;EMPRESA&lt;/td&gt;&lt;td class=&quot;xl18&quot;&gt;CLAVE DE LA EMPRESA&lt;/td&gt;&lt;td class=&quot;xl82&quot;&gt;4&lt;/td&gt;&lt;td class=&quot;xl82&quot;&gt;A&lt;/td&gt;&lt;td class=&quot;xl82&quot;&gt;4&lt;/td&gt;&lt;td class=&quot;xl83&quot;&gt;O&lt;/td&gt;&lt;/tr&gt;&lt;tr style=&quot;height:15.0pt&quot; height=&quot;20&quot;&gt;&lt;td style=&quot;width:17pt;height:15.0pt&quot; align=&quot;right&quot; class=&quot;xl17&quot; height=&quot;20&quot; width=&quot;23&quot;&gt;7&lt;/td&gt;&lt;td class=&quot;xl18&quot;&gt;CANOPER&lt;/td&gt;&lt;td class=&quot;xl18&quot;&gt;CANAL OPERATIVO&lt;/td&gt;&lt;td class=&quot;xl82&quot;&gt;5&lt;/td&gt;&lt;td class=&quot;xl82&quot;&gt;A&lt;/td&gt;&lt;td class=&quot;xl82&quot;&gt;2&lt;/td&gt;&lt;td class=&quot;xl83&quot;&gt;O&lt;/td&gt;&lt;/tr&gt;&lt;tr style=&quot;height:15.0pt&quot; height=&quot;20&quot;&gt;&lt;td style=&quot;width:17pt;height:15.0pt&quot; align=&quot;right&quot; class=&quot;xl17&quot; height=&quot;20&quot; width=&quot;23&quot;&gt;8&lt;/td&gt;&lt;td class=&quot;xl18&quot;&gt;CANCOME&lt;/td&gt;&lt;td class=&quot;xl18&quot;&gt;CANAL COMERCIALIZ&lt;/td&gt;&lt;td class=&quot;xl82&quot;&gt;6&lt;/td&gt;&lt;td class=&quot;xl82&quot;&gt;A&lt;/td&gt;&lt;td class=&quot;xl82&quot;&gt;2&lt;/td&gt;&lt;td class=&quot;xl83&quot;&gt;O&lt;/td&gt;&lt;/tr&gt;&lt;/tbody&gt;&lt;/table&gt;&lt;/div&gt;&lt;div&gt;&lt;br/&gt;&lt;/div&gt;" style="text;whiteSpace=wrap;html=1;strokeColor=default;container=0;" parent="BmXZFn6FjoLjCigtO_P5-20" vertex="1">
          <mxGeometry y="262" width="740" height="231" as="geometry" />
        </mxCell>
        <mxCell id="BmXZFn6FjoLjCigtO_P5-10" value="&lt;br&gt;&lt;div data-ccp-timestamp=&quot;1737018384096&quot;&gt;&lt;table style=&quot;border-collapse:collapse;width:497pt&quot; width=&quot;663&quot;&gt;&lt;colgroup&gt;&lt;col style=&quot;width:17pt&quot; width=&quot;23&quot;&gt;&lt;col style=&quot;width:53pt&quot; width=&quot;71&quot;&gt;&lt;col style=&quot;width:113pt&quot; width=&quot;150&quot;&gt;&lt;col span=&quot;4&quot; style=&quot;width:48pt&quot; width=&quot;64&quot;&gt;&lt;col style=&quot;width:122pt&quot; width=&quot;163&quot;&gt;&lt;/colgroup&gt;&lt;tbody&gt;&lt;tr style=&quot;height:15.0pt&quot; height=&quot;20&quot;&gt;&lt;td style=&quot;width:17pt;height:15.0pt&quot; class=&quot;xl20&quot; height=&quot;20&quot; width=&quot;23&quot;&gt;&lt;/td&gt;&lt;td style=&quot;width:53pt&quot; class=&quot;xl27&quot; width=&quot;71&quot;&gt;&lt;b&gt;CAMPO&lt;/b&gt;&lt;/td&gt;&lt;td style=&quot;width:113pt&quot; class=&quot;xl20&quot; width=&quot;150&quot;&gt;&lt;b&gt;DESCRIPCION&lt;/b&gt;&lt;/td&gt;&lt;td style=&quot;width:48pt&quot; class=&quot;xl28&quot; width=&quot;64&quot;&gt;&lt;b&gt;DELIM&lt;/b&gt;&lt;/td&gt;&lt;td style=&quot;width:48pt&quot; class=&quot;xl20&quot; width=&quot;64&quot;&gt;&lt;b&gt;ATT&lt;/b&gt;&lt;/td&gt;&lt;td style=&quot;width:48pt&quot; class=&quot;xl20&quot; width=&quot;64&quot;&gt;&lt;b&gt;LNG&lt;/b&gt;&lt;/td&gt;&lt;td style=&quot;width:48pt&quot; class=&quot;xl21&quot; width=&quot;64&quot;&gt;&lt;b&gt;TIP&lt;/b&gt;&lt;/td&gt;&lt;td style=&quot;width:122pt&quot; class=&quot;xl24&quot; width=&quot;163&quot;&gt;&lt;b&gt;NOMBRE DEL OBJETO&lt;/b&gt;&lt;/td&gt;&lt;/tr&gt;&lt;tr style=&quot;height:15.0pt&quot; height=&quot;20&quot;&gt;&lt;td style=&quot;width:17pt;height:15.0pt&quot; align=&quot;right&quot; class=&quot;xl17&quot; height=&quot;20&quot; width=&quot;23&quot;&gt;1&lt;/td&gt;&lt;td class=&quot;xl18&quot;&gt;PAN&lt;/td&gt;&lt;td class=&quot;xl29&quot;&gt;NUMERO DE TARJETA&lt;/td&gt;&lt;td class=&quot;xl82&quot;&gt;1&lt;/td&gt;&lt;td class=&quot;xl82&quot;&gt;A&lt;/td&gt;&lt;td class=&quot;xl82&quot;&gt;22&lt;/td&gt;&lt;td class=&quot;xl83&quot;&gt;O&lt;/td&gt;&lt;td class=&quot;xl25&quot;&gt;cardId&lt;/td&gt;&lt;/tr&gt;&lt;tr style=&quot;height:15.0pt&quot; height=&quot;20&quot;&gt;&lt;td style=&quot;width:17pt;height:15.0pt&quot; align=&quot;right&quot; class=&quot;xl17&quot; height=&quot;20&quot; width=&quot;23&quot;&gt;2&lt;/td&gt;&lt;td class=&quot;xl18&quot;&gt;EMPRESA&lt;/td&gt;&lt;td class=&quot;xl18&quot;&gt;CLAVE DE LA EMPRESA&lt;/td&gt;&lt;td class=&quot;xl82&quot;&gt;2&lt;/td&gt;&lt;td class=&quot;xl82&quot;&gt;A&lt;/td&gt;&lt;td class=&quot;xl82&quot;&gt;4&lt;/td&gt;&lt;td class=&quot;xl83&quot;&gt;O&lt;/td&gt;&lt;td class=&quot;xl25&quot;&gt;&lt;/td&gt;&lt;/tr&gt;&lt;tr style=&quot;height:15.0pt&quot; height=&quot;20&quot;&gt;&lt;td style=&quot;width:17pt;height:15.0pt&quot; align=&quot;right&quot; class=&quot;xl17&quot; height=&quot;20&quot; width=&quot;23&quot;&gt;3&lt;/td&gt;&lt;td class=&quot;xl18&quot;&gt;CANOPER&lt;/td&gt;&lt;td class=&quot;xl18&quot;&gt;CANAL OPERATIVO&lt;/td&gt;&lt;td class=&quot;xl82&quot;&gt;3&lt;/td&gt;&lt;td class=&quot;xl82&quot;&gt;A&lt;/td&gt;&lt;td class=&quot;xl82&quot;&gt;2&lt;/td&gt;&lt;td class=&quot;xl83&quot;&gt;O&lt;/td&gt;&lt;td class=&quot;xl25&quot;&gt;&lt;/td&gt;&lt;/tr&gt;&lt;tr style=&quot;height:15.0pt&quot; height=&quot;20&quot;&gt;&lt;td style=&quot;width:17pt;height:15.0pt&quot; align=&quot;right&quot; class=&quot;xl17&quot; height=&quot;20&quot; width=&quot;23&quot;&gt;4&lt;/td&gt;&lt;td class=&quot;xl18&quot;&gt;CANCOME&lt;/td&gt;&lt;td class=&quot;xl18&quot;&gt;CANAL COMERCIALIZ&lt;/td&gt;&lt;td class=&quot;xl82&quot;&gt;4&lt;/td&gt;&lt;td class=&quot;xl82&quot;&gt;A&lt;/td&gt;&lt;td class=&quot;xl82&quot;&gt;2&lt;/td&gt;&lt;td class=&quot;xl83&quot;&gt;O&lt;/td&gt;&lt;td class=&quot;xl25&quot;&gt;&lt;/td&gt;&lt;/tr&gt;&lt;/tbody&gt;&lt;/table&gt;&lt;/div&gt;&lt;div&gt;&lt;br/&gt;&lt;/div&gt;" style="text;whiteSpace=wrap;html=1;strokeColor=default;container=0;" parent="BmXZFn6FjoLjCigtO_P5-20" vertex="1">
          <mxGeometry y="80" width="739" height="141" as="geometry" />
        </mxCell>
        <mxCell id="BmXZFn6FjoLjCigtO_P5-11" value="Formato de entrada:" style="rounded=0;whiteSpace=wrap;html=1;fillColor=#EEEEEE;strokeColor=#23445d;fontSize=14;fontStyle=1;align=left;container=0;" parent="BmXZFn6FjoLjCigtO_P5-20" vertex="1">
          <mxGeometry y="42" width="739" height="39.11" as="geometry" />
        </mxCell>
        <mxCell id="BmXZFn6FjoLjCigtO_P5-12" value="Formato de salida:" style="rounded=0;whiteSpace=wrap;html=1;fillColor=#EEEEEE;strokeColor=#23445d;fontSize=14;fontStyle=1;align=left;container=0;" parent="BmXZFn6FjoLjCigtO_P5-20" vertex="1">
          <mxGeometry y="222" width="740" height="39.11" as="geometry" />
        </mxCell>
        <mxCell id="BmXZFn6FjoLjCigtO_P5-21" value="" style="group" parent="1" vertex="1" connectable="0">
          <mxGeometry x="384" y="-1782" width="740" height="861" as="geometry" />
        </mxCell>
        <mxCell id="BmXZFn6FjoLjCigtO_P5-14" value="Transacción Altair 390: LMV2" style="rounded=0;whiteSpace=wrap;html=1;fillColor=#bac8d3;strokeColor=#23445d;fontSize=14;fontStyle=1;verticalAlign=middle;container=0;" parent="BmXZFn6FjoLjCigtO_P5-21" vertex="1">
          <mxGeometry width="739" height="42" as="geometry" />
        </mxCell>
        <mxCell id="BmXZFn6FjoLjCigtO_P5-15" value="No hay Salidas identificadas" style="text;whiteSpace=wrap;html=1;strokeColor=default;container=0;" parent="BmXZFn6FjoLjCigtO_P5-21" vertex="1">
          <mxGeometry y="822" width="740" height="39" as="geometry" />
        </mxCell>
        <UserObject label="&lt;br&gt;&lt;div data-ccp-timestamp=&quot;1737018575446&quot;&gt;&lt;table style=&quot;border-collapse:collapse;width:519pt&quot; width=&quot;692&quot;&gt;&lt;colgroup&gt;&lt;col style=&quot;width:23pt&quot; width=&quot;31&quot;&gt;&lt;col style=&quot;width:56pt&quot; width=&quot;75&quot;&gt;&lt;col style=&quot;width:123pt&quot; width=&quot;164&quot;&gt;&lt;col style=&quot;width:33pt&quot; width=&quot;44&quot;&gt;&lt;col style=&quot;width:20pt&quot; width=&quot;27&quot;&gt;&lt;col style=&quot;width:24pt&quot; width=&quot;32&quot;&gt;&lt;col style=&quot;width:18pt&quot; width=&quot;24&quot;&gt;&lt;col style=&quot;width:221pt&quot; width=&quot;295&quot;&gt;&lt;/colgroup&gt;&lt;tbody&gt;&lt;tr style=&quot;height:15.0pt&quot; height=&quot;20&quot;&gt;&lt;td style=&quot;width:23pt;height:15.0pt&quot; class=&quot;xl19&quot; height=&quot;20&quot; width=&quot;31&quot;&gt;&lt;b&gt;N&lt;/b&gt;&lt;/td&gt;&lt;td style=&quot;width:56pt&quot; class=&quot;xl20&quot; width=&quot;75&quot;&gt;&lt;b&gt;CAMPO&lt;/b&gt;&lt;/td&gt;&lt;td style=&quot;width:123pt&quot; class=&quot;xl20&quot; width=&quot;164&quot;&gt;&lt;b&gt;DESCRIPCION&lt;/b&gt;&lt;/td&gt;&lt;td style=&quot;width:33pt&quot; class=&quot;xl20&quot; width=&quot;44&quot;&gt;&lt;b&gt;DELIM&lt;/b&gt;&lt;/td&gt;&lt;td style=&quot;width:20pt&quot; class=&quot;xl20&quot; width=&quot;27&quot;&gt;&lt;b&gt;ATT&lt;/b&gt;&lt;/td&gt;&lt;td style=&quot;width:24pt&quot; class=&quot;xl20&quot; width=&quot;32&quot;&gt;&lt;b&gt;LNG&lt;/b&gt;&lt;/td&gt;&lt;td style=&quot;width:18pt&quot; class=&quot;xl21&quot; width=&quot;24&quot;&gt;&lt;b&gt;TIP&lt;/b&gt;&lt;/td&gt;&lt;td style=&quot;width:221pt&quot; class=&quot;xl24&quot; width=&quot;295&quot;&gt;&lt;b&gt;NOMBRE DEL OBJETO&lt;/b&gt;&lt;/td&gt;&lt;/tr&gt;&lt;tr style=&quot;height:15.0pt&quot; height=&quot;20&quot;&gt;&lt;td style=&quot;width:23pt;height:15.0pt&quot; align=&quot;right&quot; class=&quot;xl17&quot; height=&quot;20&quot; width=&quot;31&quot;&gt;1&lt;/td&gt;&lt;td class=&quot;xl18&quot;&gt;TDD&lt;/td&gt;&lt;td class=&quot;xl18&quot;&gt;NUM_TARJETA_DEBITO&lt;/td&gt;&lt;td align=&quot;right&quot; class=&quot;xl18&quot;&gt;1&lt;/td&gt;&lt;td class=&quot;xl18&quot;&gt;A&lt;/td&gt;&lt;td align=&quot;right&quot; class=&quot;xl18&quot;&gt;22&lt;/td&gt;&lt;td class=&quot;xl22&quot;&gt;R&lt;/td&gt;&lt;td class=&quot;xl25&quot;&gt;cardId&lt;/td&gt;&lt;/tr&gt;&lt;tr style=&quot;height:15.0pt&quot; height=&quot;20&quot;&gt;&lt;td style=&quot;width:23pt;height:15.0pt&quot; align=&quot;right&quot; class=&quot;xl17&quot; height=&quot;20&quot; width=&quot;31&quot;&gt;2&lt;/td&gt;&lt;td class=&quot;xl18&quot;&gt;CANAL&lt;/td&gt;&lt;td class=&quot;xl18&quot;&gt;CLAVE_DE_CANAL&lt;/td&gt;&lt;td align=&quot;right&quot; class=&quot;xl18&quot;&gt;2&lt;/td&gt;&lt;td class=&quot;xl18&quot;&gt;A&lt;/td&gt;&lt;td align=&quot;right&quot; class=&quot;xl18&quot;&gt;4&lt;/td&gt;&lt;td class=&quot;xl22&quot;&gt;R&lt;/td&gt;&lt;td class=&quot;xl25&quot;&gt;&lt;/td&gt;&lt;/tr&gt;&lt;tr style=&quot;height:15.0pt&quot; height=&quot;20&quot;&gt;&lt;td style=&quot;width:23pt;height:15.0pt&quot; align=&quot;right&quot; class=&quot;xl17&quot; height=&quot;20&quot; width=&quot;31&quot;&gt;3&lt;/td&gt;&lt;td class=&quot;xl18&quot;&gt;CODMENS&lt;/td&gt;&lt;td class=&quot;xl18&quot;&gt;CODIGO_DE_MENSAJE&lt;/td&gt;&lt;td align=&quot;right&quot; class=&quot;xl18&quot;&gt;3&lt;/td&gt;&lt;td class=&quot;xl18&quot;&gt;N&lt;/td&gt;&lt;td align=&quot;right&quot; class=&quot;xl18&quot;&gt;4&lt;/td&gt;&lt;td class=&quot;xl22&quot;&gt;R&lt;/td&gt;&lt;td class=&quot;xl25&quot;&gt;&lt;/td&gt;&lt;/tr&gt;&lt;tr style=&quot;height:15.0pt&quot; height=&quot;20&quot;&gt;&lt;td style=&quot;width:23pt;height:15.0pt&quot; align=&quot;right&quot; class=&quot;xl17&quot; height=&quot;20&quot; width=&quot;31&quot;&gt;4&lt;/td&gt;&lt;td class=&quot;xl18&quot;&gt;CODPROC&lt;/td&gt;&lt;td class=&quot;xl18&quot;&gt;CODIGO_DE_PROCESO&lt;/td&gt;&lt;td align=&quot;right&quot; class=&quot;xl18&quot;&gt;4&lt;/td&gt;&lt;td class=&quot;xl18&quot;&gt;N&lt;/td&gt;&lt;td align=&quot;right&quot; class=&quot;xl18&quot;&gt;6&lt;/td&gt;&lt;td class=&quot;xl22&quot;&gt;R&lt;/td&gt;&lt;td class=&quot;xl25&quot;&gt;&lt;/td&gt;&lt;/tr&gt;&lt;tr style=&quot;height:15.0pt&quot; height=&quot;20&quot;&gt;&lt;td style=&quot;width:23pt;height:15.0pt&quot; align=&quot;right&quot; class=&quot;xl17&quot; height=&quot;20&quot; width=&quot;31&quot;&gt;5&lt;/td&gt;&lt;td class=&quot;xl18&quot;&gt;IMPTRN&lt;/td&gt;&lt;td class=&quot;xl18&quot;&gt;IMPORTE_TRANSACCION&lt;/td&gt;&lt;td align=&quot;right&quot; class=&quot;xl18&quot;&gt;5&lt;/td&gt;&lt;td class=&quot;xl18&quot;&gt;N&lt;/td&gt;&lt;td align=&quot;right&quot; class=&quot;xl18&quot;&gt;12&lt;/td&gt;&lt;td class=&quot;xl22&quot;&gt;R&lt;/td&gt;&lt;td class=&quot;xl25&quot;&gt;amount&lt;/td&gt;&lt;/tr&gt;&lt;tr style=&quot;height:15.0pt&quot; height=&quot;20&quot;&gt;&lt;td style=&quot;width:23pt;height:15.0pt&quot; align=&quot;right&quot; class=&quot;xl17&quot; height=&quot;20&quot; width=&quot;31&quot;&gt;6&lt;/td&gt;&lt;td class=&quot;xl18&quot;&gt;IDCOMER&lt;/td&gt;&lt;td class=&quot;xl18&quot;&gt;ID_COMERCIO&lt;/td&gt;&lt;td align=&quot;right&quot; class=&quot;xl18&quot;&gt;6&lt;/td&gt;&lt;td class=&quot;xl18&quot;&gt;A&lt;/td&gt;&lt;td align=&quot;right&quot; class=&quot;xl18&quot;&gt;15&lt;/td&gt;&lt;td class=&quot;xl22&quot;&gt;R&lt;/td&gt;&lt;td class=&quot;xl25&quot;&gt;merchant.merchantId&lt;/td&gt;&lt;/tr&gt;&lt;tr style=&quot;height:15.0pt&quot; height=&quot;20&quot;&gt;&lt;td style=&quot;width:23pt;height:15.0pt&quot; align=&quot;right&quot; class=&quot;xl17&quot; height=&quot;20&quot; width=&quot;31&quot;&gt;7&lt;/td&gt;&lt;td class=&quot;xl18&quot;&gt;NOMCOMR&lt;/td&gt;&lt;td class=&quot;xl18&quot;&gt;NOM._DIR._COMERCIO&lt;/td&gt;&lt;td align=&quot;right&quot; class=&quot;xl18&quot;&gt;7&lt;/td&gt;&lt;td class=&quot;xl18&quot;&gt;A&lt;/td&gt;&lt;td align=&quot;right&quot; class=&quot;xl18&quot;&gt;50&lt;/td&gt;&lt;td class=&quot;xl22&quot;&gt;R&lt;/td&gt;&lt;td class=&quot;xl25&quot;&gt;merchant.name + merchant.locationReference&lt;/td&gt;&lt;/tr&gt;&lt;tr style=&quot;height:15.0pt&quot; height=&quot;20&quot;&gt;&lt;td style=&quot;width:23pt;height:15.0pt&quot; align=&quot;right&quot; class=&quot;xl17&quot; height=&quot;20&quot; width=&quot;31&quot;&gt;8&lt;/td&gt;&lt;td class=&quot;xl18&quot;&gt;NOMPOB&lt;/td&gt;&lt;td class=&quot;xl18&quot;&gt;NOMBRE_PROBLACION&lt;/td&gt;&lt;td align=&quot;right&quot; class=&quot;xl18&quot;&gt;8&lt;/td&gt;&lt;td class=&quot;xl18&quot;&gt;A&lt;/td&gt;&lt;td align=&quot;right&quot; class=&quot;xl18&quot;&gt;26&lt;/td&gt;&lt;td class=&quot;xl22&quot;&gt;R&lt;/td&gt;&lt;td class=&quot;xl25&quot;&gt;&lt;/td&gt;&lt;/tr&gt;&lt;tr style=&quot;height:15.0pt&quot; height=&quot;20&quot;&gt;&lt;td style=&quot;width:23pt;height:15.0pt&quot; align=&quot;right&quot; class=&quot;xl17&quot; height=&quot;20&quot; width=&quot;31&quot;&gt;9&lt;/td&gt;&lt;td class=&quot;xl18&quot;&gt;CODACT&lt;/td&gt;&lt;td class=&quot;xl18&quot;&gt;COD._ACTIVIDAD_ORIGI&lt;/td&gt;&lt;td align=&quot;right&quot; class=&quot;xl18&quot;&gt;9&lt;/td&gt;&lt;td class=&quot;xl18&quot;&gt;N&lt;/td&gt;&lt;td align=&quot;right&quot; class=&quot;xl18&quot;&gt;4&lt;/td&gt;&lt;td class=&quot;xl22&quot;&gt;R&lt;/td&gt;&lt;td class=&quot;xl25&quot;&gt;&lt;/td&gt;&lt;/tr&gt;&lt;tr style=&quot;height:15.0pt&quot; height=&quot;20&quot;&gt;&lt;td style=&quot;width:23pt;height:15.0pt&quot; align=&quot;right&quot; class=&quot;xl17&quot; height=&quot;20&quot; width=&quot;31&quot;&gt;10&lt;/td&gt;&lt;td class=&quot;xl18&quot;&gt;CODMON&lt;/td&gt;&lt;td class=&quot;xl18&quot;&gt;CODIGO_DE_MONEDA&lt;/td&gt;&lt;td class=&quot;xl18&quot;&gt;0A&lt;/td&gt;&lt;td class=&quot;xl18&quot;&gt;N&lt;/td&gt;&lt;td align=&quot;right&quot; class=&quot;xl18&quot;&gt;3&lt;/td&gt;&lt;td class=&quot;xl22&quot;&gt;R&lt;/td&gt;&lt;td class=&quot;xl25&quot;&gt;currency&lt;/td&gt;&lt;/tr&gt;&lt;tr style=&quot;height:15.0pt&quot; height=&quot;20&quot;&gt;&lt;td style=&quot;width:23pt;height:15.0pt&quot; align=&quot;right&quot; class=&quot;xl17&quot; height=&quot;20&quot; width=&quot;31&quot;&gt;11&lt;/td&gt;&lt;td class=&quot;xl18&quot;&gt;TDC&lt;/td&gt;&lt;td class=&quot;xl18&quot;&gt;TARJETA_DE_CREDITO&lt;/td&gt;&lt;td class=&quot;xl18&quot;&gt;0B&lt;/td&gt;&lt;td class=&quot;xl18&quot;&gt;A&lt;/td&gt;&lt;td align=&quot;right&quot; class=&quot;xl18&quot;&gt;22&lt;/td&gt;&lt;td class=&quot;xl22&quot;&gt;O&lt;/td&gt;&lt;td class=&quot;xl25&quot;&gt;&lt;/td&gt;&lt;/tr&gt;&lt;tr style=&quot;height:15.0pt&quot; height=&quot;20&quot;&gt;&lt;td style=&quot;width:23pt;height:15.0pt&quot; align=&quot;right&quot; class=&quot;xl17&quot; height=&quot;20&quot; width=&quot;31&quot;&gt;12&lt;/td&gt;&lt;td class=&quot;xl18&quot;&gt;FOLIO&lt;/td&gt;&lt;td class=&quot;xl18&quot;&gt;FOLIO_OPERACION&lt;/td&gt;&lt;td class=&quot;xl18&quot;&gt;0C&lt;/td&gt;&lt;td class=&quot;xl18&quot;&gt;A&lt;/td&gt;&lt;td align=&quot;right&quot; class=&quot;xl18&quot;&gt;6&lt;/td&gt;&lt;td class=&quot;xl22&quot;&gt;O&lt;/td&gt;&lt;td class=&quot;xl25&quot;&gt;Transaction.accountingReference&lt;/td&gt;&lt;/tr&gt;&lt;tr style=&quot;height:15.0pt&quot; height=&quot;20&quot;&gt;&lt;td style=&quot;width:23pt;height:15.0pt&quot; align=&quot;right&quot; class=&quot;xl17&quot; height=&quot;20&quot; width=&quot;31&quot;&gt;13&lt;/td&gt;&lt;td class=&quot;xl18&quot;&gt;FECHAOP&lt;/td&gt;&lt;td class=&quot;xl18&quot;&gt;FECHA_OPERACION&lt;/td&gt;&lt;td class=&quot;xl18&quot;&gt;0D&lt;/td&gt;&lt;td class=&quot;xl18&quot;&gt;A&lt;/td&gt;&lt;td align=&quot;right&quot; class=&quot;xl18&quot;&gt;10&lt;/td&gt;&lt;td class=&quot;xl22&quot;&gt;O&lt;/td&gt;&lt;td class=&quot;xl25&quot;&gt;valueDateTime&lt;/td&gt;&lt;/tr&gt;&lt;tr style=&quot;height:15.0pt&quot; height=&quot;20&quot;&gt;&lt;td style=&quot;width:23pt;height:15.0pt&quot; align=&quot;right&quot; class=&quot;xl17&quot; height=&quot;20&quot; width=&quot;31&quot;&gt;14&lt;/td&gt;&lt;td class=&quot;xl18&quot;&gt;HORAOP&lt;/td&gt;&lt;td class=&quot;xl18&quot;&gt;HORA_OPERACION&lt;/td&gt;&lt;td class=&quot;xl18&quot;&gt;0E&lt;/td&gt;&lt;td class=&quot;xl18&quot;&gt;A&lt;/td&gt;&lt;td align=&quot;right&quot; class=&quot;xl18&quot;&gt;8&lt;/td&gt;&lt;td class=&quot;xl22&quot;&gt;O&lt;/td&gt;&lt;td class=&quot;xl25&quot;&gt;valueDateTime&lt;/td&gt;&lt;/tr&gt;&lt;tr style=&quot;height:15.0pt&quot; height=&quot;20&quot;&gt;&lt;td style=&quot;width:23pt;height:15.0pt&quot; align=&quot;right&quot; class=&quot;xl17&quot; height=&quot;20&quot; width=&quot;31&quot;&gt;15&lt;/td&gt;&lt;td class=&quot;xl18&quot;&gt;CUENTA&lt;/td&gt;&lt;td class=&quot;xl18&quot;&gt;CUENTA_CHEQUES&lt;/td&gt;&lt;td class=&quot;xl18&quot;&gt;0F&lt;/td&gt;&lt;td class=&quot;xl18&quot;&gt;A&lt;/td&gt;&lt;td align=&quot;right&quot; class=&quot;xl18&quot;&gt;20&lt;/td&gt;&lt;td class=&quot;xl22&quot;&gt;O&lt;/td&gt;&lt;td class=&quot;xl25&quot;&gt;accountId&lt;/td&gt;&lt;/tr&gt;&lt;tr style=&quot;height:15.0pt&quot; height=&quot;20&quot;&gt;&lt;td style=&quot;width:23pt;height:15.0pt&quot; align=&quot;right&quot; class=&quot;xl17&quot; height=&quot;20&quot; width=&quot;31&quot;&gt;16&lt;/td&gt;&lt;td class=&quot;xl18&quot;&gt;CLABE&lt;/td&gt;&lt;td class=&quot;xl18&quot;&gt;CUENTA_CLABE&lt;/td&gt;&lt;td align=&quot;right&quot; class=&quot;xl18&quot;&gt;10&lt;/td&gt;&lt;td class=&quot;xl18&quot;&gt;A&lt;/td&gt;&lt;td align=&quot;right&quot; class=&quot;xl18&quot;&gt;18&lt;/td&gt;&lt;td class=&quot;xl22&quot;&gt;O&lt;/td&gt;&lt;td class=&quot;xl25&quot;&gt;&lt;/td&gt;&lt;/tr&gt;&lt;tr style=&quot;height:15.0pt&quot; height=&quot;20&quot;&gt;&lt;td style=&quot;width:23pt;height:15.0pt&quot; align=&quot;right&quot; class=&quot;xl17&quot; height=&quot;20&quot; width=&quot;31&quot;&gt;17&lt;/td&gt;&lt;td class=&quot;xl18&quot;&gt;TELEFOS&lt;/td&gt;&lt;td class=&quot;xl18&quot;&gt;TELEFONOS_CONTACTO&lt;/td&gt;&lt;td align=&quot;right&quot; class=&quot;xl18&quot;&gt;11&lt;/td&gt;&lt;td class=&quot;xl18&quot;&gt;A&lt;/td&gt;&lt;td align=&quot;right&quot; class=&quot;xl18&quot;&gt;40&lt;/td&gt;&lt;td class=&quot;xl22&quot;&gt;O&lt;/td&gt;&lt;td class=&quot;xl25&quot;&gt;phoneNumber&lt;/td&gt;&lt;/tr&gt;&lt;tr style=&quot;height:15.0pt&quot; height=&quot;20&quot;&gt;&lt;td style=&quot;width:23pt;height:15.0pt&quot; align=&quot;right&quot; class=&quot;xl17&quot; height=&quot;20&quot; width=&quot;31&quot;&gt;18&lt;/td&gt;&lt;td class=&quot;xl18&quot;&gt;NOMBREC&lt;/td&gt;&lt;td class=&quot;xl18&quot;&gt;NOMBRE_CLIENTE&lt;/td&gt;&lt;td align=&quot;right&quot; class=&quot;xl18&quot;&gt;12&lt;/td&gt;&lt;td class=&quot;xl18&quot;&gt;A&lt;/td&gt;&lt;td align=&quot;right&quot; class=&quot;xl18&quot;&gt;40&lt;/td&gt;&lt;td class=&quot;xl22&quot;&gt;O&lt;/td&gt;&lt;td class=&quot;xl25&quot;&gt;personName.fullName&lt;/td&gt;&lt;/tr&gt;&lt;tr style=&quot;height:15.0pt&quot; height=&quot;20&quot;&gt;&lt;td style=&quot;width:23pt;height:15.0pt&quot; align=&quot;right&quot; class=&quot;xl17&quot; height=&quot;20&quot; width=&quot;31&quot;&gt;19&lt;/td&gt;&lt;td class=&quot;xl18&quot;&gt;NOMBREB&lt;/td&gt;&lt;td class=&quot;xl18&quot;&gt;NOMBRE_BANCO&lt;/td&gt;&lt;td align=&quot;right&quot; class=&quot;xl18&quot;&gt;13&lt;/td&gt;&lt;td class=&quot;xl18&quot;&gt;A&lt;/td&gt;&lt;td align=&quot;right&quot; class=&quot;xl18&quot;&gt;24&lt;/td&gt;&lt;td class=&quot;xl22&quot;&gt;O&lt;/td&gt;&lt;td class=&quot;xl25&quot;&gt;bankName&lt;/td&gt;&lt;/tr&gt;&lt;tr style=&quot;height:15.0pt&quot; height=&quot;20&quot;&gt;&lt;td style=&quot;width:23pt;height:15.0pt&quot; align=&quot;right&quot; class=&quot;xl17&quot; height=&quot;20&quot; width=&quot;31&quot;&gt;20&lt;/td&gt;&lt;td class=&quot;xl18&quot;&gt;NOMBRE2&lt;/td&gt;&lt;td class=&quot;xl18&quot;&gt;NOMBRE_BENEFICIARIO&lt;/td&gt;&lt;td align=&quot;right&quot; class=&quot;xl18&quot;&gt;14&lt;/td&gt;&lt;td class=&quot;xl18&quot;&gt;A&lt;/td&gt;&lt;td align=&quot;right&quot; class=&quot;xl18&quot;&gt;40&lt;/td&gt;&lt;td class=&quot;xl22&quot;&gt;O&lt;/td&gt;&lt;td class=&quot;xl25&quot;&gt;payee.person. personName.fullName&lt;/td&gt;&lt;/tr&gt;&lt;tr style=&quot;height:15.0pt&quot; height=&quot;20&quot;&gt;&lt;td style=&quot;width:23pt;height:15.0pt&quot; align=&quot;right&quot; class=&quot;xl17&quot; height=&quot;20&quot; width=&quot;31&quot;&gt;21&lt;/td&gt;&lt;td class=&quot;xl18&quot;&gt;DESCRIP&lt;/td&gt;&lt;td class=&quot;xl18&quot;&gt;DESCRIPCION_OPERACIO&lt;/td&gt;&lt;td align=&quot;right&quot; class=&quot;xl18&quot;&gt;15&lt;/td&gt;&lt;td class=&quot;xl18&quot;&gt;A&lt;/td&gt;&lt;td align=&quot;right&quot; class=&quot;xl18&quot;&gt;40&lt;/td&gt;&lt;td class=&quot;xl22&quot;&gt;O&lt;/td&gt;&lt;td class=&quot;xl25&quot;&gt;Transaction.enrichedDescription&lt;/td&gt;&lt;/tr&gt;&lt;tr style=&quot;height:15.0pt&quot; height=&quot;20&quot;&gt;&lt;td style=&quot;width:23pt;height:15.0pt&quot; align=&quot;right&quot; class=&quot;xl17&quot; height=&quot;20&quot; width=&quot;31&quot;&gt;22&lt;/td&gt;&lt;td class=&quot;xl18&quot;&gt;REFEREN&lt;/td&gt;&lt;td class=&quot;xl18&quot;&gt;REFERENCIA&lt;/td&gt;&lt;td align=&quot;right&quot; class=&quot;xl18&quot;&gt;16&lt;/td&gt;&lt;td class=&quot;xl18&quot;&gt;A&lt;/td&gt;&lt;td align=&quot;right&quot; class=&quot;xl18&quot;&gt;10&lt;/td&gt;&lt;td class=&quot;xl22&quot;&gt;O&lt;/td&gt;&lt;td class=&quot;xl25&quot;&gt;externalReference&lt;/td&gt;&lt;/tr&gt;&lt;tr style=&quot;height:15.0pt&quot; height=&quot;20&quot;&gt;&lt;td style=&quot;width:23pt;height:15.0pt&quot; align=&quot;right&quot; class=&quot;xl17&quot; height=&quot;20&quot; width=&quot;31&quot;&gt;23&lt;/td&gt;&lt;td class=&quot;xl18&quot;&gt;INDNOTI&lt;/td&gt;&lt;td class=&quot;xl18&quot;&gt;IDEN_NOTIFICACION&lt;/td&gt;&lt;td align=&quot;right&quot; class=&quot;xl18&quot;&gt;17&lt;/td&gt;&lt;td class=&quot;xl18&quot;&gt;A&lt;/td&gt;&lt;td align=&quot;right&quot; class=&quot;xl18&quot;&gt;1&lt;/td&gt;&lt;td class=&quot;xl22&quot;&gt;O&lt;/td&gt;&lt;td class=&quot;xl25&quot;&gt;&lt;/td&gt;&lt;/tr&gt;&lt;tr style=&quot;height:15.0pt&quot; height=&quot;20&quot;&gt;&lt;td style=&quot;width:23pt;height:15.0pt&quot; align=&quot;right&quot; class=&quot;xl17&quot; height=&quot;20&quot; width=&quot;31&quot;&gt;24&lt;/td&gt;&lt;td class=&quot;xl18&quot;&gt;CLAVEN1&lt;/td&gt;&lt;td class=&quot;xl18&quot;&gt;CLAVE_NOTIFICACION&lt;/td&gt;&lt;td align=&quot;right&quot; class=&quot;xl18&quot;&gt;18&lt;/td&gt;&lt;td class=&quot;xl18&quot;&gt;A&lt;/td&gt;&lt;td align=&quot;right&quot; class=&quot;xl18&quot;&gt;10&lt;/td&gt;&lt;td class=&quot;xl22&quot;&gt;O&lt;/td&gt;&lt;td class=&quot;xl25&quot;&gt;&lt;/td&gt;&lt;/tr&gt;&lt;tr style=&quot;height:15.0pt&quot; height=&quot;20&quot;&gt;&lt;td style=&quot;width:23pt;height:15.0pt&quot; align=&quot;right&quot; class=&quot;xl17&quot; height=&quot;20&quot; width=&quot;31&quot;&gt;25&lt;/td&gt;&lt;td class=&quot;xl18&quot;&gt;CLAVEN2&lt;/td&gt;&lt;td class=&quot;xl18&quot;&gt;CLAVE_NOTIFICACION_2&lt;/td&gt;&lt;td align=&quot;right&quot; class=&quot;xl18&quot;&gt;19&lt;/td&gt;&lt;td class=&quot;xl18&quot;&gt;A&lt;/td&gt;&lt;td align=&quot;right&quot; class=&quot;xl18&quot;&gt;10&lt;/td&gt;&lt;td class=&quot;xl22&quot;&gt;O&lt;/td&gt;&lt;td class=&quot;xl25&quot;&gt;&lt;/td&gt;&lt;/tr&gt;&lt;tr style=&quot;height:15.0pt&quot; height=&quot;20&quot;&gt;&lt;td style=&quot;width:23pt;height:15.0pt&quot; align=&quot;right&quot; class=&quot;xl17&quot; height=&quot;20&quot; width=&quot;31&quot;&gt;26&lt;/td&gt;&lt;td class=&quot;xl18&quot;&gt;OTROS&lt;/td&gt;&lt;td class=&quot;xl18&quot;&gt;OTROS_CAMPOS&lt;/td&gt;&lt;td class=&quot;xl18&quot;&gt;1D&lt;/td&gt;&lt;td class=&quot;xl18&quot;&gt;A&lt;/td&gt;&lt;td align=&quot;right&quot; class=&quot;xl18&quot;&gt;2&lt;/td&gt;&lt;td class=&quot;xl22&quot;&gt;O&lt;/td&gt;&lt;td class=&quot;xl25&quot;&gt;typeCode&lt;/td&gt;&lt;/tr&gt;&lt;tr style=&quot;height:15.0pt&quot; height=&quot;20&quot;&gt;&lt;td style=&quot;width:23pt;height:15.0pt&quot; align=&quot;right&quot; class=&quot;xl17&quot; height=&quot;20&quot; width=&quot;31&quot;&gt;27&lt;/td&gt;&lt;td class=&quot;xl18&quot;&gt;EMPRESA&lt;/td&gt;&lt;td class=&quot;xl18&quot;&gt;CLAVE_DE_LA_EMPRESA&lt;/td&gt;&lt;td class=&quot;xl18&quot;&gt;1A&lt;/td&gt;&lt;td class=&quot;xl18&quot;&gt;A&lt;/td&gt;&lt;td align=&quot;right&quot; class=&quot;xl18&quot;&gt;4&lt;/td&gt;&lt;td class=&quot;xl22&quot;&gt;O&lt;/td&gt;&lt;td class=&quot;xl25&quot;&gt;&lt;/td&gt;&lt;/tr&gt;&lt;tr style=&quot;height:15.0pt&quot; height=&quot;20&quot;&gt;&lt;td style=&quot;width:23pt;height:15.0pt&quot; align=&quot;right&quot; class=&quot;xl17&quot; height=&quot;20&quot; width=&quot;31&quot;&gt;28&lt;/td&gt;&lt;td class=&quot;xl18&quot;&gt;CANOPER&lt;/td&gt;&lt;td class=&quot;xl18&quot;&gt;CANAL_OPERATIVO&lt;/td&gt;&lt;td class=&quot;xl18&quot;&gt;1B&lt;/td&gt;&lt;td class=&quot;xl18&quot;&gt;A&lt;/td&gt;&lt;td align=&quot;right&quot; class=&quot;xl18&quot;&gt;2&lt;/td&gt;&lt;td class=&quot;xl22&quot;&gt;O&lt;/td&gt;&lt;td class=&quot;xl25&quot;&gt;&lt;/td&gt;&lt;/tr&gt;&lt;tr style=&quot;height:15.0pt&quot; height=&quot;20&quot;&gt;&lt;td style=&quot;width:23pt;height:15.0pt&quot; align=&quot;right&quot; class=&quot;xl17&quot; height=&quot;20&quot; width=&quot;31&quot;&gt;29&lt;/td&gt;&lt;td class=&quot;xl18&quot;&gt;CANCOME&lt;/td&gt;&lt;td class=&quot;xl18&quot;&gt;CANAL_COMERCIALIZ&lt;/td&gt;&lt;td class=&quot;xl18&quot;&gt;1C&lt;/td&gt;&lt;td class=&quot;xl18&quot;&gt;A&lt;/td&gt;&lt;td align=&quot;right&quot; class=&quot;xl18&quot;&gt;2&lt;/td&gt;&lt;td class=&quot;xl22&quot;&gt;O&lt;/td&gt;&lt;td class=&quot;xl25&quot;&gt;&lt;/td&gt;&lt;/tr&gt;&lt;/tbody&gt;&lt;/table&gt;&lt;/div&gt;&lt;div&gt;&lt;br/&gt;&lt;/div&gt;" link="&#xa;&lt;div data-ccp-timestamp=&quot;1737018575446&quot;&gt;&lt;table style=&quot;border-collapse:collapse;width:519pt&quot; width=&quot;692&quot;&gt;&lt;colgroup&gt;&lt;col style=&quot;width:23pt&quot; width=&quot;31&quot;&gt;&lt;col style=&quot;width:56pt&quot; width=&quot;75&quot;&gt;&lt;col style=&quot;width:123pt&quot; width=&quot;164&quot;&gt;&lt;col style=&quot;width:33pt&quot; width=&quot;44&quot;&gt;&lt;col style=&quot;width:20pt&quot; width=&quot;27&quot;&gt;&lt;col style=&quot;width:24pt&quot; width=&quot;32&quot;&gt;&lt;col style=&quot;width:18pt&quot; width=&quot;24&quot;&gt;&lt;col style=&quot;width:221pt&quot; width=&quot;295&quot;&gt;&lt;/colgroup&gt;&lt;tbody&gt;&lt;tr style=&quot;height:15.0pt&quot; height=&quot;20&quot;&gt;&lt;td style=&quot;width:23pt;height:15.0pt&quot; class=&quot;xl19&quot; height=&quot;20&quot; width=&quot;31&quot;&gt;N&lt;/td&gt;&lt;td style=&quot;width:56pt&quot; class=&quot;xl20&quot; width=&quot;75&quot;&gt;CAMPO&lt;/td&gt;&lt;td style=&quot;width:123pt&quot; class=&quot;xl20&quot; width=&quot;164&quot;&gt;LITERAL&lt;/td&gt;&lt;td style=&quot;width:33pt&quot; class=&quot;xl20&quot; width=&quot;44&quot;&gt;DELIM&lt;/td&gt;&lt;td style=&quot;width:20pt&quot; class=&quot;xl20&quot; width=&quot;27&quot;&gt;ATT&lt;/td&gt;&lt;td style=&quot;width:24pt&quot; class=&quot;xl20&quot; width=&quot;32&quot;&gt;LNG&lt;/td&gt;&lt;td style=&quot;width:18pt&quot; class=&quot;xl21&quot; width=&quot;24&quot;&gt;TIP&lt;/td&gt;&lt;td style=&quot;width:221pt&quot; class=&quot;xl24&quot; width=&quot;295&quot;&gt;NOMBRE DEL OBJETO&lt;/td&gt;&lt;/tr&gt;&lt;tr style=&quot;height:15.0pt&quot; height=&quot;20&quot;&gt;&lt;td style=&quot;width:23pt;height:15.0pt&quot; align=&quot;right&quot; class=&quot;xl17&quot; height=&quot;20&quot; width=&quot;31&quot;&gt;1&lt;/td&gt;&lt;td class=&quot;xl18&quot;&gt;TDD&lt;/td&gt;&lt;td class=&quot;xl18&quot;&gt;NUM_TARJETA_DEBITO&lt;/td&gt;&lt;td align=&quot;right&quot; class=&quot;xl18&quot;&gt;1&lt;/td&gt;&lt;td class=&quot;xl18&quot;&gt;A&lt;/td&gt;&lt;td align=&quot;right&quot; class=&quot;xl18&quot;&gt;22&lt;/td&gt;&lt;td class=&quot;xl22&quot;&gt;R&lt;/td&gt;&lt;td class=&quot;xl25&quot;&gt;cardId&lt;/td&gt;&lt;/tr&gt;&lt;tr style=&quot;height:15.0pt&quot; height=&quot;20&quot;&gt;&lt;td style=&quot;width:23pt;height:15.0pt&quot; align=&quot;right&quot; class=&quot;xl17&quot; height=&quot;20&quot; width=&quot;31&quot;&gt;2&lt;/td&gt;&lt;td class=&quot;xl18&quot;&gt;CANAL&lt;/td&gt;&lt;td class=&quot;xl18&quot;&gt;CLAVE_DE_CANAL&lt;/td&gt;&lt;td align=&quot;right&quot; class=&quot;xl18&quot;&gt;2&lt;/td&gt;&lt;td class=&quot;xl18&quot;&gt;A&lt;/td&gt;&lt;td align=&quot;right&quot; class=&quot;xl18&quot;&gt;4&lt;/td&gt;&lt;td class=&quot;xl22&quot;&gt;R&lt;/td&gt;&lt;td class=&quot;xl25&quot;&gt;&lt;/td&gt;&lt;/tr&gt;&lt;tr style=&quot;height:15.0pt&quot; height=&quot;20&quot;&gt;&lt;td style=&quot;width:23pt;height:15.0pt&quot; align=&quot;right&quot; class=&quot;xl17&quot; height=&quot;20&quot; width=&quot;31&quot;&gt;3&lt;/td&gt;&lt;td class=&quot;xl18&quot;&gt;CODMENS&lt;/td&gt;&lt;td class=&quot;xl18&quot;&gt;CODIGO_DE_MENSAJE&lt;/td&gt;&lt;td align=&quot;right&quot; class=&quot;xl18&quot;&gt;3&lt;/td&gt;&lt;td class=&quot;xl18&quot;&gt;N&lt;/td&gt;&lt;td align=&quot;right&quot; class=&quot;xl18&quot;&gt;4&lt;/td&gt;&lt;td class=&quot;xl22&quot;&gt;R&lt;/td&gt;&lt;td class=&quot;xl25&quot;&gt;&lt;/td&gt;&lt;/tr&gt;&lt;tr style=&quot;height:15.0pt&quot; height=&quot;20&quot;&gt;&lt;td style=&quot;width:23pt;height:15.0pt&quot; align=&quot;right&quot; class=&quot;xl17&quot; height=&quot;20&quot; width=&quot;31&quot;&gt;4&lt;/td&gt;&lt;td class=&quot;xl18&quot;&gt;CODPROC&lt;/td&gt;&lt;td class=&quot;xl18&quot;&gt;CODIGO_DE_PROCESO&lt;/td&gt;&lt;td align=&quot;right&quot; class=&quot;xl18&quot;&gt;4&lt;/td&gt;&lt;td class=&quot;xl18&quot;&gt;N&lt;/td&gt;&lt;td align=&quot;right&quot; class=&quot;xl18&quot;&gt;6&lt;/td&gt;&lt;td class=&quot;xl22&quot;&gt;R&lt;/td&gt;&lt;td class=&quot;xl25&quot;&gt;&lt;/td&gt;&lt;/tr&gt;&lt;tr style=&quot;height:15.0pt&quot; height=&quot;20&quot;&gt;&lt;td style=&quot;width:23pt;height:15.0pt&quot; align=&quot;right&quot; class=&quot;xl17&quot; height=&quot;20&quot; width=&quot;31&quot;&gt;5&lt;/td&gt;&lt;td class=&quot;xl18&quot;&gt;IMPTRN&lt;/td&gt;&lt;td class=&quot;xl18&quot;&gt;IMPORTE_TRANSACCION&lt;/td&gt;&lt;td align=&quot;right&quot; class=&quot;xl18&quot;&gt;5&lt;/td&gt;&lt;td class=&quot;xl18&quot;&gt;N&lt;/td&gt;&lt;td align=&quot;right&quot; class=&quot;xl18&quot;&gt;12&lt;/td&gt;&lt;td class=&quot;xl22&quot;&gt;R&lt;/td&gt;&lt;td class=&quot;xl25&quot;&gt;amount&lt;/td&gt;&lt;/tr&gt;&lt;tr style=&quot;height:15.0pt&quot; height=&quot;20&quot;&gt;&lt;td style=&quot;width:23pt;height:15.0pt&quot; align=&quot;right&quot; class=&quot;xl17&quot; height=&quot;20&quot; width=&quot;31&quot;&gt;6&lt;/td&gt;&lt;td class=&quot;xl18&quot;&gt;IDCOMER&lt;/td&gt;&lt;td class=&quot;xl18&quot;&gt;ID_COMERCIO&lt;/td&gt;&lt;td align=&quot;right&quot; class=&quot;xl18&quot;&gt;6&lt;/td&gt;&lt;td class=&quot;xl18&quot;&gt;A&lt;/td&gt;&lt;td align=&quot;right&quot; class=&quot;xl18&quot;&gt;15&lt;/td&gt;&lt;td class=&quot;xl22&quot;&gt;R&lt;/td&gt;&lt;td class=&quot;xl25&quot;&gt;merchant.merchantId&lt;/td&gt;&lt;/tr&gt;&lt;tr style=&quot;height:15.0pt&quot; height=&quot;20&quot;&gt;&lt;td style=&quot;width:23pt;height:15.0pt&quot; align=&quot;right&quot; class=&quot;xl17&quot; height=&quot;20&quot; width=&quot;31&quot;&gt;7&lt;/td&gt;&lt;td class=&quot;xl18&quot;&gt;NOMCOMR&lt;/td&gt;&lt;td class=&quot;xl18&quot;&gt;NOM._DIR._COMERCIO&lt;/td&gt;&lt;td align=&quot;right&quot; class=&quot;xl18&quot;&gt;7&lt;/td&gt;&lt;td class=&quot;xl18&quot;&gt;A&lt;/td&gt;&lt;td align=&quot;right&quot; class=&quot;xl18&quot;&gt;50&lt;/td&gt;&lt;td class=&quot;xl22&quot;&gt;R&lt;/td&gt;&lt;td class=&quot;xl25&quot;&gt;merchant.name + merchant.locationReference&lt;/td&gt;&lt;/tr&gt;&lt;tr style=&quot;height:15.0pt&quot; height=&quot;20&quot;&gt;&lt;td style=&quot;width:23pt;height:15.0pt&quot; align=&quot;right&quot; class=&quot;xl17&quot; height=&quot;20&quot; width=&quot;31&quot;&gt;8&lt;/td&gt;&lt;td class=&quot;xl18&quot;&gt;NOMPOB&lt;/td&gt;&lt;td class=&quot;xl18&quot;&gt;NOMBRE_PROBLACION&lt;/td&gt;&lt;td align=&quot;right&quot; class=&quot;xl18&quot;&gt;8&lt;/td&gt;&lt;td class=&quot;xl18&quot;&gt;A&lt;/td&gt;&lt;td align=&quot;right&quot; class=&quot;xl18&quot;&gt;26&lt;/td&gt;&lt;td class=&quot;xl22&quot;&gt;R&lt;/td&gt;&lt;td class=&quot;xl25&quot;&gt;&lt;/td&gt;&lt;/tr&gt;&lt;tr style=&quot;height:15.0pt&quot; height=&quot;20&quot;&gt;&lt;td style=&quot;width:23pt;height:15.0pt&quot; align=&quot;right&quot; class=&quot;xl17&quot; height=&quot;20&quot; width=&quot;31&quot;&gt;9&lt;/td&gt;&lt;td class=&quot;xl18&quot;&gt;CODACT&lt;/td&gt;&lt;td class=&quot;xl18&quot;&gt;COD._ACTIVIDAD_ORIGI&lt;/td&gt;&lt;td align=&quot;right&quot; class=&quot;xl18&quot;&gt;9&lt;/td&gt;&lt;td class=&quot;xl18&quot;&gt;N&lt;/td&gt;&lt;td align=&quot;right&quot; class=&quot;xl18&quot;&gt;4&lt;/td&gt;&lt;td class=&quot;xl22&quot;&gt;R&lt;/td&gt;&lt;td class=&quot;xl25&quot;&gt;&lt;/td&gt;&lt;/tr&gt;&lt;tr style=&quot;height:15.0pt&quot; height=&quot;20&quot;&gt;&lt;td style=&quot;width:23pt;height:15.0pt&quot; align=&quot;right&quot; class=&quot;xl17&quot; height=&quot;20&quot; width=&quot;31&quot;&gt;10&lt;/td&gt;&lt;td class=&quot;xl18&quot;&gt;CODMON&lt;/td&gt;&lt;td class=&quot;xl18&quot;&gt;CODIGO_DE_MONEDA&lt;/td&gt;&lt;td class=&quot;xl18&quot;&gt;0A&lt;/td&gt;&lt;td class=&quot;xl18&quot;&gt;N&lt;/td&gt;&lt;td align=&quot;right&quot; class=&quot;xl18&quot;&gt;3&lt;/td&gt;&lt;td class=&quot;xl22&quot;&gt;R&lt;/td&gt;&lt;td class=&quot;xl25&quot;&gt;currency&lt;/td&gt;&lt;/tr&gt;&lt;tr style=&quot;height:15.0pt&quot; height=&quot;20&quot;&gt;&lt;td style=&quot;width:23pt;height:15.0pt&quot; align=&quot;right&quot; class=&quot;xl17&quot; height=&quot;20&quot; width=&quot;31&quot;&gt;11&lt;/td&gt;&lt;td class=&quot;xl18&quot;&gt;TDC&lt;/td&gt;&lt;td class=&quot;xl18&quot;&gt;TARJETA_DE_CREDITO&lt;/td&gt;&lt;td class=&quot;xl18&quot;&gt;0B&lt;/td&gt;&lt;td class=&quot;xl18&quot;&gt;A&lt;/td&gt;&lt;td align=&quot;right&quot; class=&quot;xl18&quot;&gt;22&lt;/td&gt;&lt;td class=&quot;xl22&quot;&gt;O&lt;/td&gt;&lt;td class=&quot;xl25&quot;&gt;&lt;/td&gt;&lt;/tr&gt;&lt;tr style=&quot;height:15.0pt&quot; height=&quot;20&quot;&gt;&lt;td style=&quot;width:23pt;height:15.0pt&quot; align=&quot;right&quot; class=&quot;xl17&quot; height=&quot;20&quot; width=&quot;31&quot;&gt;12&lt;/td&gt;&lt;td class=&quot;xl18&quot;&gt;FOLIO&lt;/td&gt;&lt;td class=&quot;xl18&quot;&gt;FOLIO_OPERACION&lt;/td&gt;&lt;td class=&quot;xl18&quot;&gt;0C&lt;/td&gt;&lt;td class=&quot;xl18&quot;&gt;A&lt;/td&gt;&lt;td align=&quot;right&quot; class=&quot;xl18&quot;&gt;6&lt;/td&gt;&lt;td class=&quot;xl22&quot;&gt;O&lt;/td&gt;&lt;td class=&quot;xl25&quot;&gt;Transaction.accountingReference&lt;/td&gt;&lt;/tr&gt;&lt;tr style=&quot;height:15.0pt&quot; height=&quot;20&quot;&gt;&lt;td style=&quot;width:23pt;height:15.0pt&quot; align=&quot;right&quot; class=&quot;xl17&quot; height=&quot;20&quot; width=&quot;31&quot;&gt;13&lt;/td&gt;&lt;td class=&quot;xl18&quot;&gt;FECHAOP&lt;/td&gt;&lt;td class=&quot;xl18&quot;&gt;FECHA_OPERACION&lt;/td&gt;&lt;td class=&quot;xl18&quot;&gt;0D&lt;/td&gt;&lt;td class=&quot;xl18&quot;&gt;A&lt;/td&gt;&lt;td align=&quot;right&quot; class=&quot;xl18&quot;&gt;10&lt;/td&gt;&lt;td class=&quot;xl22&quot;&gt;O&lt;/td&gt;&lt;td class=&quot;xl25&quot;&gt;valueDateTime&lt;/td&gt;&lt;/tr&gt;&lt;tr style=&quot;height:15.0pt&quot; height=&quot;20&quot;&gt;&lt;td style=&quot;width:23pt;height:15.0pt&quot; align=&quot;right&quot; class=&quot;xl17&quot; height=&quot;20&quot; width=&quot;31&quot;&gt;14&lt;/td&gt;&lt;td class=&quot;xl18&quot;&gt;HORAOP&lt;/td&gt;&lt;td class=&quot;xl18&quot;&gt;HORA_OPERACION&lt;/td&gt;&lt;td class=&quot;xl18&quot;&gt;0E&lt;/td&gt;&lt;td class=&quot;xl18&quot;&gt;A&lt;/td&gt;&lt;td align=&quot;right&quot; class=&quot;xl18&quot;&gt;8&lt;/td&gt;&lt;td class=&quot;xl22&quot;&gt;O&lt;/td&gt;&lt;td class=&quot;xl25&quot;&gt;valueDateTime&lt;/td&gt;&lt;/tr&gt;&lt;tr style=&quot;height:15.0pt&quot; height=&quot;20&quot;&gt;&lt;td style=&quot;width:23pt;height:15.0pt&quot; align=&quot;right&quot; class=&quot;xl17&quot; height=&quot;20&quot; width=&quot;31&quot;&gt;15&lt;/td&gt;&lt;td class=&quot;xl18&quot;&gt;CUENTA&lt;/td&gt;&lt;td class=&quot;xl18&quot;&gt;CUENTA_CHEQUES&lt;/td&gt;&lt;td class=&quot;xl18&quot;&gt;0F&lt;/td&gt;&lt;td class=&quot;xl18&quot;&gt;A&lt;/td&gt;&lt;td align=&quot;right&quot; class=&quot;xl18&quot;&gt;20&lt;/td&gt;&lt;td class=&quot;xl22&quot;&gt;O&lt;/td&gt;&lt;td class=&quot;xl25&quot;&gt;accountId&lt;/td&gt;&lt;/tr&gt;&lt;tr style=&quot;height:15.0pt&quot; height=&quot;20&quot;&gt;&lt;td style=&quot;width:23pt;height:15.0pt&quot; align=&quot;right&quot; class=&quot;xl17&quot; height=&quot;20&quot; width=&quot;31&quot;&gt;16&lt;/td&gt;&lt;td class=&quot;xl18&quot;&gt;CLABE&lt;/td&gt;&lt;td class=&quot;xl18&quot;&gt;CUENTA_CLABE&lt;/td&gt;&lt;td align=&quot;right&quot; class=&quot;xl18&quot;&gt;10&lt;/td&gt;&lt;td class=&quot;xl18&quot;&gt;A&lt;/td&gt;&lt;td align=&quot;right&quot; class=&quot;xl18&quot;&gt;18&lt;/td&gt;&lt;td class=&quot;xl22&quot;&gt;O&lt;/td&gt;&lt;td class=&quot;xl25&quot;&gt;&lt;/td&gt;&lt;/tr&gt;&lt;tr style=&quot;height:15.0pt&quot; height=&quot;20&quot;&gt;&lt;td style=&quot;width:23pt;height:15.0pt&quot; align=&quot;right&quot; class=&quot;xl17&quot; height=&quot;20&quot; width=&quot;31&quot;&gt;17&lt;/td&gt;&lt;td class=&quot;xl18&quot;&gt;TELEFOS&lt;/td&gt;&lt;td class=&quot;xl18&quot;&gt;TELEFONOS_CONTACTO&lt;/td&gt;&lt;td align=&quot;right&quot; class=&quot;xl18&quot;&gt;11&lt;/td&gt;&lt;td class=&quot;xl18&quot;&gt;A&lt;/td&gt;&lt;td align=&quot;right&quot; class=&quot;xl18&quot;&gt;40&lt;/td&gt;&lt;td class=&quot;xl22&quot;&gt;O&lt;/td&gt;&lt;td class=&quot;xl25&quot;&gt;phoneNumber&lt;/td&gt;&lt;/tr&gt;&lt;tr style=&quot;height:15.0pt&quot; height=&quot;20&quot;&gt;&lt;td style=&quot;width:23pt;height:15.0pt&quot; align=&quot;right&quot; class=&quot;xl17&quot; height=&quot;20&quot; width=&quot;31&quot;&gt;18&lt;/td&gt;&lt;td class=&quot;xl18&quot;&gt;NOMBREC&lt;/td&gt;&lt;td class=&quot;xl18&quot;&gt;NOMBRE_CLIENTE&lt;/td&gt;&lt;td align=&quot;right&quot; class=&quot;xl18&quot;&gt;12&lt;/td&gt;&lt;td class=&quot;xl18&quot;&gt;A&lt;/td&gt;&lt;td align=&quot;right&quot; class=&quot;xl18&quot;&gt;40&lt;/td&gt;&lt;td class=&quot;xl22&quot;&gt;O&lt;/td&gt;&lt;td class=&quot;xl25&quot;&gt;personName.fullName&lt;/td&gt;&lt;/tr&gt;&lt;tr style=&quot;height:15.0pt&quot; height=&quot;20&quot;&gt;&lt;td style=&quot;width:23pt;height:15.0pt&quot; align=&quot;right&quot; class=&quot;xl17&quot; height=&quot;20&quot; width=&quot;31&quot;&gt;19&lt;/td&gt;&lt;td class=&quot;xl18&quot;&gt;NOMBREB&lt;/td&gt;&lt;td class=&quot;xl18&quot;&gt;NOMBRE_BANCO&lt;/td&gt;&lt;td align=&quot;right&quot; class=&quot;xl18&quot;&gt;13&lt;/td&gt;&lt;td class=&quot;xl18&quot;&gt;A&lt;/td&gt;&lt;td align=&quot;right&quot; class=&quot;xl18&quot;&gt;24&lt;/td&gt;&lt;td class=&quot;xl22&quot;&gt;O&lt;/td&gt;&lt;td class=&quot;xl25&quot;&gt;bankName&lt;/td&gt;&lt;/tr&gt;&lt;tr style=&quot;height:15.0pt&quot; height=&quot;20&quot;&gt;&lt;td style=&quot;width:23pt;height:15.0pt&quot; align=&quot;right&quot; class=&quot;xl17&quot; height=&quot;20&quot; width=&quot;31&quot;&gt;20&lt;/td&gt;&lt;td class=&quot;xl18&quot;&gt;NOMBRE2&lt;/td&gt;&lt;td class=&quot;xl18&quot;&gt;NOMBRE_BENEFICIARIO&lt;/td&gt;&lt;td align=&quot;right&quot; class=&quot;xl18&quot;&gt;14&lt;/td&gt;&lt;td class=&quot;xl18&quot;&gt;A&lt;/td&gt;&lt;td align=&quot;right&quot; class=&quot;xl18&quot;&gt;40&lt;/td&gt;&lt;td class=&quot;xl22&quot;&gt;O&lt;/td&gt;&lt;td class=&quot;xl25&quot;&gt;payee.person. personName.fullName&lt;/td&gt;&lt;/tr&gt;&lt;tr style=&quot;height:15.0pt&quot; height=&quot;20&quot;&gt;&lt;td style=&quot;width:23pt;height:15.0pt&quot; align=&quot;right&quot; class=&quot;xl17&quot; height=&quot;20&quot; width=&quot;31&quot;&gt;21&lt;/td&gt;&lt;td class=&quot;xl18&quot;&gt;DESCRIP&lt;/td&gt;&lt;td class=&quot;xl18&quot;&gt;DESCRIPCION_OPERACIO&lt;/td&gt;&lt;td align=&quot;right&quot; class=&quot;xl18&quot;&gt;15&lt;/td&gt;&lt;td class=&quot;xl18&quot;&gt;A&lt;/td&gt;&lt;td align=&quot;right&quot; class=&quot;xl18&quot;&gt;40&lt;/td&gt;&lt;td class=&quot;xl22&quot;&gt;O&lt;/td&gt;&lt;td class=&quot;xl25&quot;&gt;Transaction.enrichedDescription&lt;/td&gt;&lt;/tr&gt;&lt;tr style=&quot;height:15.0pt&quot; height=&quot;20&quot;&gt;&lt;td style=&quot;width:23pt;height:15.0pt&quot; align=&quot;right&quot; class=&quot;xl17&quot; height=&quot;20&quot; width=&quot;31&quot;&gt;22&lt;/td&gt;&lt;td class=&quot;xl18&quot;&gt;REFEREN&lt;/td&gt;&lt;td class=&quot;xl18&quot;&gt;REFERENCIA&lt;/td&gt;&lt;td align=&quot;right&quot; class=&quot;xl18&quot;&gt;16&lt;/td&gt;&lt;td class=&quot;xl18&quot;&gt;A&lt;/td&gt;&lt;td align=&quot;right&quot; class=&quot;xl18&quot;&gt;10&lt;/td&gt;&lt;td class=&quot;xl22&quot;&gt;O&lt;/td&gt;&lt;td class=&quot;xl25&quot;&gt;externalReference&lt;/td&gt;&lt;/tr&gt;&lt;tr style=&quot;height:15.0pt&quot; height=&quot;20&quot;&gt;&lt;td style=&quot;width:23pt;height:15.0pt&quot; align=&quot;right&quot; class=&quot;xl17&quot; height=&quot;20&quot; width=&quot;31&quot;&gt;23&lt;/td&gt;&lt;td class=&quot;xl18&quot;&gt;INDNOTI&lt;/td&gt;&lt;td class=&quot;xl18&quot;&gt;IDEN_NOTIFICACION&lt;/td&gt;&lt;td align=&quot;right&quot; class=&quot;xl18&quot;&gt;17&lt;/td&gt;&lt;td class=&quot;xl18&quot;&gt;A&lt;/td&gt;&lt;td align=&quot;right&quot; class=&quot;xl18&quot;&gt;1&lt;/td&gt;&lt;td class=&quot;xl22&quot;&gt;O&lt;/td&gt;&lt;td class=&quot;xl25&quot;&gt;&lt;/td&gt;&lt;/tr&gt;&lt;tr style=&quot;height:15.0pt&quot; height=&quot;20&quot;&gt;&lt;td style=&quot;width:23pt;height:15.0pt&quot; align=&quot;right&quot; class=&quot;xl17&quot; height=&quot;20&quot; width=&quot;31&quot;&gt;24&lt;/td&gt;&lt;td class=&quot;xl18&quot;&gt;CLAVEN1&lt;/td&gt;&lt;td class=&quot;xl18&quot;&gt;CLAVE_NOTIFICACION&lt;/td&gt;&lt;td align=&quot;right&quot; class=&quot;xl18&quot;&gt;18&lt;/td&gt;&lt;td class=&quot;xl18&quot;&gt;A&lt;/td&gt;&lt;td align=&quot;right&quot; class=&quot;xl18&quot;&gt;10&lt;/td&gt;&lt;td class=&quot;xl22&quot;&gt;O&lt;/td&gt;&lt;td class=&quot;xl25&quot;&gt;&lt;/td&gt;&lt;/tr&gt;&lt;tr style=&quot;height:15.0pt&quot; height=&quot;20&quot;&gt;&lt;td style=&quot;width:23pt;height:15.0pt&quot; align=&quot;right&quot; class=&quot;xl17&quot; height=&quot;20&quot; width=&quot;31&quot;&gt;25&lt;/td&gt;&lt;td class=&quot;xl18&quot;&gt;CLAVEN2&lt;/td&gt;&lt;td class=&quot;xl18&quot;&gt;CLAVE_NOTIFICACION_2&lt;/td&gt;&lt;td align=&quot;right&quot; class=&quot;xl18&quot;&gt;19&lt;/td&gt;&lt;td class=&quot;xl18&quot;&gt;A&lt;/td&gt;&lt;td align=&quot;right&quot; class=&quot;xl18&quot;&gt;10&lt;/td&gt;&lt;td class=&quot;xl22&quot;&gt;O&lt;/td&gt;&lt;td class=&quot;xl25&quot;&gt;&lt;/td&gt;&lt;/tr&gt;&lt;tr style=&quot;height:15.0pt&quot; height=&quot;20&quot;&gt;&lt;td style=&quot;width:23pt;height:15.0pt&quot; align=&quot;right&quot; class=&quot;xl17&quot; height=&quot;20&quot; width=&quot;31&quot;&gt;26&lt;/td&gt;&lt;td class=&quot;xl18&quot;&gt;OTROS&lt;/td&gt;&lt;td class=&quot;xl18&quot;&gt;OTROS_CAMPOS&lt;/td&gt;&lt;td class=&quot;xl18&quot;&gt;1D&lt;/td&gt;&lt;td class=&quot;xl18&quot;&gt;A&lt;/td&gt;&lt;td align=&quot;right&quot; class=&quot;xl18&quot;&gt;2&lt;/td&gt;&lt;td class=&quot;xl22&quot;&gt;O&lt;/td&gt;&lt;td class=&quot;xl25&quot;&gt;typeCode&lt;/td&gt;&lt;/tr&gt;&lt;tr style=&quot;height:15.0pt&quot; height=&quot;20&quot;&gt;&lt;td style=&quot;width:23pt;height:15.0pt&quot; align=&quot;right&quot; class=&quot;xl17&quot; height=&quot;20&quot; width=&quot;31&quot;&gt;27&lt;/td&gt;&lt;td class=&quot;xl18&quot;&gt;EMPRESA&lt;/td&gt;&lt;td class=&quot;xl18&quot;&gt;CLAVE_DE_LA_EMPRESA&lt;/td&gt;&lt;td class=&quot;xl18&quot;&gt;1A&lt;/td&gt;&lt;td class=&quot;xl18&quot;&gt;A&lt;/td&gt;&lt;td align=&quot;right&quot; class=&quot;xl18&quot;&gt;4&lt;/td&gt;&lt;td class=&quot;xl22&quot;&gt;O&lt;/td&gt;&lt;td class=&quot;xl25&quot;&gt;&lt;/td&gt;&lt;/tr&gt;&lt;tr style=&quot;height:15.0pt&quot; height=&quot;20&quot;&gt;&lt;td style=&quot;width:23pt;height:15.0pt&quot; align=&quot;right&quot; class=&quot;xl17&quot; height=&quot;20&quot; width=&quot;31&quot;&gt;28&lt;/td&gt;&lt;td class=&quot;xl18&quot;&gt;CANOPER&lt;/td&gt;&lt;td class=&quot;xl18&quot;&gt;CANAL_OPERATIVO&lt;/td&gt;&lt;td class=&quot;xl18&quot;&gt;1B&lt;/td&gt;&lt;td class=&quot;xl18&quot;&gt;A&lt;/td&gt;&lt;td align=&quot;right&quot; class=&quot;xl18&quot;&gt;2&lt;/td&gt;&lt;td class=&quot;xl22&quot;&gt;O&lt;/td&gt;&lt;td class=&quot;xl25&quot;&gt;&lt;/td&gt;&lt;/tr&gt;&lt;tr style=&quot;height:15.0pt&quot; height=&quot;20&quot;&gt;&lt;td style=&quot;width:23pt;height:15.0pt&quot; align=&quot;right&quot; class=&quot;xl17&quot; height=&quot;20&quot; width=&quot;31&quot;&gt;29&lt;/td&gt;&lt;td class=&quot;xl18&quot;&gt;CANCOME&lt;/td&gt;&lt;td class=&quot;xl18&quot;&gt;CANAL_COMERCIALIZ&lt;/td&gt;&lt;td class=&quot;xl18&quot;&gt;1C&lt;/td&gt;&lt;td class=&quot;xl18&quot;&gt;A&lt;/td&gt;&lt;td align=&quot;right&quot; class=&quot;xl18&quot;&gt;2&lt;/td&gt;&lt;td class=&quot;xl22&quot;&gt;O&lt;/td&gt;&lt;td class=&quot;xl25&quot;&gt;&lt;/td&gt;&lt;/tr&gt;&lt;/tbody&gt;&lt;/table&gt;&lt;/div&gt;&#xa;&#xa;" id="BmXZFn6FjoLjCigtO_P5-16">
          <mxCell style="text;whiteSpace=wrap;html=1;strokeColor=default;container=0;" parent="BmXZFn6FjoLjCigtO_P5-21" vertex="1">
            <mxGeometry y="80" width="739" height="701" as="geometry" />
          </mxCell>
        </UserObject>
        <mxCell id="BmXZFn6FjoLjCigtO_P5-17" value="Formato de entrada:" style="rounded=0;whiteSpace=wrap;html=1;fillColor=#EEEEEE;strokeColor=#23445d;fontSize=14;fontStyle=1;align=left;container=0;" parent="BmXZFn6FjoLjCigtO_P5-21" vertex="1">
          <mxGeometry y="42" width="739" height="39.11" as="geometry" />
        </mxCell>
        <mxCell id="BmXZFn6FjoLjCigtO_P5-18" value="Formato de salida:" style="rounded=0;whiteSpace=wrap;html=1;fillColor=#EEEEEE;strokeColor=#23445d;fontSize=14;fontStyle=1;align=left;container=0;" parent="BmXZFn6FjoLjCigtO_P5-21" vertex="1">
          <mxGeometry y="782" width="740" height="39.11" as="geometry" />
        </mxCell>
        <mxCell id="EIN1vjhVvRGpG4gaG_Ry-4" value="&lt;div style=&quot;font-size: 13px;&quot;&gt;&lt;br&gt;&lt;/div&gt;" style="text;html=1;strokeColor=#000000;fillColor=none;align=left;verticalAlign=top;whiteSpace=wrap;rounded=0;fontSize=12;container=0;" parent="BmXZFn6FjoLjCigtO_P5-21" vertex="1">
          <mxGeometry x="-824" y="-29" width="1610" height="950" as="geometry" />
        </mxCell>
      </root>
    </mxGraphModel>
  </diagram>
</mxfile>
